<?xml version="1.0" encoding="utf-8" standalone="no"?>
<!DOCTYPE svg PUBLIC "-//W3C//DTD SVG 1.1//EN"
  "http://www.w3.org/Graphics/SVG/1.1/DTD/svg11.dtd">
<svg height="216pt" version="1.1" viewBox="0 0 720 216" width="720pt" xmlns="http://www.w3.org/2000/svg" xmlns:xlink="http://www.w3.org/1999/xlink">
 <metadata>
  <rdf:RDF xmlns:cc="http://creativecommons.org/ns#" xmlns:dc="http://purl.org/dc/elements/1.1/" xmlns:rdf="http://www.w3.org/1999/02/22-rdf-syntax-ns#">
   <cc:Work>
    <dc:type rdf:resource="http://purl.org/dc/dcmitype/StillImage"/>
    <dc:date>2022-03-14T15:53:25.759163</dc:date>
    <dc:format>image/svg+xml</dc:format>
    <dc:creator>
     <cc:Agent>
      <dc:title>Matplotlib v3.4.3, https://matplotlib.org/</dc:title>
     </cc:Agent>
    </dc:creator>
   </cc:Work>
  </rdf:RDF>
 </metadata>
 <defs>
  <style type="text/css">*{stroke-linecap:butt;stroke-linejoin:round;}</style>
 </defs>
 <g id="figure_1">
  <g id="patch_1">
   <path d="M 0 216 
L 720 216 
L 720 0 
L 0 0 
z
" style="fill:none;"/>
  </g>
  <g id="axes_1">
   <g id="patch_2">
    <path d="M 54.645234 174.2 
L 702.95 174.2 
L 702.95 10.8 
L 54.645234 10.8 
z
" style="fill:#ffffff;"/>
   </g>
   <g id="PolyCollection_1">
    <path clip-path="url(#ped5700bde2)" d="M 257.240474 18.227273 
L 257.240474 37303.136364 
L 730.797433 37303.136364 
L 730.797433 18.227273 
L 730.797433 18.227273 
L 257.240474 18.227273 
z
" style="fill-opacity:0.1;"/>
   </g>
   <g id="matplotlib.axis_1">
    <g id="xtick_1">
     <g id="line2d_1">
      <defs>
       <path d="M 0 0 
L 0 3.5 
" id="m6ca6615a6f" style="stroke:#000000;stroke-width:0.8;"/>
      </defs>
      <g>
       <use style="stroke:#000000;stroke-width:0.8;" x="54.645234" xlink:href="#m6ca6615a6f" y="174.2"/>
      </g>
     </g>
     <g id="text_1">
      <!-- 0 -->
      <g transform="translate(51.463984 188.798438)scale(0.1 -0.1)">
       <defs>
        <path d="M 2034 4250 
Q 1547 4250 1301 3770 
Q 1056 3291 1056 2328 
Q 1056 1369 1301 889 
Q 1547 409 2034 409 
Q 2525 409 2770 889 
Q 3016 1369 3016 2328 
Q 3016 3291 2770 3770 
Q 2525 4250 2034 4250 
z
M 2034 4750 
Q 2819 4750 3233 4129 
Q 3647 3509 3647 2328 
Q 3647 1150 3233 529 
Q 2819 -91 2034 -91 
Q 1250 -91 836 529 
Q 422 1150 422 2328 
Q 422 3509 836 4129 
Q 1250 4750 2034 4750 
z
" id="DejaVuSans-30" transform="scale(0.015625)"/>
       </defs>
       <use xlink:href="#DejaVuSans-30"/>
      </g>
     </g>
    </g>
    <g id="xtick_2">
     <g id="line2d_2">
      <g>
       <use style="stroke:#000000;stroke-width:0.8;" x="135.68333" xlink:href="#m6ca6615a6f" y="174.2"/>
      </g>
     </g>
     <g id="text_2">
      <!-- 5 -->
      <g transform="translate(132.50208 188.798438)scale(0.1 -0.1)">
       <defs>
        <path d="M 691 4666 
L 3169 4666 
L 3169 4134 
L 1269 4134 
L 1269 2991 
Q 1406 3038 1543 3061 
Q 1681 3084 1819 3084 
Q 2600 3084 3056 2656 
Q 3513 2228 3513 1497 
Q 3513 744 3044 326 
Q 2575 -91 1722 -91 
Q 1428 -91 1123 -41 
Q 819 9 494 109 
L 494 744 
Q 775 591 1075 516 
Q 1375 441 1709 441 
Q 2250 441 2565 725 
Q 2881 1009 2881 1497 
Q 2881 1984 2565 2268 
Q 2250 2553 1709 2553 
Q 1456 2553 1204 2497 
Q 953 2441 691 2322 
L 691 4666 
z
" id="DejaVuSans-35" transform="scale(0.015625)"/>
       </defs>
       <use xlink:href="#DejaVuSans-35"/>
      </g>
     </g>
    </g>
    <g id="xtick_3">
     <g id="line2d_3">
      <g>
       <use style="stroke:#000000;stroke-width:0.8;" x="216.721426" xlink:href="#m6ca6615a6f" y="174.2"/>
      </g>
     </g>
     <g id="text_3">
      <!-- 10 -->
      <g transform="translate(210.358926 188.798438)scale(0.1 -0.1)">
       <defs>
        <path d="M 794 531 
L 1825 531 
L 1825 4091 
L 703 3866 
L 703 4441 
L 1819 4666 
L 2450 4666 
L 2450 531 
L 3481 531 
L 3481 0 
L 794 0 
L 794 531 
z
" id="DejaVuSans-31" transform="scale(0.015625)"/>
       </defs>
       <use xlink:href="#DejaVuSans-31"/>
       <use x="63.623047" xlink:href="#DejaVuSans-30"/>
      </g>
     </g>
    </g>
    <g id="xtick_4">
     <g id="line2d_4">
      <g>
       <use style="stroke:#000000;stroke-width:0.8;" x="297.759521" xlink:href="#m6ca6615a6f" y="174.2"/>
      </g>
     </g>
     <g id="text_4">
      <!-- 15 -->
      <g transform="translate(291.397021 188.798438)scale(0.1 -0.1)">
       <use xlink:href="#DejaVuSans-31"/>
       <use x="63.623047" xlink:href="#DejaVuSans-35"/>
      </g>
     </g>
    </g>
    <g id="xtick_5">
     <g id="line2d_5">
      <g>
       <use style="stroke:#000000;stroke-width:0.8;" x="378.797617" xlink:href="#m6ca6615a6f" y="174.2"/>
      </g>
     </g>
     <g id="text_5">
      <!-- 20 -->
      <g transform="translate(372.435117 188.798438)scale(0.1 -0.1)">
       <defs>
        <path d="M 1228 531 
L 3431 531 
L 3431 0 
L 469 0 
L 469 531 
Q 828 903 1448 1529 
Q 2069 2156 2228 2338 
Q 2531 2678 2651 2914 
Q 2772 3150 2772 3378 
Q 2772 3750 2511 3984 
Q 2250 4219 1831 4219 
Q 1534 4219 1204 4116 
Q 875 4013 500 3803 
L 500 4441 
Q 881 4594 1212 4672 
Q 1544 4750 1819 4750 
Q 2544 4750 2975 4387 
Q 3406 4025 3406 3419 
Q 3406 3131 3298 2873 
Q 3191 2616 2906 2266 
Q 2828 2175 2409 1742 
Q 1991 1309 1228 531 
z
" id="DejaVuSans-32" transform="scale(0.015625)"/>
       </defs>
       <use xlink:href="#DejaVuSans-32"/>
       <use x="63.623047" xlink:href="#DejaVuSans-30"/>
      </g>
     </g>
    </g>
    <g id="xtick_6">
     <g id="line2d_6">
      <g>
       <use style="stroke:#000000;stroke-width:0.8;" x="459.835713" xlink:href="#m6ca6615a6f" y="174.2"/>
      </g>
     </g>
     <g id="text_6">
      <!-- 25 -->
      <g transform="translate(453.473213 188.798438)scale(0.1 -0.1)">
       <use xlink:href="#DejaVuSans-32"/>
       <use x="63.623047" xlink:href="#DejaVuSans-35"/>
      </g>
     </g>
    </g>
    <g id="xtick_7">
     <g id="line2d_7">
      <g>
       <use style="stroke:#000000;stroke-width:0.8;" x="540.873809" xlink:href="#m6ca6615a6f" y="174.2"/>
      </g>
     </g>
     <g id="text_7">
      <!-- 30 -->
      <g transform="translate(534.511309 188.798438)scale(0.1 -0.1)">
       <defs>
        <path d="M 2597 2516 
Q 3050 2419 3304 2112 
Q 3559 1806 3559 1356 
Q 3559 666 3084 287 
Q 2609 -91 1734 -91 
Q 1441 -91 1130 -33 
Q 819 25 488 141 
L 488 750 
Q 750 597 1062 519 
Q 1375 441 1716 441 
Q 2309 441 2620 675 
Q 2931 909 2931 1356 
Q 2931 1769 2642 2001 
Q 2353 2234 1838 2234 
L 1294 2234 
L 1294 2753 
L 1863 2753 
Q 2328 2753 2575 2939 
Q 2822 3125 2822 3475 
Q 2822 3834 2567 4026 
Q 2313 4219 1838 4219 
Q 1578 4219 1281 4162 
Q 984 4106 628 3988 
L 628 4550 
Q 988 4650 1302 4700 
Q 1616 4750 1894 4750 
Q 2613 4750 3031 4423 
Q 3450 4097 3450 3541 
Q 3450 3153 3228 2886 
Q 3006 2619 2597 2516 
z
" id="DejaVuSans-33" transform="scale(0.015625)"/>
       </defs>
       <use xlink:href="#DejaVuSans-33"/>
       <use x="63.623047" xlink:href="#DejaVuSans-30"/>
      </g>
     </g>
    </g>
    <g id="xtick_8">
     <g id="line2d_8">
      <g>
       <use style="stroke:#000000;stroke-width:0.8;" x="621.911904" xlink:href="#m6ca6615a6f" y="174.2"/>
      </g>
     </g>
     <g id="text_8">
      <!-- 35 -->
      <g transform="translate(615.549404 188.798438)scale(0.1 -0.1)">
       <use xlink:href="#DejaVuSans-33"/>
       <use x="63.623047" xlink:href="#DejaVuSans-35"/>
      </g>
     </g>
    </g>
    <g id="xtick_9">
     <g id="line2d_9">
      <g>
       <use style="stroke:#000000;stroke-width:0.8;" x="702.95" xlink:href="#m6ca6615a6f" y="174.2"/>
      </g>
     </g>
     <g id="text_9">
      <!-- 40 -->
      <g transform="translate(696.5875 188.798438)scale(0.1 -0.1)">
       <defs>
        <path d="M 2419 4116 
L 825 1625 
L 2419 1625 
L 2419 4116 
z
M 2253 4666 
L 3047 4666 
L 3047 1625 
L 3713 1625 
L 3713 1100 
L 3047 1100 
L 3047 0 
L 2419 0 
L 2419 1100 
L 313 1100 
L 313 1709 
L 2253 4666 
z
" id="DejaVuSans-34" transform="scale(0.015625)"/>
       </defs>
       <use xlink:href="#DejaVuSans-34"/>
       <use x="63.623047" xlink:href="#DejaVuSans-30"/>
      </g>
     </g>
    </g>
    <g id="text_10">
     <!-- time -->
     <g transform="translate(367.501523 202.476562)scale(0.1 -0.1)">
      <defs>
       <path d="M 1172 4494 
L 1172 3500 
L 2356 3500 
L 2356 3053 
L 1172 3053 
L 1172 1153 
Q 1172 725 1289 603 
Q 1406 481 1766 481 
L 2356 481 
L 2356 0 
L 1766 0 
Q 1100 0 847 248 
Q 594 497 594 1153 
L 594 3053 
L 172 3053 
L 172 3500 
L 594 3500 
L 594 4494 
L 1172 4494 
z
" id="DejaVuSans-74" transform="scale(0.015625)"/>
       <path d="M 603 3500 
L 1178 3500 
L 1178 0 
L 603 0 
L 603 3500 
z
M 603 4863 
L 1178 4863 
L 1178 4134 
L 603 4134 
L 603 4863 
z
" id="DejaVuSans-69" transform="scale(0.015625)"/>
       <path d="M 3328 2828 
Q 3544 3216 3844 3400 
Q 4144 3584 4550 3584 
Q 5097 3584 5394 3201 
Q 5691 2819 5691 2113 
L 5691 0 
L 5113 0 
L 5113 2094 
Q 5113 2597 4934 2840 
Q 4756 3084 4391 3084 
Q 3944 3084 3684 2787 
Q 3425 2491 3425 1978 
L 3425 0 
L 2847 0 
L 2847 2094 
Q 2847 2600 2669 2842 
Q 2491 3084 2119 3084 
Q 1678 3084 1418 2786 
Q 1159 2488 1159 1978 
L 1159 0 
L 581 0 
L 581 3500 
L 1159 3500 
L 1159 2956 
Q 1356 3278 1631 3431 
Q 1906 3584 2284 3584 
Q 2666 3584 2933 3390 
Q 3200 3197 3328 2828 
z
" id="DejaVuSans-6d" transform="scale(0.015625)"/>
       <path d="M 3597 1894 
L 3597 1613 
L 953 1613 
Q 991 1019 1311 708 
Q 1631 397 2203 397 
Q 2534 397 2845 478 
Q 3156 559 3463 722 
L 3463 178 
Q 3153 47 2828 -22 
Q 2503 -91 2169 -91 
Q 1331 -91 842 396 
Q 353 884 353 1716 
Q 353 2575 817 3079 
Q 1281 3584 2069 3584 
Q 2775 3584 3186 3129 
Q 3597 2675 3597 1894 
z
M 3022 2063 
Q 3016 2534 2758 2815 
Q 2500 3097 2075 3097 
Q 1594 3097 1305 2825 
Q 1016 2553 972 2059 
L 3022 2063 
z
" id="DejaVuSans-65" transform="scale(0.015625)"/>
      </defs>
      <use xlink:href="#DejaVuSans-74"/>
      <use x="39.208984" xlink:href="#DejaVuSans-69"/>
      <use x="66.992188" xlink:href="#DejaVuSans-6d"/>
      <use x="164.404297" xlink:href="#DejaVuSans-65"/>
     </g>
    </g>
   </g>
   <g id="matplotlib.axis_2">
    <g id="ytick_1">
     <g id="line2d_10">
      <defs>
       <path d="M 0 0 
L -3.5 0 
" id="m1e553c3eb6" style="stroke:#000000;stroke-width:0.8;"/>
      </defs>
      <g>
       <use style="stroke:#000000;stroke-width:0.8;" x="54.645234" xlink:href="#m1e553c3eb6" y="166.772727"/>
      </g>
     </g>
     <g id="text_11">
      <!-- $\mathdefault{10^{0}}$ -->
      <g transform="translate(30.045234 170.571946)scale(0.1 -0.1)">
       <use transform="translate(0 0.765625)" xlink:href="#DejaVuSans-31"/>
       <use transform="translate(63.623047 0.765625)" xlink:href="#DejaVuSans-30"/>
       <use transform="translate(128.203125 39.046875)scale(0.7)" xlink:href="#DejaVuSans-30"/>
      </g>
     </g>
    </g>
    <g id="ytick_2">
     <g id="line2d_11">
      <g>
       <use style="stroke:#000000;stroke-width:0.8;" x="54.645234" xlink:href="#m1e553c3eb6" y="129.636364"/>
      </g>
     </g>
     <g id="text_12">
      <!-- $\mathdefault{10^{1}}$ -->
      <g transform="translate(30.045234 133.435582)scale(0.1 -0.1)">
       <use transform="translate(0 0.684375)" xlink:href="#DejaVuSans-31"/>
       <use transform="translate(63.623047 0.684375)" xlink:href="#DejaVuSans-30"/>
       <use transform="translate(128.203125 38.965625)scale(0.7)" xlink:href="#DejaVuSans-31"/>
      </g>
     </g>
    </g>
    <g id="ytick_3">
     <g id="line2d_12">
      <g>
       <use style="stroke:#000000;stroke-width:0.8;" x="54.645234" xlink:href="#m1e553c3eb6" y="92.5"/>
      </g>
     </g>
     <g id="text_13">
      <!-- $\mathdefault{10^{2}}$ -->
      <g transform="translate(30.045234 96.299219)scale(0.1 -0.1)">
       <use transform="translate(0 0.765625)" xlink:href="#DejaVuSans-31"/>
       <use transform="translate(63.623047 0.765625)" xlink:href="#DejaVuSans-30"/>
       <use transform="translate(128.203125 39.046875)scale(0.7)" xlink:href="#DejaVuSans-32"/>
      </g>
     </g>
    </g>
    <g id="ytick_4">
     <g id="line2d_13">
      <g>
       <use style="stroke:#000000;stroke-width:0.8;" x="54.645234" xlink:href="#m1e553c3eb6" y="55.363636"/>
      </g>
     </g>
     <g id="text_14">
      <!-- $\mathdefault{10^{3}}$ -->
      <g transform="translate(30.045234 59.162855)scale(0.1 -0.1)">
       <use transform="translate(0 0.765625)" xlink:href="#DejaVuSans-31"/>
       <use transform="translate(63.623047 0.765625)" xlink:href="#DejaVuSans-30"/>
       <use transform="translate(128.203125 39.046875)scale(0.7)" xlink:href="#DejaVuSans-33"/>
      </g>
     </g>
    </g>
    <g id="ytick_5">
     <g id="line2d_14">
      <g>
       <use style="stroke:#000000;stroke-width:0.8;" x="54.645234" xlink:href="#m1e553c3eb6" y="18.227273"/>
      </g>
     </g>
     <g id="text_15">
      <!-- $\mathdefault{10^{4}}$ -->
      <g transform="translate(30.045234 22.026491)scale(0.1 -0.1)">
       <use transform="translate(0 0.684375)" xlink:href="#DejaVuSans-31"/>
       <use transform="translate(63.623047 0.684375)" xlink:href="#DejaVuSans-30"/>
       <use transform="translate(128.203125 38.965625)scale(0.7)" xlink:href="#DejaVuSans-34"/>
      </g>
     </g>
    </g>
    <g id="ytick_6">
     <g id="line2d_15">
      <defs>
       <path d="M 0 0 
L -2 0 
" id="ma7f973059b" style="stroke:#000000;stroke-width:0.6;"/>
      </defs>
      <g>
       <use style="stroke:#000000;stroke-width:0.6;" x="54.645234" xlink:href="#ma7f973059b" y="172.525223"/>
      </g>
     </g>
    </g>
    <g id="ytick_7">
     <g id="line2d_16">
      <g>
       <use style="stroke:#000000;stroke-width:0.6;" x="54.645234" xlink:href="#ma7f973059b" y="170.371613"/>
      </g>
     </g>
    </g>
    <g id="ytick_8">
     <g id="line2d_17">
      <g>
       <use style="stroke:#000000;stroke-width:0.6;" x="54.645234" xlink:href="#ma7f973059b" y="168.471994"/>
      </g>
     </g>
    </g>
    <g id="ytick_9">
     <g id="line2d_18">
      <g>
       <use style="stroke:#000000;stroke-width:0.6;" x="54.645234" xlink:href="#ma7f973059b" y="155.593568"/>
      </g>
     </g>
    </g>
    <g id="ytick_10">
     <g id="line2d_19">
      <g>
       <use style="stroke:#000000;stroke-width:0.6;" x="54.645234" xlink:href="#ma7f973059b" y="149.054179"/>
      </g>
     </g>
    </g>
    <g id="ytick_11">
     <g id="line2d_20">
      <g>
       <use style="stroke:#000000;stroke-width:0.6;" x="54.645234" xlink:href="#ma7f973059b" y="144.414409"/>
      </g>
     </g>
    </g>
    <g id="ytick_12">
     <g id="line2d_21">
      <g>
       <use style="stroke:#000000;stroke-width:0.6;" x="54.645234" xlink:href="#ma7f973059b" y="140.815523"/>
      </g>
     </g>
    </g>
    <g id="ytick_13">
     <g id="line2d_22">
      <g>
       <use style="stroke:#000000;stroke-width:0.6;" x="54.645234" xlink:href="#ma7f973059b" y="137.875019"/>
      </g>
     </g>
    </g>
    <g id="ytick_14">
     <g id="line2d_23">
      <g>
       <use style="stroke:#000000;stroke-width:0.6;" x="54.645234" xlink:href="#ma7f973059b" y="135.388859"/>
      </g>
     </g>
    </g>
    <g id="ytick_15">
     <g id="line2d_24">
      <g>
       <use style="stroke:#000000;stroke-width:0.6;" x="54.645234" xlink:href="#ma7f973059b" y="133.235249"/>
      </g>
     </g>
    </g>
    <g id="ytick_16">
     <g id="line2d_25">
      <g>
       <use style="stroke:#000000;stroke-width:0.6;" x="54.645234" xlink:href="#ma7f973059b" y="131.33563"/>
      </g>
     </g>
    </g>
    <g id="ytick_17">
     <g id="line2d_26">
      <g>
       <use style="stroke:#000000;stroke-width:0.6;" x="54.645234" xlink:href="#ma7f973059b" y="118.457204"/>
      </g>
     </g>
    </g>
    <g id="ytick_18">
     <g id="line2d_27">
      <g>
       <use style="stroke:#000000;stroke-width:0.6;" x="54.645234" xlink:href="#ma7f973059b" y="111.917815"/>
      </g>
     </g>
    </g>
    <g id="ytick_19">
     <g id="line2d_28">
      <g>
       <use style="stroke:#000000;stroke-width:0.6;" x="54.645234" xlink:href="#ma7f973059b" y="107.278045"/>
      </g>
     </g>
    </g>
    <g id="ytick_20">
     <g id="line2d_29">
      <g>
       <use style="stroke:#000000;stroke-width:0.6;" x="54.645234" xlink:href="#ma7f973059b" y="103.679159"/>
      </g>
     </g>
    </g>
    <g id="ytick_21">
     <g id="line2d_30">
      <g>
       <use style="stroke:#000000;stroke-width:0.6;" x="54.645234" xlink:href="#ma7f973059b" y="100.738656"/>
      </g>
     </g>
    </g>
    <g id="ytick_22">
     <g id="line2d_31">
      <g>
       <use style="stroke:#000000;stroke-width:0.6;" x="54.645234" xlink:href="#ma7f973059b" y="98.252496"/>
      </g>
     </g>
    </g>
    <g id="ytick_23">
     <g id="line2d_32">
      <g>
       <use style="stroke:#000000;stroke-width:0.6;" x="54.645234" xlink:href="#ma7f973059b" y="96.098885"/>
      </g>
     </g>
    </g>
    <g id="ytick_24">
     <g id="line2d_33">
      <g>
       <use style="stroke:#000000;stroke-width:0.6;" x="54.645234" xlink:href="#ma7f973059b" y="94.199267"/>
      </g>
     </g>
    </g>
    <g id="ytick_25">
     <g id="line2d_34">
      <g>
       <use style="stroke:#000000;stroke-width:0.6;" x="54.645234" xlink:href="#ma7f973059b" y="81.320841"/>
      </g>
     </g>
    </g>
    <g id="ytick_26">
     <g id="line2d_35">
      <g>
       <use style="stroke:#000000;stroke-width:0.6;" x="54.645234" xlink:href="#ma7f973059b" y="74.781452"/>
      </g>
     </g>
    </g>
    <g id="ytick_27">
     <g id="line2d_36">
      <g>
       <use style="stroke:#000000;stroke-width:0.6;" x="54.645234" xlink:href="#ma7f973059b" y="70.141681"/>
      </g>
     </g>
    </g>
    <g id="ytick_28">
     <g id="line2d_37">
      <g>
       <use style="stroke:#000000;stroke-width:0.6;" x="54.645234" xlink:href="#ma7f973059b" y="66.542796"/>
      </g>
     </g>
    </g>
    <g id="ytick_29">
     <g id="line2d_38">
      <g>
       <use style="stroke:#000000;stroke-width:0.6;" x="54.645234" xlink:href="#ma7f973059b" y="63.602292"/>
      </g>
     </g>
    </g>
    <g id="ytick_30">
     <g id="line2d_39">
      <g>
       <use style="stroke:#000000;stroke-width:0.6;" x="54.645234" xlink:href="#ma7f973059b" y="61.116132"/>
      </g>
     </g>
    </g>
    <g id="ytick_31">
     <g id="line2d_40">
      <g>
       <use style="stroke:#000000;stroke-width:0.6;" x="54.645234" xlink:href="#ma7f973059b" y="58.962522"/>
      </g>
     </g>
    </g>
    <g id="ytick_32">
     <g id="line2d_41">
      <g>
       <use style="stroke:#000000;stroke-width:0.6;" x="54.645234" xlink:href="#ma7f973059b" y="57.062903"/>
      </g>
     </g>
    </g>
    <g id="ytick_33">
     <g id="line2d_42">
      <g>
       <use style="stroke:#000000;stroke-width:0.6;" x="54.645234" xlink:href="#ma7f973059b" y="44.184477"/>
      </g>
     </g>
    </g>
    <g id="ytick_34">
     <g id="line2d_43">
      <g>
       <use style="stroke:#000000;stroke-width:0.6;" x="54.645234" xlink:href="#ma7f973059b" y="37.645088"/>
      </g>
     </g>
    </g>
    <g id="ytick_35">
     <g id="line2d_44">
      <g>
       <use style="stroke:#000000;stroke-width:0.6;" x="54.645234" xlink:href="#ma7f973059b" y="33.005318"/>
      </g>
     </g>
    </g>
    <g id="ytick_36">
     <g id="line2d_45">
      <g>
       <use style="stroke:#000000;stroke-width:0.6;" x="54.645234" xlink:href="#ma7f973059b" y="29.406432"/>
      </g>
     </g>
    </g>
    <g id="ytick_37">
     <g id="line2d_46">
      <g>
       <use style="stroke:#000000;stroke-width:0.6;" x="54.645234" xlink:href="#ma7f973059b" y="26.465929"/>
      </g>
     </g>
    </g>
    <g id="ytick_38">
     <g id="line2d_47">
      <g>
       <use style="stroke:#000000;stroke-width:0.6;" x="54.645234" xlink:href="#ma7f973059b" y="23.979768"/>
      </g>
     </g>
    </g>
    <g id="ytick_39">
     <g id="line2d_48">
      <g>
       <use style="stroke:#000000;stroke-width:0.6;" x="54.645234" xlink:href="#ma7f973059b" y="21.826158"/>
      </g>
     </g>
    </g>
    <g id="ytick_40">
     <g id="line2d_49">
      <g>
       <use style="stroke:#000000;stroke-width:0.6;" x="54.645234" xlink:href="#ma7f973059b" y="19.92654"/>
      </g>
     </g>
    </g>
    <g id="text_16">
     <!-- Mutant fraction ($\phi$) -->
     <g transform="translate(23.945234 139.75)rotate(-90)scale(0.1 -0.1)">
      <defs>
       <path d="M 628 4666 
L 1569 4666 
L 2759 1491 
L 3956 4666 
L 4897 4666 
L 4897 0 
L 4281 0 
L 4281 4097 
L 3078 897 
L 2444 897 
L 1241 4097 
L 1241 0 
L 628 0 
L 628 4666 
z
" id="DejaVuSans-4d" transform="scale(0.015625)"/>
       <path d="M 544 1381 
L 544 3500 
L 1119 3500 
L 1119 1403 
Q 1119 906 1312 657 
Q 1506 409 1894 409 
Q 2359 409 2629 706 
Q 2900 1003 2900 1516 
L 2900 3500 
L 3475 3500 
L 3475 0 
L 2900 0 
L 2900 538 
Q 2691 219 2414 64 
Q 2138 -91 1772 -91 
Q 1169 -91 856 284 
Q 544 659 544 1381 
z
M 1991 3584 
L 1991 3584 
z
" id="DejaVuSans-75" transform="scale(0.015625)"/>
       <path d="M 2194 1759 
Q 1497 1759 1228 1600 
Q 959 1441 959 1056 
Q 959 750 1161 570 
Q 1363 391 1709 391 
Q 2188 391 2477 730 
Q 2766 1069 2766 1631 
L 2766 1759 
L 2194 1759 
z
M 3341 1997 
L 3341 0 
L 2766 0 
L 2766 531 
Q 2569 213 2275 61 
Q 1981 -91 1556 -91 
Q 1019 -91 701 211 
Q 384 513 384 1019 
Q 384 1609 779 1909 
Q 1175 2209 1959 2209 
L 2766 2209 
L 2766 2266 
Q 2766 2663 2505 2880 
Q 2244 3097 1772 3097 
Q 1472 3097 1187 3025 
Q 903 2953 641 2809 
L 641 3341 
Q 956 3463 1253 3523 
Q 1550 3584 1831 3584 
Q 2591 3584 2966 3190 
Q 3341 2797 3341 1997 
z
" id="DejaVuSans-61" transform="scale(0.015625)"/>
       <path d="M 3513 2113 
L 3513 0 
L 2938 0 
L 2938 2094 
Q 2938 2591 2744 2837 
Q 2550 3084 2163 3084 
Q 1697 3084 1428 2787 
Q 1159 2491 1159 1978 
L 1159 0 
L 581 0 
L 581 3500 
L 1159 3500 
L 1159 2956 
Q 1366 3272 1645 3428 
Q 1925 3584 2291 3584 
Q 2894 3584 3203 3211 
Q 3513 2838 3513 2113 
z
" id="DejaVuSans-6e" transform="scale(0.015625)"/>
       <path id="DejaVuSans-20" transform="scale(0.015625)"/>
       <path d="M 2375 4863 
L 2375 4384 
L 1825 4384 
Q 1516 4384 1395 4259 
Q 1275 4134 1275 3809 
L 1275 3500 
L 2222 3500 
L 2222 3053 
L 1275 3053 
L 1275 0 
L 697 0 
L 697 3053 
L 147 3053 
L 147 3500 
L 697 3500 
L 697 3744 
Q 697 4328 969 4595 
Q 1241 4863 1831 4863 
L 2375 4863 
z
" id="DejaVuSans-66" transform="scale(0.015625)"/>
       <path d="M 2631 2963 
Q 2534 3019 2420 3045 
Q 2306 3072 2169 3072 
Q 1681 3072 1420 2755 
Q 1159 2438 1159 1844 
L 1159 0 
L 581 0 
L 581 3500 
L 1159 3500 
L 1159 2956 
Q 1341 3275 1631 3429 
Q 1922 3584 2338 3584 
Q 2397 3584 2469 3576 
Q 2541 3569 2628 3553 
L 2631 2963 
z
" id="DejaVuSans-72" transform="scale(0.015625)"/>
       <path d="M 3122 3366 
L 3122 2828 
Q 2878 2963 2633 3030 
Q 2388 3097 2138 3097 
Q 1578 3097 1268 2742 
Q 959 2388 959 1747 
Q 959 1106 1268 751 
Q 1578 397 2138 397 
Q 2388 397 2633 464 
Q 2878 531 3122 666 
L 3122 134 
Q 2881 22 2623 -34 
Q 2366 -91 2075 -91 
Q 1284 -91 818 406 
Q 353 903 353 1747 
Q 353 2603 823 3093 
Q 1294 3584 2113 3584 
Q 2378 3584 2631 3529 
Q 2884 3475 3122 3366 
z
" id="DejaVuSans-63" transform="scale(0.015625)"/>
       <path d="M 1959 3097 
Q 1497 3097 1228 2736 
Q 959 2375 959 1747 
Q 959 1119 1226 758 
Q 1494 397 1959 397 
Q 2419 397 2687 759 
Q 2956 1122 2956 1747 
Q 2956 2369 2687 2733 
Q 2419 3097 1959 3097 
z
M 1959 3584 
Q 2709 3584 3137 3096 
Q 3566 2609 3566 1747 
Q 3566 888 3137 398 
Q 2709 -91 1959 -91 
Q 1206 -91 779 398 
Q 353 888 353 1747 
Q 353 2609 779 3096 
Q 1206 3584 1959 3584 
z
" id="DejaVuSans-6f" transform="scale(0.015625)"/>
       <path d="M 1984 4856 
Q 1566 4138 1362 3434 
Q 1159 2731 1159 2009 
Q 1159 1288 1364 580 
Q 1569 -128 1984 -844 
L 1484 -844 
Q 1016 -109 783 600 
Q 550 1309 550 2009 
Q 550 2706 781 3412 
Q 1013 4119 1484 4856 
L 1984 4856 
z
" id="DejaVuSans-28" transform="scale(0.015625)"/>
       <path d="M 2991 4863 
L 2738 3572 
Q 3363 3572 3684 3094 
Q 4016 2606 3850 1747 
Q 3681 888 3159 400 
Q 2653 -78 2028 -78 
L 1784 -1331 
L 1213 -1331 
L 1456 -78 
Q 834 -78 509 400 
Q 178 888 347 1747 
Q 513 2606 1034 3094 
Q 1544 3572 2166 3572 
L 2419 4863 
L 2991 4863 
z
M 2128 434 
Q 2481 434 2784 756 
Q 3116 1116 3244 1747 
Q 3369 2372 3169 2738 
Q 2991 3059 2638 3059 
L 2128 434 
z
M 1556 434 
L 2066 3059 
Q 1716 3059 1413 2738 
Q 1072 2372 953 1747 
Q 834 1116 1028 756 
Q 1203 434 1556 434 
z
" id="DejaVuSans-Oblique-3d5" transform="scale(0.015625)"/>
       <path d="M 513 4856 
L 1013 4856 
Q 1481 4119 1714 3412 
Q 1947 2706 1947 2009 
Q 1947 1309 1714 600 
Q 1481 -109 1013 -844 
L 513 -844 
Q 928 -128 1133 580 
Q 1338 1288 1338 2009 
Q 1338 2731 1133 3434 
Q 928 4138 513 4856 
z
" id="DejaVuSans-29" transform="scale(0.015625)"/>
      </defs>
      <use transform="translate(0 0.015625)" xlink:href="#DejaVuSans-4d"/>
      <use transform="translate(86.279297 0.015625)" xlink:href="#DejaVuSans-75"/>
      <use transform="translate(149.658203 0.015625)" xlink:href="#DejaVuSans-74"/>
      <use transform="translate(188.867188 0.015625)" xlink:href="#DejaVuSans-61"/>
      <use transform="translate(250.146484 0.015625)" xlink:href="#DejaVuSans-6e"/>
      <use transform="translate(313.525391 0.015625)" xlink:href="#DejaVuSans-74"/>
      <use transform="translate(352.734375 0.015625)" xlink:href="#DejaVuSans-20"/>
      <use transform="translate(384.521484 0.015625)" xlink:href="#DejaVuSans-66"/>
      <use transform="translate(419.726562 0.015625)" xlink:href="#DejaVuSans-72"/>
      <use transform="translate(460.839844 0.015625)" xlink:href="#DejaVuSans-61"/>
      <use transform="translate(522.119141 0.015625)" xlink:href="#DejaVuSans-63"/>
      <use transform="translate(577.099609 0.015625)" xlink:href="#DejaVuSans-74"/>
      <use transform="translate(616.308594 0.015625)" xlink:href="#DejaVuSans-69"/>
      <use transform="translate(644.091797 0.015625)" xlink:href="#DejaVuSans-6f"/>
      <use transform="translate(705.273438 0.015625)" xlink:href="#DejaVuSans-6e"/>
      <use transform="translate(768.652344 0.015625)" xlink:href="#DejaVuSans-20"/>
      <use transform="translate(800.439453 0.015625)" xlink:href="#DejaVuSans-28"/>
      <use transform="translate(839.453125 0.015625)" xlink:href="#DejaVuSans-Oblique-3d5"/>
      <use transform="translate(905.419922 0.015625)" xlink:href="#DejaVuSans-29"/>
     </g>
    </g>
   </g>
   <g id="LineCollection_1">
    <path clip-path="url(#ped5700bde2)" d="M 257.240474 217 
L 257.240474 18.227273 
" style="fill:none;stroke:#1f77b4;stroke-dasharray:5.55,2.4;stroke-dashoffset:0;stroke-width:1.5;"/>
   </g>
   <g id="LineCollection_2">
    <path clip-path="url(#ped5700bde2)" d="M 257.240474 217 
L 257.240474 18.227273 
" style="fill:none;stroke:#1f77b4;stroke-dasharray:5.55,2.4;stroke-dashoffset:0;stroke-width:1.5;"/>
   </g>
   <g id="line2d_50">
    <path clip-path="url(#ped5700bde2)" d="M 54.645234 166.772727 
L 58.071088 155.593568 
L 65.614296 166.772727 
L 72.708563 149.054179 
L 75.009858 144.414409 
L 76.360501 149.054179 
L 77.563356 155.593568 
L 81.714222 149.054179 
L 83.767039 144.414409 
L 84.353034 140.815523 
L 84.609231 144.414409 
L 85.681047 140.815523 
L 86.844754 137.875019 
L 87.06065 133.235249 
L 92.594474 131.33563 
L 92.689041 133.235249 
L 92.823236 131.33563 
L 93.883966 129.636364 
L 94.078413 131.33563 
L 95.061347 133.235249 
L 99.600474 135.388859 
L 99.954347 137.875019 
L 100.130054 135.388859 
L 100.732868 140.815523 
L 103.751363 137.875019 
L 104.113399 135.388859 
L 106.377024 137.875019 
L 108.133133 135.388859 
L 108.150519 133.235249 
L 112.244427 131.33563 
L 113.744595 129.636364 
L 113.814016 128.09919 
L 114.50208 129.636364 
L 114.635211 131.33563 
L 115.283168 129.636364 
L 116.958693 128.09919 
L 117.63786 126.69586 
L 117.832003 128.09919 
L 118.110344 126.69586 
L 119.630785 125.404922 
L 120.196061 124.2097 
L 120.225168 125.404922 
L 121.72576 124.2097 
L 122.562364 125.404922 
L 123.434359 123.096975 
L 123.46157 122.05609 
L 124.086016 121.078329 
L 125.883971 120.156471 
L 126.285179 119.284469 
L 126.291917 120.156471 
L 126.518728 121.078329 
L 127.264004 122.05609 
L 127.70846 123.096975 
L 128.894272 122.05609 
L 128.909888 123.096975 
L 129.270463 124.2097 
L 129.956053 125.404922 
L 130.502729 126.69586 
L 131.673095 128.09919 
L 133.464345 126.69586 
L 133.87582 125.404922 
L 134.099654 124.2097 
L 134.27238 125.404922 
L 134.595809 124.2097 
L 135.086278 123.096975 
L 135.147706 124.2097 
L 135.591935 123.096975 
L 136.69513 124.2097 
L 137.840414 123.096975 
L 137.924138 122.05609 
L 138.113201 123.096975 
L 138.233924 121.078329 
L 138.948011 120.156471 
L 141.031333 118.457204 
L 142.353086 117.670311 
L 142.503532 116.92003 
L 143.194655 116.203107 
L 143.669636 116.92003 
L 145.803202 117.670311 
L 145.864255 118.457204 
L 146.525502 120.156471 
L 148.120768 119.284469 
L 148.624803 120.156471 
L 148.660592 119.284469 
L 148.688974 120.156471 
L 149.250678 119.284469 
L 150.079212 120.156471 
L 150.186725 119.284469 
L 150.359076 120.156471 
L 150.498234 119.284469 
L 150.654898 120.156471 
L 151.086834 119.284469 
L 151.129552 120.156471 
L 151.347588 121.078329 
L 152.063615 120.156471 
L 152.108118 121.078329 
L 152.800761 120.156471 
L 153.602391 119.284469 
L 154.58643 118.457204 
L 154.861791 117.670311 
L 155.252753 118.457204 
L 155.545808 117.670311 
L 156.121394 118.457204 
L 156.588038 117.670311 
L 156.73843 116.92003 
L 157.272128 116.203107 
L 157.340888 115.516701 
L 157.429981 116.92003 
L 157.962603 116.203107 
L 158.047626 115.516701 
L 158.097184 116.203107 
L 158.238147 115.516701 
L 158.767752 114.858319 
L 159.12098 114.225762 
L 159.471414 114.858319 
L 160.064262 114.225762 
L 160.134562 114.858319 
L 161.063689 115.516701 
L 161.094927 114.858319 
L 161.193638 115.516701 
L 161.428133 114.858319 
L 161.647289 115.516701 
L 162.062559 114.858319 
L 162.248974 116.203107 
L 162.45661 115.516701 
L 162.477118 116.203107 
L 164.379328 116.92003 
L 164.516698 116.203107 
L 165.072827 114.858319 
L 165.577058 115.516701 
L 165.728587 114.858319 
L 165.802549 115.516701 
L 165.83971 114.858319 
L 165.889278 114.225762 
L 166.177455 113.617082 
L 166.232864 113.03054 
L 167.029198 112.464583 
L 167.378088 113.03054 
L 167.390665 113.617082 
L 167.616811 113.03054 
L 167.803695 113.617082 
L 167.857811 113.03054 
L 168.696377 113.617082 
L 168.711849 114.225762 
L 169.119049 114.858319 
L 169.191202 115.516701 
L 169.409814 114.858319 
L 169.651363 115.516701 
L 169.809802 114.858319 
L 169.946101 115.516701 
L 170.286015 114.858319 
L 170.403663 115.516701 
L 170.611043 114.858319 
L 171.185402 114.225762 
L 171.259283 114.858319 
L 172.454182 115.516701 
L 172.500712 116.203107 
L 173.013747 115.516701 
L 173.107286 114.858319 
L 173.852137 116.203107 
L 174.342577 115.516701 
L 174.519452 114.858319 
L 174.654449 116.203107 
L 174.884391 117.670311 
L 175.196442 116.92003 
L 175.56117 117.670311 
L 176.324297 118.457204 
L 177.027265 117.670311 
L 177.284646 116.92003 
L 177.350938 117.670311 
L 178.190305 118.457204 
L 178.79484 116.92003 
L 178.943253 117.670311 
L 179.071792 116.203107 
L 179.429231 115.516701 
L 180.232695 114.858319 
L 180.35062 114.225762 
L 180.438418 114.858319 
L 180.684043 114.225762 
L 181.07534 114.858319 
L 181.117017 114.225762 
L 181.359293 113.617082 
L 181.437896 114.225762 
L 181.444857 113.617082 
L 181.521524 113.03054 
L 181.617005 113.617082 
L 181.880724 114.225762 
L 182.390867 113.617082 
L 182.710795 112.464583 
L 183.306899 111.917815 
L 183.744424 112.464583 
L 183.750506 111.917815 
L 183.802902 112.464583 
L 184.014208 113.03054 
L 184.114054 112.464583 
L 184.124922 113.03054 
L 184.181029 113.617082 
L 184.182864 113.03054 
L 184.241733 112.464583 
L 184.348619 113.03054 
L 184.4567 112.464583 
L 184.694833 113.03054 
L 184.752608 113.617082 
L 184.928296 114.225762 
L 184.988469 116.203107 
L 185.047012 115.516701 
L 186.138309 114.858319 
L 186.199381 112.464583 
L 186.20835 113.03054 
L 186.490208 114.225762 
L 187.021347 114.858319 
L 187.150498 113.617082 
L 187.764462 113.03054 
L 188.209628 114.225762 
L 188.448767 111.917815 
L 188.91688 112.464583 
L 189.280149 111.917815 
L 189.785055 111.388977 
L 189.85986 110.87693 
L 189.905978 111.388977 
L 190.256717 110.380641 
L 190.655815 109.899169 
L 190.80211 109.431655 
L 191.439942 108.977312 
L 191.528553 109.899169 
L 191.865829 108.535418 
L 192.066435 108.977312 
L 192.852207 108.535418 
L 193.164181 108.105309 
L 193.248958 108.535418 
L 193.507783 108.105309 
L 193.747631 106.8798 
L 194.079196 107.686373 
L 194.244672 106.491151 
L 194.367897 106.8798 
L 195.417571 106.111649 
L 195.516117 106.491151 
L 195.600084 105.740871 
L 196.029284 106.8798 
L 196.192152 106.491151 
L 196.858775 106.111649 
L 197.094836 105.378426 
L 197.176004 105.740871 
L 197.49825 104.337541 
L 197.742159 103.679159 
L 197.883642 104.004991 
L 197.952911 103.679159 
L 198.150732 103.35978 
L 198.208333 103.679159 
L 198.461516 102.739392 
L 198.724799 103.046603 
L 198.969731 102.437923 
L 199.116703 103.046603 
L 199.277364 102.437923 
L 199.28519 102.141986 
L 199.379728 102.437923 
L 199.671972 102.141986 
L 199.896902 102.437923 
L 200.084134 101.285424 
L 200.602055 101.009723 
L 200.649084 101.285424 
L 201.468955 100.738656 
L 201.490739 100.472069 
L 201.811799 100.209818 
L 201.889974 99.951762 
L 202.093638 99.697771 
L 202.165849 99.951762 
L 202.280576 99.697771 
L 202.326447 99.951762 
L 203.075091 100.209818 
L 203.140068 99.951762 
L 203.182467 100.209818 
L 203.413962 100.738656 
L 203.451776 100.472069 
L 203.507732 100.209818 
L 203.69794 99.951762 
L 203.747988 100.738656 
L 203.856393 100.472069 
L 204.164996 100.209818 
L 204.257391 99.697771 
L 204.425883 99.951762 
L 204.635802 99.697771 
L 204.792224 100.209818 
L 204.967173 100.472069 
L 205.162208 100.209818 
L 205.312481 99.697771 
L 205.726337 98.72001 
L 205.780199 98.958949 
L 205.870726 98.72001 
L 205.998201 99.201482 
L 206.191944 99.447718 
L 206.192097 99.697771 
L 206.46702 99.447718 
L 206.568166 98.958949 
L 206.60011 98.72001 
L 206.62902 98.958949 
L 206.682893 99.201482 
L 206.952511 99.447718 
L 206.962626 99.697771 
L 207.004029 99.447718 
L 207.10015 99.201482 
L 207.161149 99.447718 
L 207.294984 98.958949 
L 207.306424 99.201482 
L 207.352709 99.447718 
L 207.563057 98.958949 
L 208.192697 99.201482 
L 208.603827 98.023724 
L 208.793022 97.798152 
L 208.887819 98.252496 
L 208.897044 98.023724 
L 209.223148 97.798152 
L 209.385896 97.356258 
L 209.445848 96.92615 
L 209.56107 97.13977 
L 209.865757 97.356258 
L 210.312467 97.13977 
L 210.941527 97.798152 
L 210.960419 97.575692 
L 211.047253 97.798152 
L 211.222425 98.023724 
L 211.24698 97.798152 
L 211.299021 98.023724 
L 211.587915 97.798152 
L 211.609722 98.023724 
L 211.623993 97.575692 
L 211.843623 96.507214 
L 211.86811 96.098885 
L 211.885743 96.301758 
L 212.009825 96.098885 
L 212.039155 96.92615 
L 212.242726 96.507214 
L 212.525366 95.70064 
L 212.653024 95.311992 
L 212.693824 95.121124 
L 212.804716 95.505145 
L 212.982311 95.311992 
L 213.117423 95.505145 
L 213.171207 95.121124 
L 213.321555 94.746035 
L 213.545443 95.121124 
L 213.650579 95.70064 
L 213.811601 95.898534 
L 214.005523 95.505145 
L 214.227474 95.311992 
L 214.290931 94.932489 
L 214.54628 94.746035 
L 214.57751 94.932489 
L 214.619612 94.746035 
L 214.816313 94.379471 
L 214.870762 94.561712 
L 215.039051 94.379471 
L 215.120877 94.561712 
L 215.130995 94.379471 
L 215.1969 94.199267 
L 215.220751 94.379471 
L 215.45235 93.844788 
L 215.589216 94.021054 
L 215.70416 93.497934 
L 215.865964 92.99125 
L 216.09174 93.497934 
L 216.118347 93.327264 
L 216.233712 92.99125 
L 216.37344 93.158382 
L 216.462853 92.99125 
L 216.592619 93.158382 
L 216.723736 92.662093 
L 216.791626 92.825832 
L 217.045779 92.99125 
L 217.090995 92.825832 
L 217.145233 92.99125 
L 217.439558 92.5 
L 217.447672 92.662093 
L 217.484072 92.825832 
L 217.799968 93.158382 
L 217.826776 92.99125 
L 217.958292 92.662093 
L 218.064307 92.825832 
L 218.082914 92.99125 
L 218.094941 92.825832 
L 218.305239 93.158382 
L 218.34874 93.327264 
L 218.356105 93.158382 
L 218.773009 92.180621 
L 218.784201 92.33952 
L 219.086246 92.180621 
L 219.301352 92.33952 
L 219.364103 92.180621 
L 219.371608 92.33952 
L 219.683176 91.867444 
L 219.851158 91.110116 
L 220.078096 91.408793 
L 220.080397 91.258763 
L 220.216763 90.962826 
L 220.319118 91.110116 
L 220.327889 90.962826 
L 220.438985 90.672222 
L 220.676977 90.816869 
L 220.715686 90.672222 
L 220.726639 90.816869 
L 221.058454 91.110116 
L 221.102646 90.816869 
L 221.160249 90.962826 
L 221.704172 89.967825 
L 221.836088 89.559496 
L 221.89606 89.694461 
L 222.07145 89.161251 
L 222.105165 89.030658 
L 222.201256 89.29291 
L 222.246964 89.161251 
L 222.489102 88.268558 
L 222.653182 87.9006 
L 222.672951 88.022323 
L 223.101903 87.9006 
L 223.123324 88.022323 
L 223.178001 87.77979 
L 223.446745 87.305399 
L 223.489885 87.073336 
L 223.547921 87.305399 
L 223.631879 87.073336 
L 223.77264 87.305399 
L 223.822935 87.18895 
L 223.882468 86.844565 
L 223.901454 87.073336 
L 224.14148 86.844565 
L 224.259394 87.073336 
L 224.429746 86.844565 
L 224.720056 86.507379 
L 224.76532 86.731384 
L 224.81804 86.618993 
L 225.090456 86.286443 
L 225.555413 86.068492 
L 225.568335 86.286443 
L 225.60153 86.068492 
L 225.726868 86.177099 
L 225.736101 86.068492 
L 225.764069 85.74699 
L 225.857599 85.960611 
L 226.0702 86.844565 
L 226.134044 86.731384 
L 226.310051 86.844565 
L 226.316124 86.731384 
L 226.88009 85.960611 
L 226.935312 86.177099 
L 226.977311 86.068492 
L 227.253523 85.536162 
L 227.379178 85.328055 
L 227.396268 85.431773 
L 227.483147 85.536162 
L 227.522103 85.431773 
L 227.560509 85.328055 
L 227.662372 85.431773 
L 227.924612 85.122598 
L 228.094272 85.328055 
L 228.09862 85.224999 
L 228.131986 85.122598 
L 228.469266 85.224999 
L 228.66376 85.122598 
L 228.744409 85.224999 
L 228.794111 85.122598 
L 229.16764 84.620124 
L 229.557446 85.224999 
L 229.652383 85.122598 
L 229.674356 85.224999 
L 229.727987 85.431773 
L 229.733166 85.328055 
L 230.091377 84.819239 
L 230.122632 84.919726 
L 230.214986 85.122598 
L 230.221207 85.224999 
L 230.280111 84.819239 
L 230.437224 84.620124 
L 230.447024 84.719374 
L 230.64635 84.521481 
L 230.740096 84.620124 
L 230.75999 84.521481 
L 230.794843 84.325986 
L 230.86181 84.521481 
L 231.101486 84.620124 
L 231.274236 84.423437 
L 231.353042 84.325986 
L 231.376304 84.423437 
L 231.521487 84.22912 
L 231.759279 84.423437 
L 231.801021 84.325986 
L 231.997822 84.521481 
L 232.063444 84.423437 
L 232.186262 84.521481 
L 232.187498 84.423437 
L 232.200531 84.325986 
L 232.257663 84.521481 
L 232.266057 84.423437 
L 232.412488 84.620124 
L 232.511669 84.521481 
L 232.560314 84.22912 
L 232.565959 84.325986 
L 232.826783 84.132833 
L 232.939058 84.325986 
L 233.004219 84.22912 
L 233.014783 83.847372 
L 233.058984 83.941965 
L 233.135489 84.037116 
L 233.255085 83.941965 
L 233.390858 84.037116 
L 233.630948 83.566876 
L 233.641711 83.659833 
L 233.704056 83.941965 
L 233.800338 83.659833 
L 233.871612 83.566876 
L 233.92205 83.659833 
L 233.95211 83.566876 
L 234.373722 83.020107 
L 234.486114 82.841894 
L 234.529053 82.930755 
L 234.618443 82.841894 
L 234.622057 82.930755 
L 234.631745 83.020107 
L 234.704417 82.665629 
L 234.798862 83.109958 
L 234.821609 82.930755 
L 234.938229 83.109958 
L 234.971379 83.020107 
L 234.979873 82.930755 
L 235.0461 83.109958 
L 235.06355 83.020107 
L 235.16391 83.200312 
L 235.178008 83.109958 
L 235.203867 83.020107 
L 235.237931 83.109958 
L 235.466794 83.020107 
L 235.482682 83.109958 
L 235.624261 83.382552 
L 235.645819 83.291175 
L 235.709732 82.930755 
L 235.767683 83.020107 
L 235.879754 82.841894 
L 235.908097 82.665629 
L 235.980506 82.753521 
L 236.096121 82.491269 
L 236.482488 82.063443 
L 236.490038 82.148105 
L 236.525966 82.318774 
L 236.774924 82.404791 
L 236.951631 81.89544 
L 237.548855 81.482934 
L 237.809237 81.646672 
L 237.813417 81.564595 
L 237.886889 81.240401 
L 237.90141 81.401683 
L 238.051967 81.564595 
L 238.222073 81.729169 
L 238.260157 81.646672 
L 238.362617 81.401683 
L 238.440646 81.482934 
L 238.495964 81.401683 
L 238.501875 81.320841 
L 238.58803 81.401683 
L 238.626245 81.160361 
L 238.700585 81.320841 
L 238.916791 81.240401 
L 238.938329 81.320841 
L 238.957232 81.160361 
L 238.992467 81.080715 
L 239.014599 81.240401 
L 239.089167 81.482934 
L 239.151542 81.320841 
L 239.191214 81.160361 
L 239.244479 81.240401 
L 239.472062 81.482934 
L 239.509294 81.320841 
L 239.635678 81.240401 
L 239.805904 81.320841 
L 239.844254 81.240401 
L 239.910182 81.320841 
L 240.00668 81.482934 
L 240.058345 81.401683 
L 240.170802 81.240401 
L 240.575365 80.688284 
L 240.596834 80.76601 
L 241.195094 80.229634 
L 241.237048 80.305176 
L 241.289429 80.154444 
L 241.363022 80.229634 
L 241.394332 80.154444 
L 241.448741 79.930957 
L 241.541016 79.710523 
L 241.548503 79.63771 
L 241.886021 79.63771 
L 242.040835 79.421222 
L 242.182022 79.493062 
L 242.216041 79.421222 
L 242.618762 79.066744 
L 242.651463 79.207601 
L 242.711058 79.066744 
L 242.772602 78.927105 
L 243.104313 79.066744 
L 243.165701 78.996773 
L 243.440941 79.207601 
L 243.446021 79.137019 
L 243.591943 78.927105 
L 243.775778 78.515301 
L 243.876431 78.380337 
L 243.842671 78.583209 
L 243.904527 78.447678 
L 244.189911 78.113751 
L 244.52208 78.313276 
L 244.902341 78.113751 
L 244.927104 78.313276 
L 244.985 78.246493 
L 245.083229 78.313276 
L 245.107691 78.246493 
L 245.204165 77.851499 
L 245.262224 77.916663 
L 245.306556 77.851499 
L 245.367008 77.786597 
L 245.401379 77.916663 
L 245.49359 78.047787 
L 245.532619 77.982092 
L 245.606813 77.786597 
L 245.642411 77.916663 
L 245.681813 77.982092 
L 245.88776 77.786597 
L 245.908028 77.657571 
L 245.974264 77.916663 
L 246.085309 77.721955 
L 246.10374 77.786597 
L 246.20885 77.916663 
L 246.21693 77.851499 
L 246.250977 77.786597 
L 246.277289 77.916663 
L 246.281357 77.851499 
L 246.361995 78.047787 
L 246.408354 77.982092 
L 246.436041 78.113751 
L 246.502839 78.047787 
L 246.523272 78.113751 
L 246.580899 78.047787 
L 246.665286 78.313276 
L 246.964604 78.179985 
L 246.968779 78.246493 
L 247.0019 78.047787 
L 247.038578 78.047787 
L 247.104223 77.916663 
L 247.160626 77.982092 
L 247.298754 78.113751 
L 247.337802 78.047787 
L 247.459307 77.593444 
L 247.483549 77.721955 
L 247.551188 77.916663 
L 247.7464 78.047787 
L 247.772224 77.982092 
L 247.829577 77.916663 
L 247.845298 77.982092 
L 247.873946 78.047787 
L 247.926714 77.916663 
L 248.107873 77.657571 
L 248.276021 77.851499 
L 248.316611 77.916663 
L 248.340987 77.851499 
L 248.503374 77.657571 
L 248.545005 77.721955 
L 248.561049 77.851499 
L 248.636959 77.657571 
L 248.752608 77.52957 
L 248.883629 77.657571 
L 248.935014 77.52957 
L 249.000871 77.657571 
L 249.047812 77.402576 
L 249.092975 77.52957 
L 249.29295 77.276574 
L 249.451803 76.843163 
L 249.495824 76.904371 
L 249.573466 76.843163 
L 249.600655 76.721441 
L 249.670487 76.782187 
L 249.705321 76.721441 
L 249.756568 76.782187 
L 249.906548 76.782187 
L 249.911557 76.843163 
L 249.996705 76.660923 
L 250.027446 76.721441 
L 250.060068 76.600631 
L 250.151702 76.540563 
L 250.249219 76.721441 
L 250.28398 76.600631 
L 250.416246 76.421095 
L 250.439665 76.480718 
L 250.616002 76.480718 
L 250.635509 76.361691 
L 250.666307 76.421095 
L 250.915108 76.243536 
L 250.931562 76.361691 
L 250.942888 76.421095 
L 250.980251 76.243536 
L 251.017358 76.243536 
L 251.348795 76.480718 
L 251.369505 76.421095 
L 251.517445 76.243536 
L 251.536639 76.302505 
L 251.560971 76.184781 
L 251.711505 76.12624 
L 251.719558 76.184781 
L 251.760578 76.243536 
L 251.769574 76.06791 
L 251.806098 76.009791 
L 251.798152 76.12624 
L 251.868697 76.12624 
L 252.0161 76.184781 
L 252.074237 76.009791 
L 252.163487 76.06791 
L 252.206244 76.243536 
L 252.261175 76.12624 
L 252.90163 75.552225 
L 253.173443 76.009791 
L 253.195247 75.894177 
L 253.290978 75.722295 
L 253.222836 75.95188 
L 253.302036 75.836679 
L 253.425702 75.779385 
L 253.445081 75.836679 
L 253.518763 75.894177 
L 253.530716 75.836679 
L 253.628315 75.665405 
L 253.675914 75.722295 
L 253.74686 75.836679 
L 253.775134 75.779385 
L 254.010883 75.552225 
L 254.120307 75.836679 
L 254.170734 75.722295 
L 254.327497 75.665405 
L 254.36427 75.722295 
L 254.471861 75.779385 
L 254.60521 75.495931 
L 254.997352 75.779385 
L 255.03844 75.722295 
L 255.146202 75.552225 
L 255.085731 75.779385 
L 255.162618 75.608716 
L 255.350276 75.722295 
L 255.369251 75.608716 
L 255.369551 75.552225 
L 255.423339 75.665405 
L 255.440415 75.608716 
L 255.527759 75.779385 
L 255.537441 75.665405 
L 255.646864 75.495931 
L 255.714773 75.608716 
L 255.850822 75.722295 
L 256.019021 75.439834 
L 256.081361 75.552225 
L 256.126693 75.439834 
L 256.315667 75.162234 
L 256.357251 75.217373 
L 256.39438 75.162234 
L 256.464014 75.272701 
L 256.57695 75.107283 
L 256.594184 75.162234 
L 256.691414 75.217373 
L 256.709667 75.052519 
L 256.803388 75.217373 
L 257.137687 74.674288 
L 257.181149 74.727781 
L 257.204555 74.620971 
L 257.340113 74.514865 
L 257.345068 74.567831 
L 257.842373 73.841684 
L 257.889392 74.04584 
L 257.950076 74.148895 
L 257.964402 74.04584 
L 257.998583 73.841684 
L 258.09016 73.994558 
L 258.095982 74.04584 
L 258.149593 73.892481 
L 258.179482 73.892481 
L 258.321423 73.740567 
L 258.405442 73.841684 
L 258.438228 73.690245 
L 258.636039 73.293225 
L 258.749438 73.490513 
L 258.825819 73.440965 
L 258.958846 73.440965 
L 259.072443 73.342321 
L 259.111258 73.391568 
L 259.16857 73.293225 
L 259.212693 73.195479 
L 259.264075 73.293225 
L 259.421456 73.049961 
L 259.474625 73.195479 
L 259.598354 73.293225 
L 259.694371 73.146827 
L 259.765006 73.195479 
L 259.776542 73.098321 
L 259.958371 72.71544 
L 260.00654 72.857957 
L 260.183349 72.953673 
L 260.185798 72.905744 
L 260.884412 72.574171 
L 260.890533 72.621123 
L 261.002277 72.621123 
L 261.126278 72.387716 
L 261.307797 72.157639 
L 261.314103 72.203393 
L 261.347492 72.295291 
L 261.432203 72.203393 
L 261.555349 72.06652 
L 261.485731 72.249277 
L 261.57274 72.112015 
L 261.667224 72.295291 
L 262.005952 72.021152 
L 262.238102 71.79621 
L 262.375356 71.840948 
L 262.376039 71.79621 
L 262.596221 71.574362 
L 262.681308 71.707104 
L 262.689256 71.618488 
L 262.796128 71.442703 
L 262.821275 71.574362 
L 262.879127 71.530356 
L 262.912911 71.618488 
L 262.967818 71.662735 
L 263.016193 71.618488 
L 263.07241 71.48647 
L 263.103704 71.618488 
L 263.231787 71.618488 
L 263.238098 71.662735 
L 263.315247 71.79621 
L 263.96738 71.399054 
L 263.993232 71.442703 
L 264.076883 71.399054 
L 264.134094 71.530356 
L 264.269637 71.574362 
L 264.269987 71.530356 
L 264.451867 71.48647 
L 264.457931 71.530356 
L 264.522431 71.399054 
L 264.522773 71.442703 
L 264.740103 71.31211 
L 264.825975 71.355523 
L 264.804869 71.268813 
L 264.834225 71.31211 
L 264.919972 71.182566 
L 264.947465 71.268813 
L 265.157662 71.31211 
L 265.170257 71.268813 
L 265.356594 71.011444 
L 265.594942 70.426422 
L 265.672086 70.55001 
L 265.835147 70.758117 
L 265.877919 70.632931 
L 265.956235 70.426422 
L 266.146634 70.141681 
L 266.276642 69.941329 
L 266.40631 70.101411 
L 266.411122 70.061242 
L 267.119236 69.16392 
L 266.45583 70.101411 
L 267.169865 69.239996 
L 267.254462 69.278169 
L 267.269102 69.201913 
L 267.280069 69.239996 
L 267.390591 69.354788 
L 267.414868 69.316433 
L 267.540206 69.201913 
L 267.561539 69.239996 
L 267.649124 69.316433 
L 267.668888 69.201913 
L 267.809853 69.012836 
L 267.938581 69.050475 
L 267.940277 69.012836 
L 268.029148 69.126016 
L 268.032736 69.088201 
L 268.418888 68.975285 
L 268.425147 69.012836 
L 268.439613 68.82595 
L 268.496427 68.900444 
L 268.59225 69.012836 
L 268.634802 68.937821 
L 268.934 68.677984 
L 268.940897 68.714848 
L 268.992417 68.567894 
L 269.013451 68.567894 
L 269.131586 68.422267 
L 269.207732 68.567894 
L 269.25967 68.458551 
L 269.364875 68.386065 
L 269.36645 68.422267 
L 269.455153 68.313903 
L 269.498197 68.386065 
L 269.514745 68.458551 
L 269.597189 68.386065 
L 269.771752 68.313903 
L 269.808521 68.386065 
L 269.878429 68.277943 
L 269.915568 68.313903 
L 269.94886 68.242063 
L 270.177233 68.028442 
L 270.195095 68.063849 
L 270.277347 68.028442 
L 270.307605 68.170541 
L 270.839848 67.575081 
L 270.94017 67.472245 
L 270.896864 67.609506 
L 270.949855 67.506451 
L 271.088241 67.302295 
L 271.124597 67.336142 
L 271.201646 67.438111 
L 271.232247 67.37006 
L 271.269094 67.302295 
L 271.324423 67.37006 
L 271.494591 67.438111 
L 271.498541 67.40405 
L 271.504881 67.37006 
L 271.575474 67.506451 
L 271.5924 67.472245 
L 271.719066 67.438111 
L 271.719565 67.472245 
L 271.828223 67.40405 
L 271.943057 67.40405 
L 272.110312 67.336142 
L 272.138054 67.40405 
L 272.247334 67.506451 
L 272.25294 67.472245 
L 272.424194 67.37006 
L 272.504252 67.438111 
L 272.511811 67.40405 
L 272.590246 67.302295 
L 272.619647 67.40405 
L 272.71382 67.472245 
L 272.739655 67.40405 
L 272.893603 67.575081 
L 272.915242 67.472245 
L 273.199285 67.234813 
L 273.213718 67.302295 
L 273.42361 67.37006 
L 273.510427 67.336142 
L 273.52794 67.40405 
L 273.596846 67.438111 
L 273.6174 67.37006 
L 273.619893 67.40405 
L 273.819104 67.336142 
L 273.942783 67.40405 
L 273.948031 67.37006 
L 274.112584 67.336142 
L 274.249624 67.438111 
L 274.250986 67.40405 
L 274.306426 67.302295 
L 274.34503 67.336142 
L 274.377185 67.40405 
L 274.408395 67.268519 
L 274.522057 67.034045 
L 274.567528 67.100691 
L 274.870694 66.934591 
L 275.039572 67.067334 
L 274.895694 66.901576 
L 275.04111 67.034045 
L 275.179641 66.802932 
L 275.237757 66.901576 
L 275.294612 66.835746 
L 275.479654 66.770185 
L 275.550847 66.802932 
L 275.590066 66.737504 
L 275.779498 66.478412 
L 275.912309 66.510572 
L 275.943962 66.446316 
L 276.047428 66.286789 
L 276.049986 66.35041 
L 276.323987 66.802932 
L 276.337403 66.770185 
L 276.567749 66.575084 
L 276.569737 66.542796 
L 276.651606 66.67234 
L 276.794846 66.67234 
L 276.922897 66.639856 
L 276.954665 66.704889 
L 277.018848 66.607438 
L 277.132255 66.510572 
L 277.057182 66.67234 
L 277.133556 66.542796 
L 277.145 66.607438 
L 277.208848 66.510572 
L 277.308325 66.478412 
L 277.310677 66.446316 
L 277.415987 66.191824 
L 277.582441 66.223417 
L 277.596263 66.191824 
L 277.698066 65.97239 
L 278.020484 66.128823 
L 278.024691 66.097415 
L 278.09163 66.286789 
L 278.400001 66.034782 
L 278.502202 66.097415 
L 278.531425 66.034782 
L 278.572421 66.066068 
L 278.67857 65.941285 
L 278.679683 65.97239 
L 278.754231 65.879254 
L 278.845704 65.879254 
L 278.849946 65.941285 
L 278.906159 66.034782 
L 278.936373 65.910239 
L 279.216634 65.879254 
L 279.231755 65.910239 
L 279.243417 65.848327 
L 279.394926 65.879254 
L 279.3986 65.910239 
L 279.496284 66.003556 
L 279.518424 65.97239 
L 279.660164 66.066068 
L 279.662364 66.034782 
L 279.672211 65.97239 
L 279.704251 66.097415 
L 279.763281 66.066068 
L 280.206809 65.755902 
L 280.214954 65.786652 
L 280.396582 65.910239 
L 280.400642 65.879254 
L 280.545515 65.786652 
L 280.741508 65.81746 
L 281.659824 65.451589 
L 281.669314 65.481763 
L 281.703714 65.542282 
L 281.756296 65.421471 
L 281.909126 65.331454 
L 281.989869 65.451589 
L 282.385877 65.331454 
L 282.393444 65.361404 
L 282.461983 65.212206 
L 282.481648 65.152912 
L 282.518065 65.27172 
L 282.637232 65.27172 
L 282.683562 65.212206 
L 282.715 65.301559 
L 282.78451 65.391409 
L 282.828494 65.27172 
L 283.560669 64.514665 
L 283.619408 64.543135 
L 283.63343 64.486246 
L 283.775956 64.486246 
L 283.829866 64.571655 
L 283.865748 64.429556 
L 283.88448 64.486246 
L 283.915876 64.401286 
L 283.981483 64.429556 
L 284.177127 64.401286 
L 284.236667 64.429556 
L 284.270132 64.344894 
L 284.283721 64.401286 
L 284.522768 64.121277 
L 284.922869 63.79156 
L 285.014615 63.81878 
L 285.023185 63.764385 
L 285.324454 63.629195 
L 285.324756 63.656142 
L 285.437594 63.846047 
L 285.474959 63.764385 
L 285.785478 63.41522 
L 285.92257 63.441812 
L 285.924208 63.41522 
L 286.019052 63.362167 
L 286.043806 63.441812 
L 286.077919 63.468448 
L 286.142488 63.41522 
L 286.229273 63.362167 
L 286.16047 63.441812 
L 286.265504 63.388672 
L 286.275921 63.41522 
L 286.329761 63.335706 
L 286.342856 63.362167 
L 286.444536 63.309288 
L 286.465263 63.388672 
L 286.473478 63.41522 
L 286.500903 63.335706 
L 286.557891 63.335706 
L 286.692338 63.362167 
L 286.693251 63.335706 
L 286.992643 62.789819 
L 287.017428 62.815399 
L 287.067208 62.713322 
L 287.181398 62.586627 
L 287.59715 62.311354 
L 287.706937 62.114066 
L 287.711261 62.163162 
L 287.838465 62.261805 
L 287.852351 62.237088 
L 288.033452 62.065118 
L 288.126869 62.163162 
L 288.149077 62.114066 
L 288.30158 61.894963 
L 288.345654 61.919162 
L 288.438251 62.065118 
L 288.468832 62.016319 
L 288.718356 61.702674 
L 288.732071 61.750531 
L 288.803691 61.774514 
L 288.810034 61.702674 
L 288.817667 61.726585 
L 288.969454 61.846676 
L 289.01409 61.750531 
L 289.122977 61.395011 
L 289.222363 61.465491 
L 289.136008 61.371586 
L 289.23279 61.41847 
L 289.593543 61.162278 
L 289.619926 61.208557 
L 289.847981 61.324838 
L 289.861218 61.278225 
L 290.093146 61.231746 
L 290.101386 61.278225 
L 290.178222 61.139189 
L 290.881884 60.77418 
L 290.975547 60.841993 
L 291.001563 60.819357 
L 291.093921 60.706651 
L 291.130228 60.796753 
L 291.250171 60.841993 
L 291.254578 60.819357 
L 291.474278 60.684204 
L 291.478753 60.706651 
L 291.756424 60.796753 
L 291.887171 60.796753 
L 291.931841 60.819357 
L 291.990681 60.751639 
L 292.122075 60.61705 
L 292.146477 60.684204 
L 292.160031 60.706651 
L 292.203066 60.594728 
L 292.216999 60.61705 
L 292.647902 60.439328 
L 292.654508 60.461437 
L 292.666316 60.483576 
L 292.686461 60.41725 
L 292.739087 60.41725 
L 292.844435 60.373184 
L 292.866341 60.41725 
L 292.87249 60.439328 
L 292.930431 60.285412 
L 293.07251 60.285412 
L 293.222141 60.219895 
L 293.371571 60.373184 
L 293.395951 60.241704 
L 293.491134 60.154643 
L 293.503691 60.176364 
L 293.639235 59.939023 
L 293.723672 60.003407 
L 293.802574 60.024925 
L 293.839242 59.981917 
L 293.933376 60.003407 
L 293.953033 59.939023 
L 294.123837 59.832284 
L 294.159536 59.874895 
L 294.220232 59.789786 
L 294.363461 59.453772 
L 294.48397 59.558026 
L 294.496367 59.599917 
L 294.570115 59.453772 
L 294.739518 59.329549 
L 294.742526 59.350187 
L 294.811418 59.165394 
L 294.987597 59.063639 
L 295.003414 59.083939 
L 295.07141 59.124615 
L 295.027823 59.063639 
L 295.112616 59.083939 
L 295.244988 58.962522 
L 295.345023 58.922252 
L 295.50431 58.583957 
L 295.773837 58.466233 
L 295.947391 58.466233 
L 296.165809 58.233332 
L 296.172132 58.252612 
L 296.370499 58.137274 
L 296.393569 58.175628 
L 296.402952 58.19484 
L 296.460397 58.079912 
L 296.479151 58.09901 
L 296.612759 57.984761 
L 296.622493 58.022754 
L 296.695885 57.852485 
L 296.749403 57.777383 
L 296.810264 57.833677 
L 296.911952 57.833677 
L 296.874374 57.796126 
L 296.914269 57.81489 
L 297.030726 57.721285 
L 297.034607 57.739963 
L 297.203829 57.758662 
L 297.355449 57.665382 
L 297.373358 57.702629 
L 297.382655 57.721285 
L 297.436283 57.591144 
L 297.457466 57.62822 
L 297.486079 57.665382 
L 297.536085 57.609671 
L 297.892239 57.554153 
L 297.899451 57.591144 
L 297.953337 57.498825 
L 298.00278 57.535689 
L 298.00593 57.517246 
L 298.047628 57.591144 
L 298.113485 57.535689 
L 298.119485 57.554153 
L 298.179175 57.462045 
L 298.201575 57.462045 
L 298.309018 57.425348 
L 298.349495 57.462045 
L 298.370558 57.33397 
L 298.56452 57.297564 
L 298.755647 57.297564 
L 298.757685 57.279391 
L 298.895338 57.243107 
L 299.183871 57.152754 
L 299.183894 57.170784 
L 299.237861 57.206905 
L 299.259189 57.134743 
L 299.286859 57.152754 
L 299.45568 56.97355 
L 299.458773 57.009232 
L 299.702682 57.044993 
L 299.704 57.027103 
L 299.747998 56.920176 
L 299.831353 56.991381 
L 299.869647 56.955739 
L 299.903415 57.062903 
L 299.905746 57.080833 
L 299.965096 57.009232 
L 300.011107 57.062903 
L 300.020892 57.080833 
L 300.072125 56.955739 
L 300.16768 56.813953 
L 300.182845 56.831608 
L 300.635074 56.621009 
L 300.776089 56.673402 
L 300.792926 56.638455 
L 300.873016 56.551416 
L 300.907009 56.586175 
L 300.99414 56.586175 
L 301.007791 56.534065 
L 301.097756 56.413125 
L 301.1726 56.499418 
L 301.174425 56.516732 
L 301.256702 56.413125 
L 301.266646 56.413125 
L 301.312834 56.447587 
L 301.505576 56.22489 
L 301.526483 56.27601 
L 301.60705 56.173933 
L 301.61386 56.190901 
L 301.678362 56.055654 
L 301.685469 56.072498 
L 301.799559 56.089359 
L 301.71472 56.038827 
L 301.803259 56.072498 
L 301.984872 56.072498 
L 302.226655 55.738916 
L 302.462537 55.574677 
L 302.46897 55.591025 
L 302.61676 55.558344 
L 302.620768 55.525729 
L 302.693873 55.49318 
L 302.627204 55.542029 
L 302.729331 55.542029 
L 303.026835 55.656587 
L 303.467525 55.509447 
L 303.591692 55.574677 
L 303.607838 55.542029 
L 303.630468 55.558344 
L 303.740691 55.412093 
L 303.852816 55.509447 
L 303.877415 55.49318 
L 303.941192 55.49318 
L 303.967617 55.542029 
L 303.974169 55.525729 
L 304.080774 55.607391 
L 304.105732 55.558344 
L 304.112702 55.525729 
L 304.183502 55.591025 
L 304.197899 55.591025 
L 304.337233 55.673019 
L 304.347392 55.574677 
L 304.484292 55.49318 
L 304.486801 55.509447 
L 305.012006 55.155322 
L 305.020405 55.171251 
L 305.060928 55.203156 
L 305.095108 55.139409 
L 305.11779 55.139409 
L 305.140092 55.155322 
L 305.250583 55.091763 
L 305.830282 54.981133 
L 305.832 54.996891 
L 305.840093 55.012664 
L 305.893398 54.886909 
L 305.917464 54.933952 
L 306.374664 54.59211 
L 306.476766 54.56139 
L 306.477802 54.546052 
L 306.578005 54.469579 
L 306.493765 54.56139 
L 306.591834 54.530728 
L 306.953282 54.167262 
L 306.954378 54.182244 
L 307.777727 53.870508 
L 307.802072 53.885217 
L 307.87384 53.782537 
L 307.878249 53.797165 
L 307.964055 53.767921 
L 307.97958 53.782537 
L 308.054264 53.797165 
L 308.076294 53.709592 
L 308.07729 53.680506 
L 308.129972 53.73873 
L 308.184047 53.709592 
L 308.218655 53.753319 
L 308.283953 53.680506 
L 308.608644 53.507083 
L 308.748138 53.535858 
L 308.76226 53.507083 
L 308.915015 53.307087 
L 308.916861 53.32129 
L 308.991326 53.222127 
L 309.001272 53.236256 
L 309.18214 53.193906 
L 309.191938 53.20801 
L 310.171858 52.598807 
L 310.174354 52.626005 
L 310.200044 52.639621 
L 310.220667 52.558097 
L 310.270383 52.571656 
L 310.431809 52.503976 
L 310.441834 52.517489 
L 310.471687 52.531014 
L 310.499696 52.450035 
L 310.519212 52.450035 
L 310.64591 52.356072 
L 310.816448 52.289289 
L 310.826796 52.302623 
L 310.869897 52.329325 
L 310.923881 52.249351 
L 311.187007 52.130128 
L 311.231143 52.169771 
L 311.269387 52.090583 
L 311.29463 52.116936 
L 311.446359 52.038005 
L 311.449206 52.051133 
L 311.524264 51.998684 
L 311.572513 52.051133 
L 311.741311 51.920329 
L 311.742915 51.933362 
L 311.923164 51.868303 
L 311.968183 51.881293 
L 312.017444 51.829393 
L 312.12731 51.842352 
L 312.05353 51.881293 
L 312.133943 51.868303 
L 312.199408 51.881293 
L 312.228001 51.816444 
L 312.264163 51.803505 
L 312.288339 51.868303 
L 312.331348 51.855322 
L 312.556569 51.72609 
L 312.722949 51.764751 
L 312.725874 51.751854 
L 312.754416 51.700367 
L 312.776957 51.764751 
L 312.83461 51.72609 
L 312.905021 51.66186 
L 312.942897 51.713223 
L 313.017814 51.66186 
L 313.05117 51.713223 
L 313.077507 51.738967 
L 313.13975 51.623444 
L 313.149223 51.636239 
L 313.214528 51.546887 
L 313.246139 51.572365 
L 313.353433 51.483365 
L 314.053939 51.119793 
L 314.156696 51.070282 
L 314.164434 51.095019 
L 314.270276 51.070282 
L 315.024072 50.631395 
L 315.13529 50.655467 
L 315.034566 50.619372 
L 315.145199 50.631395 
L 315.85771 50.357121 
L 315.857729 50.368949 
L 315.968586 50.357121 
L 315.900643 50.309894 
L 315.970549 50.33349 
L 316.037894 50.204135 
L 316.085275 50.239311 
L 316.230972 50.345301 
L 316.331558 50.180727 
L 316.361845 50.251053 
L 317.183531 49.822181 
L 317.271763 49.810747 
L 317.274416 49.799321 
L 317.991202 49.54997 
L 317.991517 49.561221 
L 318.15565 49.538727 
L 318.303182 49.493833 
L 318.303471 49.505045 
L 318.45761 49.348785 
L 318.560422 49.271219 
L 318.563153 49.282277 
L 318.756106 49.238091 
L 318.91823 49.128151 
L 318.939403 49.172037 
L 319.02562 49.008076 
L 319.2604 48.867313 
L 319.263923 48.878098 
L 319.293328 48.888889 
L 319.273347 48.856536 
L 319.361316 48.845766 
L 319.510674 48.888889 
L 319.522366 48.856536 
L 319.913017 48.663767 
L 319.91483 48.674416 
L 320.038753 48.717083 
L 320.047084 48.685073 
L 320.231376 48.56824 
L 320.319979 48.515413 
L 320.452599 48.49433 
L 320.607243 48.473275 
L 320.69607 48.441744 
L 320.624103 48.483799 
L 320.725343 48.483799 
L 321.027273 48.368411 
L 321.126971 48.368411 
L 321.148486 48.337084 
L 321.320394 48.253842 
L 321.327967 48.274612 
L 321.379673 48.274612 
L 321.411323 48.222737 
L 321.420305 48.233098 
L 321.91208 48.037354 
L 322.020625 48.057847 
L 322.037502 48.047597 
L 322.256089 47.874339 
L 322.262446 47.88448 
L 322.312371 47.803535 
L 322.337872 47.803535 
L 322.517164 47.622882 
L 322.610238 47.602934 
L 322.524768 47.612905 
L 322.614316 47.583011 
L 322.717885 47.513471 
L 322.735176 47.523387 
L 322.813592 47.523387 
L 322.842676 47.463983 
L 322.944968 47.424502 
L 322.873258 47.473869 
L 322.952303 47.434363 
L 322.962353 47.385117 
L 322.998518 47.463983 
L 323.061783 47.454104 
L 323.439882 47.170203 
L 323.51958 47.102417 
L 323.556489 47.141117 
L 323.564324 47.160501 
L 323.657005 47.06381 
L 323.989479 46.938971 
L 323.99585 46.958114 
L 324.020487 46.986872 
L 324.101296 46.891212 
L 324.221426 46.872148 
L 324.482645 46.834088 
L 324.483695 46.843595 
L 324.486655 46.853107 
L 324.56351 46.739328 
L 324.739482 46.682738 
L 324.853399 46.729882 
L 324.86909 46.701579 
L 324.973501 46.645121 
L 324.984399 46.682738 
L 325.271994 46.551462 
L 325.279651 46.560803 
L 325.464146 46.560803 
L 325.579884 46.476924 
L 325.58674 46.495526 
L 325.756032 46.467631 
L 325.75766 46.449061 
L 325.892002 46.411985 
L 326.058788 46.439784 
L 326.078847 46.402729 
L 326.277078 46.319665 
L 326.281559 46.328874 
L 326.414186 46.273703 
L 326.461557 46.218721 
L 326.53007 46.237028 
L 326.7155 46.036789 
L 326.718908 46.045837 
L 326.844076 46.063948 
L 326.861592 46.036789 
L 326.963824 45.982607 
L 326.868669 46.05489 
L 326.978682 45.991625 
L 327.03016 45.901674 
L 327.094981 45.955584 
L 327.249697 45.946587 
L 327.501624 45.803304 
L 327.506933 45.812222 
L 327.574802 45.732137 
L 327.800533 45.687817 
L 327.800657 45.696672 
L 327.861358 45.634793 
L 327.903178 45.634793 
L 328.041555 45.599541 
L 328.056853 45.555583 
L 328.15364 45.590739 
L 328.383619 45.520502 
L 328.387619 45.529265 
L 328.43132 45.485498 
L 328.497705 45.511744 
L 328.629229 45.494242 
L 329.331789 45.148132 
L 329.336051 45.156695 
L 329.416912 45.182411 
L 329.449901 45.165262 
L 329.560338 45.165262 
L 329.567454 45.173834 
L 329.785736 45.088319 
L 329.809215 45.13102 
L 330.045262 45.122471 
L 330.237534 45.122471 
L 330.238143 45.113926 
L 330.249981 45.122471 
L 330.365598 45.07127 
L 330.571519 44.952431 
L 331.939984 44.176415 
L 332.04464 44.104037 
L 332.326911 44.016015 
L 332.337522 44.023997 
L 332.373709 43.960249 
L 332.41748 43.952299 
L 332.710074 43.857194 
L 332.711623 43.865098 
L 332.732704 43.904676 
L 332.811645 43.833505 
L 332.812886 43.841397 
L 333.040947 43.692098 
L 333.062992 43.71558 
L 333.316305 43.645237 
L 333.330276 43.629647 
L 333.434731 43.645237 
L 333.717762 43.551921 
L 333.765273 43.567436 
L 333.817781 43.490008 
L 333.820949 43.497735 
L 333.832168 43.520935 
L 333.902526 43.42064 
L 333.909186 43.43603 
L 334.026592 43.389905 
L 334.027339 43.397583 
L 335.395448 42.816803 
L 335.4683 42.787196 
L 335.489889 42.765027 
L 335.626652 42.654636 
L 335.643743 42.676654 
L 335.64479 42.684 
L 335.729408 42.61069 
L 336.361027 42.457816 
L 336.362319 42.465063 
L 336.504752 42.457816 
L 336.508912 42.450572 
L 336.605334 42.407178 
L 336.518068 42.465063 
L 336.614286 42.414402 
L 336.836776 42.399957 
L 336.951559 42.407178 
L 336.96153 42.385525 
L 337.274031 42.241907 
L 337.277006 42.270529 
L 337.366391 42.249058 
L 337.381159 42.227616 
L 337.510127 42.099558 
L 337.51152 42.106645 
L 337.519613 42.12083 
L 337.556377 42.042968 
L 337.600259 42.042968 
L 337.709552 41.94441 
L 337.720904 41.958453 
L 338.092786 41.81161 
L 338.094696 41.818573 
L 338.109149 41.832506 
L 338.154462 41.742152 
L 338.165491 41.735223 
L 338.368957 41.624756 
L 338.181205 41.762958 
L 338.374383 41.631638 
L 338.472407 41.638523 
L 338.414311 41.59039 
L 338.479504 41.631638 
L 338.653874 41.672992 
L 338.698159 41.679895 
L 338.743563 41.645411 
L 338.762459 41.672992 
L 338.970678 41.583525 
L 338.978454 41.597257 
L 339.002987 41.576664 
L 339.094354 41.617877 
L 339.186086 41.556097 
L 339.215888 41.597257 
L 339.357521 41.583525 
L 339.467232 41.487728 
L 339.473667 41.501379 
L 339.719913 41.33833 
L 339.720354 41.34509 
L 340.638599 41.036986 
L 340.640984 41.043622 
L 340.735167 41.056901 
L 340.648011 41.030353 
L 340.750673 41.030353 
L 340.903285 40.964173 
L 341.085364 40.950969 
L 341.085529 40.957569 
L 341.205533 40.964173 
L 341.102462 40.944371 
L 341.211649 40.950969 
L 341.307859 40.937776 
L 341.223362 40.970778 
L 341.320205 40.950969 
L 341.459132 40.957569 
L 341.551932 40.852286 
L 341.588666 40.865409 
L 341.601906 40.871974 
L 341.68295 40.812981 
L 341.683603 40.819525 
L 342.099489 40.553367 
L 342.099979 40.559807 
L 342.192716 40.559807 
L 342.13237 40.540496 
L 342.201574 40.521208 
L 342.315088 40.489112 
L 342.221402 40.540496 
L 342.320275 40.495526 
L 342.592599 40.323236 
L 342.626733 40.329584 
L 342.604 40.304206 
L 342.688197 40.278867 
L 342.800591 40.228308 
L 343.033574 40.190493 
L 343.03609 40.203089 
L 343.12255 40.20939 
L 343.148981 40.159048 
L 343.561848 40.002737 
L 343.562957 40.00896 
L 343.68219 39.996516 
L 343.595462 39.984081 
L 343.682779 39.990297 
L 343.742083 39.984081 
L 343.786737 40.00896 
L 343.903623 39.971655 
L 344.201924 39.804843 
L 344.227807 39.817141 
L 344.300392 39.755747 
L 344.307361 39.761876 
L 344.379927 39.731255 
L 344.395221 39.700692 
L 344.558683 39.609348 
L 344.568407 39.627576 
L 344.854853 39.566898 
L 344.861579 39.597208 
L 344.949791 39.621498 
L 344.889106 39.579015 
L 344.970356 39.591142 
L 344.978327 39.597208 
L 345.117995 39.542691 
L 345.238327 39.542691 
L 345.241825 39.536645 
L 345.2476 39.542691 
L 345.353369 39.488357 
L 345.616922 39.4282 
L 345.674827 39.4282 
L 345.716939 39.380235 
L 345.91566 39.284731 
L 345.916712 39.290684 
L 345.957164 39.302595 
L 346.023282 39.249063 
L 346.071161 39.255002 
L 346.034479 39.237191 
L 346.112297 39.18979 
L 346.22388 39.130734 
L 346.226549 39.118949 
L 346.344739 39.130734 
L 346.526827 39.089523 
L 346.587095 39.083645 
L 346.6063 39.048418 
L 346.629691 39.054284 
L 346.740945 39.024976 
L 346.643575 39.077768 
L 346.749236 39.030833 
L 346.915889 39.101287 
L 346.920419 39.095404 
L 347.168916 38.93737 
L 347.175339 38.949023 
L 347.280381 38.890841 
L 347.533603 38.838656 
L 347.748621 38.861829 
L 347.815736 38.832868 
L 347.862198 38.850238 
L 349.487396 38.325886 
L 349.520195 38.325886 
L 349.560431 38.275494 
L 349.583865 38.286679 
L 349.769994 38.269905 
L 349.910034 38.164073 
L 350.007726 38.158522 
L 349.94005 38.147426 
L 350.017038 38.136338 
L 350.105733 38.10865 
L 350.030126 38.141881 
L 350.131195 38.119719 
L 350.319988 38.09206 
L 350.321046 38.086534 
L 350.479968 38.058931 
L 350.816454 38.053417 
L 351.084362 38.009366 
L 351.210158 37.932565 
L 351.213398 37.938039 
L 351.383227 37.888842 
L 351.48992 37.888842 
L 351.503232 37.916155 
L 351.589903 37.921623 
L 351.613468 37.899762 
L 351.80688 37.801752 
L 351.820601 37.82348 
L 351.919588 37.850682 
L 351.934654 37.845238 
L 352.009565 37.818045 
L 352.039817 37.82348 
L 352.992424 37.634339 
L 352.992944 37.639713 
L 353.144179 37.666606 
L 353.153627 37.650465 
L 354.812183 37.225877 
L 354.853263 37.231116 
L 354.894208 37.17358 
L 354.904905 37.17358 
L 355.501929 36.935178 
L 355.607845 36.909476 
L 355.508792 36.930035 
L 355.61024 36.899207 
L 355.669707 36.935178 
L 355.725688 36.894075 
L 355.879358 36.847958 
L 355.879463 36.842842 
L 355.935262 36.868438 
L 355.984477 36.837727 
L 356.45372 36.685046 
L 356.455561 36.70532 
L 356.455896 36.710393 
L 356.495425 36.664797 
L 356.564632 36.679981 
L 356.595127 36.664797 
L 356.606806 36.690112 
L 356.675144 36.674918 
L 356.684211 36.685046 
L 356.825206 36.584056 
L 356.938874 36.579023 
L 356.943431 36.568961 
L 357.051344 36.58909 
L 357.07951 36.548858 
L 357.079572 36.543836 
L 357.148424 36.584056 
L 357.189779 36.558906 
L 357.300022 36.538815 
L 357.306067 36.528779 
L 358.233601 36.156861 
L 358.363353 36.156861 
L 358.479135 36.068863 
L 358.620707 36.034771 
L 358.785046 36.010463 
L 358.969006 35.942596 
L 358.975112 35.947434 
L 359.046739 35.942596 
L 359.00945 35.918427 
L 359.082935 35.918427 
L 359.338703 35.855756 
L 359.342191 35.860568 
L 359.35377 35.870197 
L 359.43298 35.836521 
L 359.453046 35.855756 
L 359.681332 35.716823 
L 359.690643 35.726366 
L 359.781052 35.678706 
L 359.787647 35.664435 
L 360.093826 35.536565 
L 360.095315 35.541283 
L 360.194596 35.550723 
L 360.219128 35.517707 
L 360.383492 35.489462 
L 360.385284 35.494166 
L 360.457561 35.503579 
L 360.412692 35.480058 
L 360.48787 35.451878 
L 360.622725 35.34431 
L 360.634838 35.348972 
L 361.255912 35.168146 
L 361.256139 35.172758 
L 361.358966 35.108319 
L 361.363527 35.108319 
L 361.386449 35.089955 
L 361.478575 35.094544 
L 362.033617 34.989325 
L 362.034578 34.993886 
L 362.046873 35.007575 
L 362.140961 34.943791 
L 362.254465 34.911994 
L 362.150327 34.952888 
L 362.259048 34.921072 
L 362.654997 34.744955 
L 362.658219 34.749447 
L 362.659683 34.75394 
L 362.731819 34.700105 
L 362.755851 34.695627 
L 362.928741 34.668784 
L 362.929488 34.664314 
L 362.95225 34.641986 
L 363.037682 34.668784 
L 363.346264 34.521941 
L 363.457698 34.460046 
L 363.702457 34.407181 
L 363.843713 34.385205 
L 363.847785 34.372034 
L 363.883176 34.407181 
L 363.987875 34.332585 
L 364.131838 34.2845 
L 364.380239 34.214813 
L 364.392213 34.236558 
L 364.488854 34.193098 
L 364.411099 34.210468 
L 364.493112 34.18442 
L 364.517054 34.20178 
L 364.626841 34.162745 
L 364.729751 34.162745 
L 364.744247 34.141099 
L 365.681956 33.998963 
L 365.850518 33.947585 
L 365.850782 33.943311 
L 365.944643 33.968973 
L 365.957686 33.964693 
L 366.157571 33.917691 
L 367.008486 33.625943 
L 367.009514 33.630134 
L 367.100364 33.634326 
L 367.035268 33.621754 
L 367.120907 33.617565 
L 367.187812 33.571563 
L 367.240853 33.588276 
L 367.387456 33.579917 
L 367.38885 33.575739 
L 367.546382 33.513203 
L 367.841116 33.463348 
L 367.844289 33.471646 
L 367.9736 33.496567 
L 368.234129 33.409511 
L 368.364815 33.388853 
L 368.367335 33.380597 
L 368.459714 33.273651 
L 368.480962 33.285955 
L 368.684114 33.20819 
L 368.923777 33.20819 
L 368.925497 33.200026 
L 369.151333 33.122672 
L 369.275507 33.106435 
L 369.555708 33.033567 
L 369.556182 33.037606 
L 369.663131 32.981144 
L 369.664094 32.977118 
L 369.766967 32.965048 
L 369.69951 33.001286 
L 369.779037 32.973094 
L 369.9463 32.916856 
L 369.946786 32.912847 
L 370.16361 32.840846 
L 370.270421 32.824889 
L 370.1768 32.828877 
L 370.282952 32.812932 
L 370.394227 32.765192 
L 370.400268 32.777114 
L 370.47448 32.797003 
L 370.503098 32.765192 
L 370.50945 32.773139 
L 370.639619 32.757249 
L 372.973563 32.08458 
L 372.974661 32.088389 
L 372.99701 32.11126 
L 373.082005 32.076965 
L 373.306539 32.06555 
L 374.791832 31.835171 
L 374.791913 31.838921 
L 374.90341 31.827673 
L 374.795757 31.835171 
L 374.909268 31.823926 
L 375.117166 31.775285 
L 375.299494 31.782758 
L 375.299891 31.779021 
L 375.600863 31.719343 
L 375.71351 31.708177 
L 375.8303 31.674728 
L 375.729738 31.719343 
L 375.830808 31.678441 
L 375.933409 31.652467 
L 375.946965 31.637644 
L 376.451579 31.637644 
L 376.503597 31.630237 
L 376.533614 31.64876 
L 376.560258 31.637644 
L 376.675381 31.619133 
L 376.676708 31.615434 
L 376.980415 31.52322 
L 377.105711 31.508515 
L 377.108754 31.50484 
L 377.357612 31.380411 
L 377.357823 31.384057 
L 377.523117 31.343996 
L 377.575507 31.329454 
L 377.526455 31.347634 
L 377.631384 31.354912 
L 377.858843 31.347634 
L 377.999532 31.322187 
L 378.001142 31.333088 
L 378.146785 31.347634 
L 378.147456 31.343996 
L 378.377327 31.293153 
L 378.380314 31.300407 
L 378.503575 31.285903 
L 378.391284 31.289528 
L 378.505045 31.278656 
L 378.65188 31.24247 
L 378.652088 31.246085 
L 378.812052 31.220797 
L 378.973403 31.195549 
L 379.121366 31.17394 
L 379.123431 31.170341 
L 379.305372 31.073475 
L 379.310362 31.08063 
L 379.457673 31.052028 
L 379.704199 30.927486 
L 379.70434 30.931031 
L 380.770591 30.69522 
L 380.771151 30.698714 
L 380.822965 30.705705 
L 380.803838 30.684742 
L 380.881595 30.688234 
L 381.040589 30.611582 
L 381.246261 30.559528 
L 381.787202 30.346135 
L 381.788361 30.349555 
L 381.991291 30.315392 
L 381.992665 30.308569 
L 382.001846 30.318805 
L 382.170218 30.216728 
L 382.295286 30.176078 
L 382.297191 30.172695 
L 382.814679 30.044666 
L 382.817131 30.054737 
L 383.000908 30.007795 
L 383.00106 30.004447 
L 383.286611 29.997753 
L 383.421205 30.004447 
L 383.719483 29.954313 
L 383.841361 29.991062 
L 383.846992 29.981031 
L 383.983005 29.964327 
L 383.987544 29.95765 
L 384.294253 29.85451 
L 384.294631 29.857826 
L 384.415571 29.834623 
L 384.416706 29.831311 
L 384.752156 29.699383 
L 384.75687 29.705954 
L 385.072768 29.705954 
L 385.075758 29.692815 
L 385.183541 29.669847 
L 385.498061 29.679686 
L 385.719314 29.591349 
L 385.719793 29.594612 
L 385.953291 29.640365 
L 385.954911 29.637093 
L 385.964182 29.643638 
L 386.086733 29.62401 
L 386.187846 29.640365 
L 386.13353 29.604405 
L 386.197338 29.637093 
L 386.321607 29.610938 
L 386.322359 29.614205 
L 386.826919 29.487275 
L 387.142418 29.44842 
L 387.273505 29.412885 
L 387.273664 29.416112 
L 387.613973 29.313159 
L 387.615903 29.322783 
L 387.707943 29.293929 
L 387.633928 29.300336 
L 387.722084 29.281121 
L 387.884563 29.277921 
L 388.24921 29.175843 
L 388.250668 29.179024 
L 388.373828 29.166307 
L 388.539272 29.087053 
L 389.253501 28.957914 
L 389.344398 28.948505 
L 389.289177 28.935969 
L 389.35901 28.939102 
L 390.281004 28.764574 
L 390.289674 28.770775 
L 390.369558 28.733606 
L 390.387233 28.7367 
L 390.569628 28.693436 
L 390.670784 28.68418 
L 390.676822 28.687265 
L 390.850262 28.619539 
L 391.047471 28.570461 
L 391.163192 28.570461 
L 391.405311 28.576588 
L 391.45336 28.576588 
L 391.423194 28.567399 
L 391.505086 28.539863 
L 391.818519 28.436263 
L 391.820002 28.442338 
L 391.909943 28.469708 
L 391.83307 28.436263 
L 391.933061 28.448416 
L 392.405001 28.351441 
L 392.562993 28.303172 
L 392.563735 28.297148 
L 392.668407 28.255046 
L 392.676125 28.261054 
L 393.015478 28.22504 
L 393.291109 28.204069 
L 393.292154 28.207063 
L 393.469658 28.204069 
L 393.560163 28.177147 
L 393.582436 28.183125 
L 393.734269 28.138338 
L 393.968481 28.066935 
L 394.057129 28.081784 
L 394.07872 28.055065 
L 394.319453 28.016548 
L 394.525596 27.960419 
L 394.535729 27.975171 
L 394.544335 27.978123 
L 394.616605 27.954522 
L 394.64242 27.960419 
L 394.841955 27.995846 
L 394.971533 27.951575 
L 394.972288 27.948628 
L 394.975827 27.951575 
L 395.120711 27.910364 
L 395.306071 27.907424 
L 395.312457 27.889798 
L 395.440368 27.816562 
L 395.44771 27.822408 
L 395.57998 27.804875 
L 395.724645 27.76695 
L 395.725712 27.772779 
L 396.244887 27.743656 
L 396.36827 27.702973 
L 396.504918 27.656602 
L 397.294742 27.478167 
L 397.295707 27.481029 
L 397.416379 27.466722 
L 397.419673 27.461003 
L 397.612015 27.432437 
L 397.618211 27.441002 
L 398.66426 27.253629 
L 399.024752 27.250806 
L 399.258215 27.205716 
L 399.456135 27.17479 
L 399.57152 27.157946 
L 400.321389 27.032174 
L 400.416682 27.012697 
L 400.425456 27.007136 
L 400.924309 26.918429 
L 400.968507 26.932257 
L 401.020664 26.90185 
L 401.034138 26.907374 
L 401.151163 26.860478 
L 401.153836 26.863233 
L 401.305177 26.846711 
L 401.305415 26.843959 
L 401.730628 26.789018 
L 401.92649 26.753406 
L 402.280087 26.728797 
L 402.280648 26.73153 
L 402.490634 26.698771 
L 402.491528 26.693318 
L 402.661509 26.704226 
L 402.66166 26.706954 
L 402.859262 26.660637 
L 403.237113 26.576516 
L 404.577418 26.361435 
L 404.584408 26.353425 
L 404.730134 26.364106 
L 405.104699 26.332084 
L 405.40019 26.286829 
L 405.400505 26.284171 
L 408.716914 25.774035 
L 408.892392 25.766311 
L 409.044342 25.738023 
L 409.421508 25.69184 
L 409.433342 25.702092 
L 409.513863 25.663682 
L 409.522937 25.66624 
L 411.122891 25.359656 
L 411.225872 25.357146 
L 411.199696 25.342097 
L 411.230767 25.354637 
L 411.736222 25.262069 
L 411.856174 25.224692 
L 412.151404 25.165068 
L 412.155958 25.172509 
L 412.251536 25.150197 
L 412.26199 25.155153 
L 412.363473 25.142766 
L 412.375546 25.13039 
L 412.56741 25.125442 
L 412.733698 25.103194 
L 412.859238 25.083444 
L 412.861084 25.085912 
L 412.959622 25.041556 
L 412.960664 25.036636 
L 419.974905 23.908501 
L 420.254748 23.892452 
L 420.409544 23.855829 
L 420.637053 23.812446 
L 420.638519 23.817007 
L 420.853851 23.794214 
L 421.250565 23.712426 
L 421.507865 23.682993 
L 421.941555 23.642329 
L 422.27232 23.608519 
L 423.930007 23.447214 
L 423.984691 23.460595 
L 424.041194 23.447214 
L 424.376915 23.416036 
L 424.377831 23.411587 
L 424.534356 23.398247 
L 424.654149 23.396025 
L 424.655137 23.393803 
L 425.219282 23.340567 
L 425.759716 23.318437 
L 426.024096 23.289714 
L 426.025678 23.29413 
L 426.300099 23.263246 
L 426.411754 23.276474 
L 426.414286 23.27868 
L 426.605531 23.26545 
L 426.606174 23.263246 
L 426.925915 23.219228 
L 427.16629 23.181907 
L 427.16637 23.1841 
L 427.304948 23.177522 
L 427.30527 23.17533 
L 427.454655 23.157804 
L 427.648729 23.144672 
L 427.649812 23.142485 
L 427.726576 23.124994 
L 427.671383 23.144672 
L 427.762226 23.129365 
L 427.874737 23.096613 
L 433.222244 22.54134 
L 433.342706 22.511863 
L 433.343908 22.50976 
L 433.587498 22.48454 
L 433.705184 22.467749 
L 433.706586 22.465651 
L 434.167218 22.453071 
L 436.165975 22.191123 
L 436.363229 22.180816 
L 436.769071 22.154047 
L 437.140262 22.139652 
L 437.281074 22.108847 
L 437.50306 22.082198 
L 438.101059 22.047415 
L 438.101296 22.049459 
L 438.288114 22.037198 
L 438.288545 22.035156 
L 439.136778 21.971968 
L 439.822638 21.929304 
L 440.152162 21.913081 
L 440.152241 21.915108 
L 440.266349 21.911054 
L 440.266429 21.909027 
L 440.394855 21.907001 
L 440.395097 21.904975 
L 441.816651 21.755752 
L 442.057975 21.743713 
L 442.196948 21.719662 
L 444.625805 21.534474 
L 444.776274 21.51271 
L 445.133385 21.46927 
L 445.594489 21.439718 
L 445.957753 21.435782 
L 446.078565 21.420047 
L 449.521764 21.137484 
L 449.69951 21.129759 
L 450.343336 21.118178 
L 450.492571 21.11432 
L 451.145729 21.066167 
L 451.625471 21.039265 
L 452.104635 21.00091 
L 452.344846 20.987507 
L 452.583428 20.966469 
L 454.078342 20.882587 
L 454.655722 20.833225 
L 455.059844 20.795357 
L 455.059848 20.797248 
L 455.614191 20.784013 
L 455.857142 20.768902 
L 457.639356 20.672895 
L 457.639539 20.674772 
L 457.922887 20.669142 
L 457.92358 20.667265 
L 458.8257 20.648514 
L 459.323531 20.626041 
L 460.125028 20.581189 
L 460.435585 20.538322 
L 460.436077 20.540183 
L 461.185135 20.516002 
L 461.403602 20.504853 
L 461.531346 20.493713 
L 463.480472 20.408555 
L 463.75505 20.399325 
L 463.843986 20.38457 
L 463.866052 20.390101 
L 464.06318 20.399325 
L 464.863455 20.369827 
L 465.290336 20.377197 
L 466.017786 20.371669 
L 466.150179 20.377197 
L 466.403177 20.391946 
L 468.29653 20.296317 
L 468.773122 20.277992 
L 469.110557 20.257858 
L 470.11119 20.215841 
L 470.325666 20.214017 
L 475.605394 19.974997 
L 476.582681 19.946264 
L 476.71243 19.933709 
L 476.714809 19.935502 
L 480.14886 19.785588 
L 480.749999 19.755417 
L 481.767883 19.716456 
L 482.60589 19.668769 
L 484.111589 19.638815 
L 484.515993 19.62298 
L 485.890844 19.558043 
L 486.439919 19.552789 
L 487.424824 19.528294 
L 488.330487 19.486389 
L 497.583867 19.261278 
L 497.977113 19.261278 
L 498.727679 19.223491 
L 499.922349 19.189216 
L 500.430433 19.18237 
L 501.772908 19.153305 
L 506.336349 19.046051 
L 507.685927 18.99861 
L 507.776341 18.990153 
L 509.243943 18.986772 
L 510.151345 18.981701 
L 511.694195 18.966498 
L 512.421953 18.941191 
L 515.838145 18.890695 
L 518.53433 18.867185 
L 518.730504 18.863829 
L 519.301221 18.847061 
L 519.633046 18.835333 
L 521.853933 18.785168 
L 522.950824 18.776822 
L 523.406235 18.763478 
L 524.123054 18.755143 
L 527.983204 18.688622 
L 531.450021 18.628986 
L 534.938627 18.600901 
L 536.874054 18.551459 
L 546.281422 18.482493 
L 548.765225 18.457934 
L 574.339217 18.343815 
L 591.602758 18.293534 
L 594.335382 18.280584 
L 599.662267 18.282202 
L 610.524595 18.26926 
L 703.149181 18.24018 
L 703.149181 18.24018 
" style="fill:none;stroke:#000000;stroke-linecap:square;stroke-width:1.5;"/>
   </g>
   <g id="patch_3">
    <path d="M 54.645234 174.2 
L 54.645234 10.8 
" style="fill:none;stroke:#000000;stroke-linecap:square;stroke-linejoin:miter;stroke-width:0.8;"/>
   </g>
   <g id="patch_4">
    <path d="M 54.645234 174.2 
L 702.95 174.2 
" style="fill:none;stroke:#000000;stroke-linecap:square;stroke-linejoin:miter;stroke-width:0.8;"/>
   </g>
   <g id="text_17">
    <!-- $\frac{d}{dt}\phi \approx s\phi(1-\phi)$ -->
    <g transform="translate(524.666189 66.542796)scale(0.1 -0.1)">
     <defs>
      <path d="M 2675 525 
Q 2444 222 2128 65 
Q 1813 -91 1428 -91 
Q 903 -91 598 267 
Q 294 625 294 1247 
Q 294 1766 478 2236 
Q 663 2706 1013 3078 
Q 1244 3325 1534 3454 
Q 1825 3584 2144 3584 
Q 2481 3584 2739 3421 
Q 2997 3259 3138 2956 
L 3513 4863 
L 4091 4863 
L 3144 0 
L 2566 0 
L 2675 525 
z
M 891 1350 
Q 891 897 1095 644 
Q 1300 391 1663 391 
Q 1931 391 2161 520 
Q 2391 650 2566 903 
Q 2750 1166 2856 1509 
Q 2963 1853 2963 2188 
Q 2963 2622 2758 2865 
Q 2553 3109 2194 3109 
Q 1922 3109 1687 2981 
Q 1453 2853 1288 2613 
Q 1106 2353 998 2009 
Q 891 1666 891 1350 
z
" id="DejaVuSans-Oblique-64" transform="scale(0.015625)"/>
      <path d="M 2706 3500 
L 2619 3053 
L 1472 3053 
L 1100 1153 
Q 1081 1047 1072 975 
Q 1063 903 1063 863 
Q 1063 663 1183 572 
Q 1303 481 1569 481 
L 2150 481 
L 2053 0 
L 1503 0 
Q 991 0 739 200 
Q 488 400 488 806 
Q 488 878 497 964 
Q 506 1050 525 1153 
L 897 3053 
L 409 3053 
L 500 3500 
L 978 3500 
L 1172 4494 
L 1747 4494 
L 1556 3500 
L 2706 3500 
z
" id="DejaVuSans-Oblique-74" transform="scale(0.015625)"/>
      <path d="M 4684 1947 
L 4684 1388 
Q 4356 1144 4076 1036 
Q 3797 928 3494 928 
Q 3150 928 2694 1113 
Q 2663 1125 2641 1134 
Q 2622 1141 2575 1159 
Q 2091 1350 1797 1350 
Q 1522 1350 1253 1231 
Q 984 1113 678 850 
L 678 1409 
Q 1006 1653 1286 1761 
Q 1566 1869 1869 1869 
Q 2213 1869 2672 1684 
Q 2706 1669 2722 1663 
Q 2741 1656 2788 1638 
Q 3272 1447 3566 1447 
Q 3834 1447 4098 1564 
Q 4363 1681 4684 1947 
z
M 4684 3163 
L 4684 2606 
Q 4356 2359 4076 2251 
Q 3797 2144 3494 2144 
Q 3150 2144 2694 2328 
Q 2663 2341 2641 2350 
Q 2622 2356 2575 2375 
Q 2091 2566 1797 2566 
Q 1522 2566 1253 2447 
Q 984 2328 678 2069 
L 678 2625 
Q 1006 2869 1286 2976 
Q 1566 3084 1869 3084 
Q 2213 3084 2672 2900 
Q 2703 2888 2719 2881 
Q 2741 2872 2788 2853 
Q 3272 2663 3566 2663 
Q 3834 2663 4098 2780 
Q 4363 2897 4684 3163 
z
" id="DejaVuSans-2248" transform="scale(0.015625)"/>
      <path d="M 3200 3397 
L 3091 2853 
Q 2863 2978 2609 3040 
Q 2356 3103 2088 3103 
Q 1634 3103 1373 2948 
Q 1113 2794 1113 2528 
Q 1113 2219 1719 2053 
Q 1766 2041 1788 2034 
L 1972 1978 
Q 2547 1819 2739 1644 
Q 2931 1469 2931 1166 
Q 2931 609 2489 259 
Q 2047 -91 1331 -91 
Q 1053 -91 747 -37 
Q 441 16 72 128 
L 184 722 
Q 500 559 806 475 
Q 1113 391 1394 391 
Q 1816 391 2080 572 
Q 2344 753 2344 1031 
Q 2344 1331 1650 1516 
L 1591 1531 
L 1394 1581 
Q 956 1697 753 1886 
Q 550 2075 550 2369 
Q 550 2928 970 3256 
Q 1391 3584 2113 3584 
Q 2397 3584 2667 3537 
Q 2938 3491 3200 3397 
z
" id="DejaVuSans-Oblique-73" transform="scale(0.015625)"/>
      <path d="M 678 2272 
L 4684 2272 
L 4684 1741 
L 678 1741 
L 678 2272 
z
" id="DejaVuSans-2212" transform="scale(0.015625)"/>
     </defs>
     <use transform="translate(14 44.810938)scale(0.7)" xlink:href="#DejaVuSans-Oblique-64"/>
     <use transform="translate(0 -40.623437)scale(0.7)" xlink:href="#DejaVuSans-Oblique-64"/>
     <use transform="translate(44.433594 -40.623437)scale(0.7)" xlink:href="#DejaVuSans-Oblique-74"/>
     <use transform="translate(84.379883 0.01875)" xlink:href="#DejaVuSans-Oblique-3d5"/>
     <use transform="translate(169.829102 0.01875)" xlink:href="#DejaVuSans-2248"/>
     <use transform="translate(273.100586 0.01875)" xlink:href="#DejaVuSans-Oblique-73"/>
     <use transform="translate(325.200195 0.01875)" xlink:href="#DejaVuSans-Oblique-3d5"/>
     <use transform="translate(391.166992 0.01875)" xlink:href="#DejaVuSans-28"/>
     <use transform="translate(430.180664 0.01875)" xlink:href="#DejaVuSans-31"/>
     <use transform="translate(513.286133 0.01875)" xlink:href="#DejaVuSans-2212"/>
     <use transform="translate(616.557617 0.01875)" xlink:href="#DejaVuSans-Oblique-3d5"/>
     <use transform="translate(682.524414 0.01875)" xlink:href="#DejaVuSans-29"/>
     <path d="M 0 18.815625 
L 0 25.065625 
L 71.879883 25.065625 
L 71.879883 18.815625 
L 0 18.815625 
z
"/>
    </g>
   </g>
  </g>
 </g>
 <defs>
  <clipPath id="ped5700bde2">
   <rect height="163.4" width="648.304766" x="54.645234" y="10.8"/>
  </clipPath>
 </defs>
</svg>
