<?xml version="1.0" encoding="utf-8" standalone="no"?>
<!DOCTYPE svg PUBLIC "-//W3C//DTD SVG 1.1//EN"
  "http://www.w3.org/Graphics/SVG/1.1/DTD/svg11.dtd">
<svg height="216pt" version="1.1" viewBox="0 0 720 216" width="720pt" xmlns="http://www.w3.org/2000/svg" xmlns:xlink="http://www.w3.org/1999/xlink">
 <metadata>
  <rdf:RDF xmlns:cc="http://creativecommons.org/ns#" xmlns:dc="http://purl.org/dc/elements/1.1/" xmlns:rdf="http://www.w3.org/1999/02/22-rdf-syntax-ns#">
   <cc:Work>
    <dc:type rdf:resource="http://purl.org/dc/dcmitype/StillImage"/>
    <dc:date>2022-03-24T22:43:26.959366</dc:date>
    <dc:format>image/svg+xml</dc:format>
    <dc:creator>
     <cc:Agent>
      <dc:title>Matplotlib v3.4.3, https://matplotlib.org/</dc:title>
     </cc:Agent>
    </dc:creator>
   </cc:Work>
  </rdf:RDF>
 </metadata>
 <defs>
  <style type="text/css">*{stroke-linecap:butt;stroke-linejoin:round;}</style>
 </defs>
 <g id="figure_1">
  <g id="patch_1">
   <path d="M 0 216 
L 720 216 
L 720 0 
L 0 0 
z
" style="fill:none;"/>
  </g>
  <g id="axes_1">
   <g id="patch_2">
    <path d="M 54.645234 174.2 
L 702.95 174.2 
L 702.95 10.8 
L 54.645234 10.8 
z
" style="fill:#ffffff;"/>
   </g>
   <g id="matplotlib.axis_1">
    <g id="xtick_1">
     <g id="line2d_1">
      <defs>
       <path d="M 0 0 
L 0 3.5 
" id="m5386a6695f" style="stroke:#000000;stroke-width:0.8;"/>
      </defs>
      <g>
       <use style="stroke:#000000;stroke-width:0.8;" x="54.645234" xlink:href="#m5386a6695f" y="174.2"/>
      </g>
     </g>
     <g id="text_1">
      <!-- 0 -->
      <g transform="translate(51.463984 188.798438)scale(0.1 -0.1)">
       <defs>
        <path d="M 2034 4250 
Q 1547 4250 1301 3770 
Q 1056 3291 1056 2328 
Q 1056 1369 1301 889 
Q 1547 409 2034 409 
Q 2525 409 2770 889 
Q 3016 1369 3016 2328 
Q 3016 3291 2770 3770 
Q 2525 4250 2034 4250 
z
M 2034 4750 
Q 2819 4750 3233 4129 
Q 3647 3509 3647 2328 
Q 3647 1150 3233 529 
Q 2819 -91 2034 -91 
Q 1250 -91 836 529 
Q 422 1150 422 2328 
Q 422 3509 836 4129 
Q 1250 4750 2034 4750 
z
" id="DejaVuSans-30" transform="scale(0.015625)"/>
       </defs>
       <use xlink:href="#DejaVuSans-30"/>
      </g>
     </g>
    </g>
    <g id="xtick_2">
     <g id="line2d_2">
      <g>
       <use style="stroke:#000000;stroke-width:0.8;" x="135.68333" xlink:href="#m5386a6695f" y="174.2"/>
      </g>
     </g>
     <g id="text_2">
      <!-- 5 -->
      <g transform="translate(132.50208 188.798438)scale(0.1 -0.1)">
       <defs>
        <path d="M 691 4666 
L 3169 4666 
L 3169 4134 
L 1269 4134 
L 1269 2991 
Q 1406 3038 1543 3061 
Q 1681 3084 1819 3084 
Q 2600 3084 3056 2656 
Q 3513 2228 3513 1497 
Q 3513 744 3044 326 
Q 2575 -91 1722 -91 
Q 1428 -91 1123 -41 
Q 819 9 494 109 
L 494 744 
Q 775 591 1075 516 
Q 1375 441 1709 441 
Q 2250 441 2565 725 
Q 2881 1009 2881 1497 
Q 2881 1984 2565 2268 
Q 2250 2553 1709 2553 
Q 1456 2553 1204 2497 
Q 953 2441 691 2322 
L 691 4666 
z
" id="DejaVuSans-35" transform="scale(0.015625)"/>
       </defs>
       <use xlink:href="#DejaVuSans-35"/>
      </g>
     </g>
    </g>
    <g id="xtick_3">
     <g id="line2d_3">
      <g>
       <use style="stroke:#000000;stroke-width:0.8;" x="216.721426" xlink:href="#m5386a6695f" y="174.2"/>
      </g>
     </g>
     <g id="text_3">
      <!-- 10 -->
      <g transform="translate(210.358926 188.798438)scale(0.1 -0.1)">
       <defs>
        <path d="M 794 531 
L 1825 531 
L 1825 4091 
L 703 3866 
L 703 4441 
L 1819 4666 
L 2450 4666 
L 2450 531 
L 3481 531 
L 3481 0 
L 794 0 
L 794 531 
z
" id="DejaVuSans-31" transform="scale(0.015625)"/>
       </defs>
       <use xlink:href="#DejaVuSans-31"/>
       <use x="63.623047" xlink:href="#DejaVuSans-30"/>
      </g>
     </g>
    </g>
    <g id="xtick_4">
     <g id="line2d_4">
      <g>
       <use style="stroke:#000000;stroke-width:0.8;" x="297.759521" xlink:href="#m5386a6695f" y="174.2"/>
      </g>
     </g>
     <g id="text_4">
      <!-- 15 -->
      <g transform="translate(291.397021 188.798438)scale(0.1 -0.1)">
       <use xlink:href="#DejaVuSans-31"/>
       <use x="63.623047" xlink:href="#DejaVuSans-35"/>
      </g>
     </g>
    </g>
    <g id="xtick_5">
     <g id="line2d_5">
      <g>
       <use style="stroke:#000000;stroke-width:0.8;" x="378.797617" xlink:href="#m5386a6695f" y="174.2"/>
      </g>
     </g>
     <g id="text_5">
      <!-- 20 -->
      <g transform="translate(372.435117 188.798438)scale(0.1 -0.1)">
       <defs>
        <path d="M 1228 531 
L 3431 531 
L 3431 0 
L 469 0 
L 469 531 
Q 828 903 1448 1529 
Q 2069 2156 2228 2338 
Q 2531 2678 2651 2914 
Q 2772 3150 2772 3378 
Q 2772 3750 2511 3984 
Q 2250 4219 1831 4219 
Q 1534 4219 1204 4116 
Q 875 4013 500 3803 
L 500 4441 
Q 881 4594 1212 4672 
Q 1544 4750 1819 4750 
Q 2544 4750 2975 4387 
Q 3406 4025 3406 3419 
Q 3406 3131 3298 2873 
Q 3191 2616 2906 2266 
Q 2828 2175 2409 1742 
Q 1991 1309 1228 531 
z
" id="DejaVuSans-32" transform="scale(0.015625)"/>
       </defs>
       <use xlink:href="#DejaVuSans-32"/>
       <use x="63.623047" xlink:href="#DejaVuSans-30"/>
      </g>
     </g>
    </g>
    <g id="xtick_6">
     <g id="line2d_6">
      <g>
       <use style="stroke:#000000;stroke-width:0.8;" x="459.835713" xlink:href="#m5386a6695f" y="174.2"/>
      </g>
     </g>
     <g id="text_6">
      <!-- 25 -->
      <g transform="translate(453.473213 188.798438)scale(0.1 -0.1)">
       <use xlink:href="#DejaVuSans-32"/>
       <use x="63.623047" xlink:href="#DejaVuSans-35"/>
      </g>
     </g>
    </g>
    <g id="xtick_7">
     <g id="line2d_7">
      <g>
       <use style="stroke:#000000;stroke-width:0.8;" x="540.873809" xlink:href="#m5386a6695f" y="174.2"/>
      </g>
     </g>
     <g id="text_7">
      <!-- 30 -->
      <g transform="translate(534.511309 188.798438)scale(0.1 -0.1)">
       <defs>
        <path d="M 2597 2516 
Q 3050 2419 3304 2112 
Q 3559 1806 3559 1356 
Q 3559 666 3084 287 
Q 2609 -91 1734 -91 
Q 1441 -91 1130 -33 
Q 819 25 488 141 
L 488 750 
Q 750 597 1062 519 
Q 1375 441 1716 441 
Q 2309 441 2620 675 
Q 2931 909 2931 1356 
Q 2931 1769 2642 2001 
Q 2353 2234 1838 2234 
L 1294 2234 
L 1294 2753 
L 1863 2753 
Q 2328 2753 2575 2939 
Q 2822 3125 2822 3475 
Q 2822 3834 2567 4026 
Q 2313 4219 1838 4219 
Q 1578 4219 1281 4162 
Q 984 4106 628 3988 
L 628 4550 
Q 988 4650 1302 4700 
Q 1616 4750 1894 4750 
Q 2613 4750 3031 4423 
Q 3450 4097 3450 3541 
Q 3450 3153 3228 2886 
Q 3006 2619 2597 2516 
z
" id="DejaVuSans-33" transform="scale(0.015625)"/>
       </defs>
       <use xlink:href="#DejaVuSans-33"/>
       <use x="63.623047" xlink:href="#DejaVuSans-30"/>
      </g>
     </g>
    </g>
    <g id="xtick_8">
     <g id="line2d_8">
      <g>
       <use style="stroke:#000000;stroke-width:0.8;" x="621.911904" xlink:href="#m5386a6695f" y="174.2"/>
      </g>
     </g>
     <g id="text_8">
      <!-- 35 -->
      <g transform="translate(615.549404 188.798438)scale(0.1 -0.1)">
       <use xlink:href="#DejaVuSans-33"/>
       <use x="63.623047" xlink:href="#DejaVuSans-35"/>
      </g>
     </g>
    </g>
    <g id="xtick_9">
     <g id="line2d_9">
      <g>
       <use style="stroke:#000000;stroke-width:0.8;" x="702.95" xlink:href="#m5386a6695f" y="174.2"/>
      </g>
     </g>
     <g id="text_9">
      <!-- 40 -->
      <g transform="translate(696.5875 188.798438)scale(0.1 -0.1)">
       <defs>
        <path d="M 2419 4116 
L 825 1625 
L 2419 1625 
L 2419 4116 
z
M 2253 4666 
L 3047 4666 
L 3047 1625 
L 3713 1625 
L 3713 1100 
L 3047 1100 
L 3047 0 
L 2419 0 
L 2419 1100 
L 313 1100 
L 313 1709 
L 2253 4666 
z
" id="DejaVuSans-34" transform="scale(0.015625)"/>
       </defs>
       <use xlink:href="#DejaVuSans-34"/>
       <use x="63.623047" xlink:href="#DejaVuSans-30"/>
      </g>
     </g>
    </g>
    <g id="text_10">
     <!-- time -->
     <g transform="translate(367.501523 202.476562)scale(0.1 -0.1)">
      <defs>
       <path d="M 1172 4494 
L 1172 3500 
L 2356 3500 
L 2356 3053 
L 1172 3053 
L 1172 1153 
Q 1172 725 1289 603 
Q 1406 481 1766 481 
L 2356 481 
L 2356 0 
L 1766 0 
Q 1100 0 847 248 
Q 594 497 594 1153 
L 594 3053 
L 172 3053 
L 172 3500 
L 594 3500 
L 594 4494 
L 1172 4494 
z
" id="DejaVuSans-74" transform="scale(0.015625)"/>
       <path d="M 603 3500 
L 1178 3500 
L 1178 0 
L 603 0 
L 603 3500 
z
M 603 4863 
L 1178 4863 
L 1178 4134 
L 603 4134 
L 603 4863 
z
" id="DejaVuSans-69" transform="scale(0.015625)"/>
       <path d="M 3328 2828 
Q 3544 3216 3844 3400 
Q 4144 3584 4550 3584 
Q 5097 3584 5394 3201 
Q 5691 2819 5691 2113 
L 5691 0 
L 5113 0 
L 5113 2094 
Q 5113 2597 4934 2840 
Q 4756 3084 4391 3084 
Q 3944 3084 3684 2787 
Q 3425 2491 3425 1978 
L 3425 0 
L 2847 0 
L 2847 2094 
Q 2847 2600 2669 2842 
Q 2491 3084 2119 3084 
Q 1678 3084 1418 2786 
Q 1159 2488 1159 1978 
L 1159 0 
L 581 0 
L 581 3500 
L 1159 3500 
L 1159 2956 
Q 1356 3278 1631 3431 
Q 1906 3584 2284 3584 
Q 2666 3584 2933 3390 
Q 3200 3197 3328 2828 
z
" id="DejaVuSans-6d" transform="scale(0.015625)"/>
       <path d="M 3597 1894 
L 3597 1613 
L 953 1613 
Q 991 1019 1311 708 
Q 1631 397 2203 397 
Q 2534 397 2845 478 
Q 3156 559 3463 722 
L 3463 178 
Q 3153 47 2828 -22 
Q 2503 -91 2169 -91 
Q 1331 -91 842 396 
Q 353 884 353 1716 
Q 353 2575 817 3079 
Q 1281 3584 2069 3584 
Q 2775 3584 3186 3129 
Q 3597 2675 3597 1894 
z
M 3022 2063 
Q 3016 2534 2758 2815 
Q 2500 3097 2075 3097 
Q 1594 3097 1305 2825 
Q 1016 2553 972 2059 
L 3022 2063 
z
" id="DejaVuSans-65" transform="scale(0.015625)"/>
      </defs>
      <use xlink:href="#DejaVuSans-74"/>
      <use x="39.208984" xlink:href="#DejaVuSans-69"/>
      <use x="66.992188" xlink:href="#DejaVuSans-6d"/>
      <use x="164.404297" xlink:href="#DejaVuSans-65"/>
     </g>
    </g>
   </g>
   <g id="matplotlib.axis_2">
    <g id="ytick_1">
     <g id="line2d_10">
      <defs>
       <path d="M 0 0 
L -3.5 0 
" id="m3c327b0a08" style="stroke:#000000;stroke-width:0.8;"/>
      </defs>
      <g>
       <use style="stroke:#000000;stroke-width:0.8;" x="54.645234" xlink:href="#m3c327b0a08" y="166.772727"/>
      </g>
     </g>
     <g id="text_11">
      <!-- $\mathdefault{10^{0}}$ -->
      <g transform="translate(30.045234 170.571946)scale(0.1 -0.1)">
       <use transform="translate(0 0.765625)" xlink:href="#DejaVuSans-31"/>
       <use transform="translate(63.623047 0.765625)" xlink:href="#DejaVuSans-30"/>
       <use transform="translate(128.203125 39.046875)scale(0.7)" xlink:href="#DejaVuSans-30"/>
      </g>
     </g>
    </g>
    <g id="ytick_2">
     <g id="line2d_11">
      <g>
       <use style="stroke:#000000;stroke-width:0.8;" x="54.645234" xlink:href="#m3c327b0a08" y="129.636364"/>
      </g>
     </g>
     <g id="text_12">
      <!-- $\mathdefault{10^{1}}$ -->
      <g transform="translate(30.045234 133.435582)scale(0.1 -0.1)">
       <use transform="translate(0 0.684375)" xlink:href="#DejaVuSans-31"/>
       <use transform="translate(63.623047 0.684375)" xlink:href="#DejaVuSans-30"/>
       <use transform="translate(128.203125 38.965625)scale(0.7)" xlink:href="#DejaVuSans-31"/>
      </g>
     </g>
    </g>
    <g id="ytick_3">
     <g id="line2d_12">
      <g>
       <use style="stroke:#000000;stroke-width:0.8;" x="54.645234" xlink:href="#m3c327b0a08" y="92.5"/>
      </g>
     </g>
     <g id="text_13">
      <!-- $\mathdefault{10^{2}}$ -->
      <g transform="translate(30.045234 96.299219)scale(0.1 -0.1)">
       <use transform="translate(0 0.765625)" xlink:href="#DejaVuSans-31"/>
       <use transform="translate(63.623047 0.765625)" xlink:href="#DejaVuSans-30"/>
       <use transform="translate(128.203125 39.046875)scale(0.7)" xlink:href="#DejaVuSans-32"/>
      </g>
     </g>
    </g>
    <g id="ytick_4">
     <g id="line2d_13">
      <g>
       <use style="stroke:#000000;stroke-width:0.8;" x="54.645234" xlink:href="#m3c327b0a08" y="55.363636"/>
      </g>
     </g>
     <g id="text_14">
      <!-- $\mathdefault{10^{3}}$ -->
      <g transform="translate(30.045234 59.162855)scale(0.1 -0.1)">
       <use transform="translate(0 0.765625)" xlink:href="#DejaVuSans-31"/>
       <use transform="translate(63.623047 0.765625)" xlink:href="#DejaVuSans-30"/>
       <use transform="translate(128.203125 39.046875)scale(0.7)" xlink:href="#DejaVuSans-33"/>
      </g>
     </g>
    </g>
    <g id="ytick_5">
     <g id="line2d_14">
      <g>
       <use style="stroke:#000000;stroke-width:0.8;" x="54.645234" xlink:href="#m3c327b0a08" y="18.227273"/>
      </g>
     </g>
     <g id="text_15">
      <!-- $\mathdefault{10^{4}}$ -->
      <g transform="translate(30.045234 22.026491)scale(0.1 -0.1)">
       <use transform="translate(0 0.684375)" xlink:href="#DejaVuSans-31"/>
       <use transform="translate(63.623047 0.684375)" xlink:href="#DejaVuSans-30"/>
       <use transform="translate(128.203125 38.965625)scale(0.7)" xlink:href="#DejaVuSans-34"/>
      </g>
     </g>
    </g>
    <g id="ytick_6">
     <g id="line2d_15">
      <defs>
       <path d="M 0 0 
L -2 0 
" id="mee8c37b04b" style="stroke:#000000;stroke-width:0.6;"/>
      </defs>
      <g>
       <use style="stroke:#000000;stroke-width:0.6;" x="54.645234" xlink:href="#mee8c37b04b" y="172.525223"/>
      </g>
     </g>
    </g>
    <g id="ytick_7">
     <g id="line2d_16">
      <g>
       <use style="stroke:#000000;stroke-width:0.6;" x="54.645234" xlink:href="#mee8c37b04b" y="170.371613"/>
      </g>
     </g>
    </g>
    <g id="ytick_8">
     <g id="line2d_17">
      <g>
       <use style="stroke:#000000;stroke-width:0.6;" x="54.645234" xlink:href="#mee8c37b04b" y="168.471994"/>
      </g>
     </g>
    </g>
    <g id="ytick_9">
     <g id="line2d_18">
      <g>
       <use style="stroke:#000000;stroke-width:0.6;" x="54.645234" xlink:href="#mee8c37b04b" y="155.593568"/>
      </g>
     </g>
    </g>
    <g id="ytick_10">
     <g id="line2d_19">
      <g>
       <use style="stroke:#000000;stroke-width:0.6;" x="54.645234" xlink:href="#mee8c37b04b" y="149.054179"/>
      </g>
     </g>
    </g>
    <g id="ytick_11">
     <g id="line2d_20">
      <g>
       <use style="stroke:#000000;stroke-width:0.6;" x="54.645234" xlink:href="#mee8c37b04b" y="144.414409"/>
      </g>
     </g>
    </g>
    <g id="ytick_12">
     <g id="line2d_21">
      <g>
       <use style="stroke:#000000;stroke-width:0.6;" x="54.645234" xlink:href="#mee8c37b04b" y="140.815523"/>
      </g>
     </g>
    </g>
    <g id="ytick_13">
     <g id="line2d_22">
      <g>
       <use style="stroke:#000000;stroke-width:0.6;" x="54.645234" xlink:href="#mee8c37b04b" y="137.875019"/>
      </g>
     </g>
    </g>
    <g id="ytick_14">
     <g id="line2d_23">
      <g>
       <use style="stroke:#000000;stroke-width:0.6;" x="54.645234" xlink:href="#mee8c37b04b" y="135.388859"/>
      </g>
     </g>
    </g>
    <g id="ytick_15">
     <g id="line2d_24">
      <g>
       <use style="stroke:#000000;stroke-width:0.6;" x="54.645234" xlink:href="#mee8c37b04b" y="133.235249"/>
      </g>
     </g>
    </g>
    <g id="ytick_16">
     <g id="line2d_25">
      <g>
       <use style="stroke:#000000;stroke-width:0.6;" x="54.645234" xlink:href="#mee8c37b04b" y="131.33563"/>
      </g>
     </g>
    </g>
    <g id="ytick_17">
     <g id="line2d_26">
      <g>
       <use style="stroke:#000000;stroke-width:0.6;" x="54.645234" xlink:href="#mee8c37b04b" y="118.457204"/>
      </g>
     </g>
    </g>
    <g id="ytick_18">
     <g id="line2d_27">
      <g>
       <use style="stroke:#000000;stroke-width:0.6;" x="54.645234" xlink:href="#mee8c37b04b" y="111.917815"/>
      </g>
     </g>
    </g>
    <g id="ytick_19">
     <g id="line2d_28">
      <g>
       <use style="stroke:#000000;stroke-width:0.6;" x="54.645234" xlink:href="#mee8c37b04b" y="107.278045"/>
      </g>
     </g>
    </g>
    <g id="ytick_20">
     <g id="line2d_29">
      <g>
       <use style="stroke:#000000;stroke-width:0.6;" x="54.645234" xlink:href="#mee8c37b04b" y="103.679159"/>
      </g>
     </g>
    </g>
    <g id="ytick_21">
     <g id="line2d_30">
      <g>
       <use style="stroke:#000000;stroke-width:0.6;" x="54.645234" xlink:href="#mee8c37b04b" y="100.738656"/>
      </g>
     </g>
    </g>
    <g id="ytick_22">
     <g id="line2d_31">
      <g>
       <use style="stroke:#000000;stroke-width:0.6;" x="54.645234" xlink:href="#mee8c37b04b" y="98.252496"/>
      </g>
     </g>
    </g>
    <g id="ytick_23">
     <g id="line2d_32">
      <g>
       <use style="stroke:#000000;stroke-width:0.6;" x="54.645234" xlink:href="#mee8c37b04b" y="96.098885"/>
      </g>
     </g>
    </g>
    <g id="ytick_24">
     <g id="line2d_33">
      <g>
       <use style="stroke:#000000;stroke-width:0.6;" x="54.645234" xlink:href="#mee8c37b04b" y="94.199267"/>
      </g>
     </g>
    </g>
    <g id="ytick_25">
     <g id="line2d_34">
      <g>
       <use style="stroke:#000000;stroke-width:0.6;" x="54.645234" xlink:href="#mee8c37b04b" y="81.320841"/>
      </g>
     </g>
    </g>
    <g id="ytick_26">
     <g id="line2d_35">
      <g>
       <use style="stroke:#000000;stroke-width:0.6;" x="54.645234" xlink:href="#mee8c37b04b" y="74.781452"/>
      </g>
     </g>
    </g>
    <g id="ytick_27">
     <g id="line2d_36">
      <g>
       <use style="stroke:#000000;stroke-width:0.6;" x="54.645234" xlink:href="#mee8c37b04b" y="70.141681"/>
      </g>
     </g>
    </g>
    <g id="ytick_28">
     <g id="line2d_37">
      <g>
       <use style="stroke:#000000;stroke-width:0.6;" x="54.645234" xlink:href="#mee8c37b04b" y="66.542796"/>
      </g>
     </g>
    </g>
    <g id="ytick_29">
     <g id="line2d_38">
      <g>
       <use style="stroke:#000000;stroke-width:0.6;" x="54.645234" xlink:href="#mee8c37b04b" y="63.602292"/>
      </g>
     </g>
    </g>
    <g id="ytick_30">
     <g id="line2d_39">
      <g>
       <use style="stroke:#000000;stroke-width:0.6;" x="54.645234" xlink:href="#mee8c37b04b" y="61.116132"/>
      </g>
     </g>
    </g>
    <g id="ytick_31">
     <g id="line2d_40">
      <g>
       <use style="stroke:#000000;stroke-width:0.6;" x="54.645234" xlink:href="#mee8c37b04b" y="58.962522"/>
      </g>
     </g>
    </g>
    <g id="ytick_32">
     <g id="line2d_41">
      <g>
       <use style="stroke:#000000;stroke-width:0.6;" x="54.645234" xlink:href="#mee8c37b04b" y="57.062903"/>
      </g>
     </g>
    </g>
    <g id="ytick_33">
     <g id="line2d_42">
      <g>
       <use style="stroke:#000000;stroke-width:0.6;" x="54.645234" xlink:href="#mee8c37b04b" y="44.184477"/>
      </g>
     </g>
    </g>
    <g id="ytick_34">
     <g id="line2d_43">
      <g>
       <use style="stroke:#000000;stroke-width:0.6;" x="54.645234" xlink:href="#mee8c37b04b" y="37.645088"/>
      </g>
     </g>
    </g>
    <g id="ytick_35">
     <g id="line2d_44">
      <g>
       <use style="stroke:#000000;stroke-width:0.6;" x="54.645234" xlink:href="#mee8c37b04b" y="33.005318"/>
      </g>
     </g>
    </g>
    <g id="ytick_36">
     <g id="line2d_45">
      <g>
       <use style="stroke:#000000;stroke-width:0.6;" x="54.645234" xlink:href="#mee8c37b04b" y="29.406432"/>
      </g>
     </g>
    </g>
    <g id="ytick_37">
     <g id="line2d_46">
      <g>
       <use style="stroke:#000000;stroke-width:0.6;" x="54.645234" xlink:href="#mee8c37b04b" y="26.465929"/>
      </g>
     </g>
    </g>
    <g id="ytick_38">
     <g id="line2d_47">
      <g>
       <use style="stroke:#000000;stroke-width:0.6;" x="54.645234" xlink:href="#mee8c37b04b" y="23.979768"/>
      </g>
     </g>
    </g>
    <g id="ytick_39">
     <g id="line2d_48">
      <g>
       <use style="stroke:#000000;stroke-width:0.6;" x="54.645234" xlink:href="#mee8c37b04b" y="21.826158"/>
      </g>
     </g>
    </g>
    <g id="ytick_40">
     <g id="line2d_49">
      <g>
       <use style="stroke:#000000;stroke-width:0.6;" x="54.645234" xlink:href="#mee8c37b04b" y="19.92654"/>
      </g>
     </g>
    </g>
    <g id="text_16">
     <!-- Mutant fraction ($\phi$) -->
     <g transform="translate(23.945234 139.75)rotate(-90)scale(0.1 -0.1)">
      <defs>
       <path d="M 628 4666 
L 1569 4666 
L 2759 1491 
L 3956 4666 
L 4897 4666 
L 4897 0 
L 4281 0 
L 4281 4097 
L 3078 897 
L 2444 897 
L 1241 4097 
L 1241 0 
L 628 0 
L 628 4666 
z
" id="DejaVuSans-4d" transform="scale(0.015625)"/>
       <path d="M 544 1381 
L 544 3500 
L 1119 3500 
L 1119 1403 
Q 1119 906 1312 657 
Q 1506 409 1894 409 
Q 2359 409 2629 706 
Q 2900 1003 2900 1516 
L 2900 3500 
L 3475 3500 
L 3475 0 
L 2900 0 
L 2900 538 
Q 2691 219 2414 64 
Q 2138 -91 1772 -91 
Q 1169 -91 856 284 
Q 544 659 544 1381 
z
M 1991 3584 
L 1991 3584 
z
" id="DejaVuSans-75" transform="scale(0.015625)"/>
       <path d="M 2194 1759 
Q 1497 1759 1228 1600 
Q 959 1441 959 1056 
Q 959 750 1161 570 
Q 1363 391 1709 391 
Q 2188 391 2477 730 
Q 2766 1069 2766 1631 
L 2766 1759 
L 2194 1759 
z
M 3341 1997 
L 3341 0 
L 2766 0 
L 2766 531 
Q 2569 213 2275 61 
Q 1981 -91 1556 -91 
Q 1019 -91 701 211 
Q 384 513 384 1019 
Q 384 1609 779 1909 
Q 1175 2209 1959 2209 
L 2766 2209 
L 2766 2266 
Q 2766 2663 2505 2880 
Q 2244 3097 1772 3097 
Q 1472 3097 1187 3025 
Q 903 2953 641 2809 
L 641 3341 
Q 956 3463 1253 3523 
Q 1550 3584 1831 3584 
Q 2591 3584 2966 3190 
Q 3341 2797 3341 1997 
z
" id="DejaVuSans-61" transform="scale(0.015625)"/>
       <path d="M 3513 2113 
L 3513 0 
L 2938 0 
L 2938 2094 
Q 2938 2591 2744 2837 
Q 2550 3084 2163 3084 
Q 1697 3084 1428 2787 
Q 1159 2491 1159 1978 
L 1159 0 
L 581 0 
L 581 3500 
L 1159 3500 
L 1159 2956 
Q 1366 3272 1645 3428 
Q 1925 3584 2291 3584 
Q 2894 3584 3203 3211 
Q 3513 2838 3513 2113 
z
" id="DejaVuSans-6e" transform="scale(0.015625)"/>
       <path id="DejaVuSans-20" transform="scale(0.015625)"/>
       <path d="M 2375 4863 
L 2375 4384 
L 1825 4384 
Q 1516 4384 1395 4259 
Q 1275 4134 1275 3809 
L 1275 3500 
L 2222 3500 
L 2222 3053 
L 1275 3053 
L 1275 0 
L 697 0 
L 697 3053 
L 147 3053 
L 147 3500 
L 697 3500 
L 697 3744 
Q 697 4328 969 4595 
Q 1241 4863 1831 4863 
L 2375 4863 
z
" id="DejaVuSans-66" transform="scale(0.015625)"/>
       <path d="M 2631 2963 
Q 2534 3019 2420 3045 
Q 2306 3072 2169 3072 
Q 1681 3072 1420 2755 
Q 1159 2438 1159 1844 
L 1159 0 
L 581 0 
L 581 3500 
L 1159 3500 
L 1159 2956 
Q 1341 3275 1631 3429 
Q 1922 3584 2338 3584 
Q 2397 3584 2469 3576 
Q 2541 3569 2628 3553 
L 2631 2963 
z
" id="DejaVuSans-72" transform="scale(0.015625)"/>
       <path d="M 3122 3366 
L 3122 2828 
Q 2878 2963 2633 3030 
Q 2388 3097 2138 3097 
Q 1578 3097 1268 2742 
Q 959 2388 959 1747 
Q 959 1106 1268 751 
Q 1578 397 2138 397 
Q 2388 397 2633 464 
Q 2878 531 3122 666 
L 3122 134 
Q 2881 22 2623 -34 
Q 2366 -91 2075 -91 
Q 1284 -91 818 406 
Q 353 903 353 1747 
Q 353 2603 823 3093 
Q 1294 3584 2113 3584 
Q 2378 3584 2631 3529 
Q 2884 3475 3122 3366 
z
" id="DejaVuSans-63" transform="scale(0.015625)"/>
       <path d="M 1959 3097 
Q 1497 3097 1228 2736 
Q 959 2375 959 1747 
Q 959 1119 1226 758 
Q 1494 397 1959 397 
Q 2419 397 2687 759 
Q 2956 1122 2956 1747 
Q 2956 2369 2687 2733 
Q 2419 3097 1959 3097 
z
M 1959 3584 
Q 2709 3584 3137 3096 
Q 3566 2609 3566 1747 
Q 3566 888 3137 398 
Q 2709 -91 1959 -91 
Q 1206 -91 779 398 
Q 353 888 353 1747 
Q 353 2609 779 3096 
Q 1206 3584 1959 3584 
z
" id="DejaVuSans-6f" transform="scale(0.015625)"/>
       <path d="M 1984 4856 
Q 1566 4138 1362 3434 
Q 1159 2731 1159 2009 
Q 1159 1288 1364 580 
Q 1569 -128 1984 -844 
L 1484 -844 
Q 1016 -109 783 600 
Q 550 1309 550 2009 
Q 550 2706 781 3412 
Q 1013 4119 1484 4856 
L 1984 4856 
z
" id="DejaVuSans-28" transform="scale(0.015625)"/>
       <path d="M 2991 4863 
L 2738 3572 
Q 3363 3572 3684 3094 
Q 4016 2606 3850 1747 
Q 3681 888 3159 400 
Q 2653 -78 2028 -78 
L 1784 -1331 
L 1213 -1331 
L 1456 -78 
Q 834 -78 509 400 
Q 178 888 347 1747 
Q 513 2606 1034 3094 
Q 1544 3572 2166 3572 
L 2419 4863 
L 2991 4863 
z
M 2128 434 
Q 2481 434 2784 756 
Q 3116 1116 3244 1747 
Q 3369 2372 3169 2738 
Q 2991 3059 2638 3059 
L 2128 434 
z
M 1556 434 
L 2066 3059 
Q 1716 3059 1413 2738 
Q 1072 2372 953 1747 
Q 834 1116 1028 756 
Q 1203 434 1556 434 
z
" id="DejaVuSans-Oblique-3d5" transform="scale(0.015625)"/>
       <path d="M 513 4856 
L 1013 4856 
Q 1481 4119 1714 3412 
Q 1947 2706 1947 2009 
Q 1947 1309 1714 600 
Q 1481 -109 1013 -844 
L 513 -844 
Q 928 -128 1133 580 
Q 1338 1288 1338 2009 
Q 1338 2731 1133 3434 
Q 928 4138 513 4856 
z
" id="DejaVuSans-29" transform="scale(0.015625)"/>
      </defs>
      <use transform="translate(0 0.015625)" xlink:href="#DejaVuSans-4d"/>
      <use transform="translate(86.279297 0.015625)" xlink:href="#DejaVuSans-75"/>
      <use transform="translate(149.658203 0.015625)" xlink:href="#DejaVuSans-74"/>
      <use transform="translate(188.867188 0.015625)" xlink:href="#DejaVuSans-61"/>
      <use transform="translate(250.146484 0.015625)" xlink:href="#DejaVuSans-6e"/>
      <use transform="translate(313.525391 0.015625)" xlink:href="#DejaVuSans-74"/>
      <use transform="translate(352.734375 0.015625)" xlink:href="#DejaVuSans-20"/>
      <use transform="translate(384.521484 0.015625)" xlink:href="#DejaVuSans-66"/>
      <use transform="translate(419.726562 0.015625)" xlink:href="#DejaVuSans-72"/>
      <use transform="translate(460.839844 0.015625)" xlink:href="#DejaVuSans-61"/>
      <use transform="translate(522.119141 0.015625)" xlink:href="#DejaVuSans-63"/>
      <use transform="translate(577.099609 0.015625)" xlink:href="#DejaVuSans-74"/>
      <use transform="translate(616.308594 0.015625)" xlink:href="#DejaVuSans-69"/>
      <use transform="translate(644.091797 0.015625)" xlink:href="#DejaVuSans-6f"/>
      <use transform="translate(705.273438 0.015625)" xlink:href="#DejaVuSans-6e"/>
      <use transform="translate(768.652344 0.015625)" xlink:href="#DejaVuSans-20"/>
      <use transform="translate(800.439453 0.015625)" xlink:href="#DejaVuSans-28"/>
      <use transform="translate(839.453125 0.015625)" xlink:href="#DejaVuSans-Oblique-3d5"/>
      <use transform="translate(905.419922 0.015625)" xlink:href="#DejaVuSans-29"/>
     </g>
    </g>
   </g>
   <g id="LineCollection_1">
    <path clip-path="url(#p6fa93b6d74)" d="M 257.240474 217 
L 257.240474 18.227273 
" style="fill:none;stroke:#1f77b4;stroke-dasharray:5.55,2.4;stroke-dashoffset:0;stroke-width:1.5;"/>
   </g>
   <g id="line2d_50">
    <path clip-path="url(#p6fa93b6d74)" d="M 54.645234 166.772727 
L 55.606488 155.593568 
L 57.250406 149.054179 
L 57.369814 155.593568 
L 58.254253 144.414409 
L 62.544477 140.815523 
L 64.190143 144.414409 
L 67.603955 140.815523 
L 69.032172 137.875019 
L 69.940186 135.388859 
L 72.662043 137.875019 
L 75.050401 135.388859 
L 75.78438 137.875019 
L 76.089052 135.388859 
L 76.405619 137.875019 
L 78.456294 140.815523 
L 80.062184 135.388859 
L 80.389123 137.875019 
L 82.691617 135.388859 
L 82.889707 133.235249 
L 84.421201 131.33563 
L 85.019291 129.636364 
L 85.130947 128.09919 
L 85.255174 129.636364 
L 86.421349 128.09919 
L 86.43271 126.69586 
L 87.20008 128.09919 
L 88.492125 131.33563 
L 88.610202 133.235249 
L 89.577954 131.33563 
L 89.915261 129.636364 
L 90.050707 131.33563 
L 90.909953 133.235249 
L 91.430474 131.33563 
L 91.931675 133.235249 
L 93.960777 135.388859 
L 95.104875 133.235249 
L 95.275975 135.388859 
L 96.828164 137.875019 
L 97.014468 140.815523 
L 97.733663 133.235249 
L 98.146333 135.388859 
L 98.978542 133.235249 
L 99.138341 135.388859 
L 99.766109 137.875019 
L 100.187621 140.815523 
L 101.022077 137.875019 
L 101.359246 133.235249 
L 101.957195 135.388859 
L 102.129769 137.875019 
L 102.933612 135.388859 
L 103.167217 137.875019 
L 103.650518 135.388859 
L 103.894118 133.235249 
L 107.941096 135.388859 
L 108.915565 133.235249 
L 109.125267 135.388859 
L 110.555767 133.235249 
L 115.213577 135.388859 
L 115.60999 137.875019 
L 116.506405 140.815523 
L 116.954114 137.875019 
L 117.622939 140.815523 
L 119.063183 144.414409 
L 121.467538 140.815523 
L 121.602102 144.414409 
L 122.186914 140.815523 
L 123.452697 137.875019 
L 124.888608 135.388859 
L 125.460228 129.636364 
L 126.440491 128.09919 
L 126.702788 129.636364 
L 128.671362 131.33563 
L 128.842025 129.636364 
L 129.226077 128.09919 
L 129.822271 126.69586 
L 131.213333 125.404922 
L 131.326111 126.69586 
L 131.710319 125.404922 
L 131.851442 124.2097 
L 133.520482 122.05609 
L 133.629822 123.096975 
L 133.630876 122.05609 
L 134.182332 123.096975 
L 134.975022 122.05609 
L 135.960896 121.078329 
L 136.22906 120.156471 
L 136.348184 119.284469 
L 136.630674 118.457204 
L 136.746056 119.284469 
L 137.424903 118.457204 
L 137.638521 117.670311 
L 137.760036 118.457204 
L 137.774378 117.670311 
L 138.096461 116.92003 
L 138.381158 115.516701 
L 138.725783 114.858319 
L 139.528574 115.516701 
L 139.551232 114.858319 
L 139.805968 114.225762 
L 139.959009 114.858319 
L 139.983272 115.516701 
L 140.158628 114.858319 
L 140.532987 116.203107 
L 140.614986 115.516701 
L 141.463914 116.203107 
L 141.678424 116.92003 
L 141.738362 117.670311 
L 142.048379 116.92003 
L 142.492224 117.670311 
L 142.913908 116.92003 
L 143.432216 114.858319 
L 143.634853 115.516701 
L 143.929457 114.858319 
L 144.602126 114.225762 
L 144.630744 113.617082 
L 144.917058 114.858319 
L 146.168646 115.516701 
L 146.793205 113.617082 
L 146.871783 113.03054 
L 147.071688 113.617082 
L 147.462714 113.03054 
L 148.436815 112.464583 
L 148.628075 111.917815 
L 149.10997 111.388977 
L 149.352938 111.917815 
L 149.454273 112.464583 
L 149.799275 113.03054 
L 150.263677 112.464583 
L 150.303274 113.03054 
L 151.192248 113.617082 
L 151.410677 113.03054 
L 151.926904 113.617082 
L 151.970208 114.225762 
L 152.731501 113.617082 
L 153.053461 113.03054 
L 153.285491 113.617082 
L 153.3013 114.225762 
L 153.34619 113.617082 
L 153.655883 113.03054 
L 153.881726 113.617082 
L 153.967705 113.03054 
L 154.507467 112.464583 
L 154.513886 111.917815 
L 154.767454 111.388977 
L 155.127546 111.917815 
L 155.24802 111.388977 
L 155.386274 112.464583 
L 156.14742 111.917815 
L 157.287404 110.87693 
L 157.653559 111.388977 
L 157.671676 111.917815 
L 157.817842 112.464583 
L 157.840008 113.617082 
L 157.950148 113.03054 
L 158.000636 113.617082 
L 158.015024 113.03054 
L 158.289046 113.617082 
L 158.366255 114.225762 
L 158.473667 113.617082 
L 158.493593 114.225762 
L 158.503807 113.617082 
L 158.565981 113.03054 
L 159.580637 113.617082 
L 159.879714 112.464583 
L 160.830649 113.617082 
L 160.885631 113.03054 
L 161.192971 113.617082 
L 161.400261 113.03054 
L 161.422201 112.464583 
L 161.79542 113.03054 
L 162.002475 110.87693 
L 162.108014 110.380641 
L 162.112613 110.87693 
L 162.795468 109.431655 
L 162.798193 108.977312 
L 163.159537 108.535418 
L 163.281509 109.431655 
L 163.766261 108.977312 
L 164.019006 109.431655 
L 164.022306 108.977312 
L 164.482086 109.899169 
L 164.621503 109.431655 
L 165.041356 108.977312 
L 165.202413 109.431655 
L 165.224831 108.977312 
L 165.509644 108.535418 
L 165.812214 108.977312 
L 165.873086 108.105309 
L 166.043974 108.535418 
L 166.358789 108.105309 
L 166.455614 107.686373 
L 166.835703 108.105309 
L 167.001662 108.535418 
L 167.165913 108.105309 
L 167.174589 107.686373 
L 167.223995 108.105309 
L 167.483405 107.686373 
L 167.779429 108.535418 
L 167.809622 108.105309 
L 167.848384 108.535418 
L 167.864087 108.977312 
L 168.0538 109.899169 
L 168.152089 110.380641 
L 168.567807 110.87693 
L 169.149405 110.380641 
L 169.311571 109.899169 
L 169.504515 110.380641 
L 169.859557 108.535418 
L 170.181785 108.977312 
L 170.329087 108.535418 
L 170.57918 108.977312 
L 170.64067 109.431655 
L 170.708775 108.977312 
L 170.749975 109.431655 
L 170.936457 110.380641 
L 171.034519 109.899169 
L 171.187205 110.380641 
L 171.213424 109.899169 
L 171.959713 109.431655 
L 172.169492 108.977312 
L 172.217103 108.535418 
L 172.390595 108.977312 
L 172.394123 108.535418 
L 172.471283 108.977312 
L 172.514007 108.535418 
L 172.931158 108.105309 
L 173.005072 107.686373 
L 173.070479 108.105309 
L 173.227603 107.686373 
L 173.525465 108.105309 
L 173.925029 107.686373 
L 174.039018 107.278045 
L 174.56054 107.686373 
L 174.663877 108.105309 
L 175.433773 106.491151 
L 175.488628 106.8798 
L 175.727214 105.740871 
L 175.785381 105.378426 
L 176.374557 104.677093 
L 176.406783 105.023948 
L 176.435233 104.677093 
L 176.526284 104.337541 
L 176.678211 105.023948 
L 176.770386 104.677093 
L 176.99946 105.023948 
L 177.094228 105.378426 
L 177.207659 105.023948 
L 177.210444 105.378426 
L 177.492247 105.740871 
L 177.528465 106.111649 
L 177.812525 105.740871 
L 177.812912 105.378426 
L 178.551161 104.677093 
L 178.739529 103.679159 
L 179.39876 104.004991 
L 179.760131 103.679159 
L 179.792657 104.004991 
L 179.96599 104.337541 
L 180.328254 104.004991 
L 180.406496 103.679159 
L 180.470104 104.004991 
L 181.022956 103.679159 
L 181.104588 104.004991 
L 181.494072 102.739392 
L 181.850934 103.35978 
L 181.883093 103.046603 
L 182.108573 103.35978 
L 182.270794 104.004991 
L 182.393169 103.35978 
L 182.515118 103.679159 
L 183.088909 102.739392 
L 183.353358 102.437923 
L 183.457117 102.739392 
L 183.759182 102.437923 
L 183.879528 103.35978 
L 183.912497 103.046603 
L 183.995301 102.739392 
L 184.196474 103.35978 
L 184.26726 103.046603 
L 184.38032 103.35978 
L 184.472034 103.046603 
L 184.521305 103.35978 
L 184.571046 103.046603 
L 184.575083 102.739392 
L 185.102924 103.046603 
L 185.12732 103.35978 
L 185.309311 103.679159 
L 185.323773 104.004991 
L 185.48559 104.337541 
L 185.578689 104.004991 
L 186.027017 104.677093 
L 186.353086 105.023948 
L 186.427323 104.677093 
L 186.835378 105.023948 
L 187.083653 104.004991 
L 187.153923 104.337541 
L 187.392914 104.677093 
L 187.472885 104.337541 
L 187.665849 104.677093 
L 187.955664 104.337541 
L 188.298351 103.35978 
L 188.690303 103.046603 
L 188.729084 103.35978 
L 189.004044 103.046603 
L 189.586874 104.677093 
L 189.844359 104.337541 
L 189.958529 104.677093 
L 190.302952 104.004991 
L 190.355506 104.337541 
L 190.477634 104.004991 
L 190.795246 103.679159 
L 190.895472 103.35978 
L 190.917087 103.679159 
L 191.504986 104.004991 
L 191.522242 103.679159 
L 191.799047 103.35978 
L 191.807659 103.679159 
L 192.328656 103.35978 
L 192.521663 102.739392 
L 192.522317 103.046603 
L 192.736793 102.739392 
L 192.740438 103.046603 
L 192.887859 102.739392 
L 193.03393 103.046603 
L 193.32529 102.437923 
L 193.418345 101.851381 
L 193.545845 101.56592 
L 193.800129 102.141986 
L 194.012467 101.851381 
L 194.132036 101.009723 
L 194.782427 100.209818 
L 195.383241 99.697771 
L 195.497511 99.447718 
L 195.573003 99.697771 
L 195.996505 99.201482 
L 196.184451 99.447718 
L 196.308318 99.201482 
L 196.568472 98.958949 
L 196.583172 99.201482 
L 196.625391 98.958949 
L 196.769748 98.72001 
L 196.875945 99.201482 
L 196.9199 99.447718 
L 196.938711 98.958949 
L 196.94679 98.72001 
L 197.099208 99.201482 
L 197.298111 98.958949 
L 197.355217 99.447718 
L 197.415436 99.201482 
L 197.548475 98.958949 
L 197.623777 99.447718 
L 197.718825 99.201482 
L 198.124041 99.447718 
L 198.462061 98.958949 
L 199.046486 98.252496 
L 199.057575 98.484559 
L 199.209019 98.72001 
L 199.432125 98.023724 
L 199.497425 97.575692 
L 199.523274 97.798152 
L 199.759273 97.575692 
L 199.780926 97.798152 
L 199.931607 97.575692 
L 199.934524 97.356258 
L 200.263057 97.798152 
L 200.662572 97.356258 
L 200.686776 97.575692 
L 200.738274 97.798152 
L 200.989369 98.023724 
L 201.114433 98.484559 
L 201.276389 98.252496 
L 201.420355 98.484559 
L 201.440655 98.958949 
L 201.567051 98.72001 
L 201.698867 99.201482 
L 201.833848 99.697771 
L 202.12161 99.951762 
L 202.382904 101.285424 
L 202.444216 101.009723 
L 202.486277 100.738656 
L 202.494509 101.009723 
L 202.615467 100.738656 
L 203.214974 101.285424 
L 203.414169 100.738656 
L 203.584998 100.472069 
L 203.846066 100.738656 
L 203.855766 101.009723 
L 203.888534 100.472069 
L 203.903052 100.738656 
L 204.263649 101.009723 
L 204.824678 100.738656 
L 204.86455 100.472069 
L 204.970865 100.738656 
L 205.05317 100.209818 
L 205.084978 100.472069 
L 205.205147 100.738656 
L 205.378268 100.209818 
L 205.474881 100.738656 
L 205.726287 101.009723 
L 205.883562 100.472069 
L 205.98862 100.209818 
L 206.58654 100.738656 
L 206.889073 100.209818 
L 207.0521 100.472069 
L 207.148856 99.951762 
L 207.405842 99.697771 
L 207.48766 99.447718 
L 207.527338 99.697771 
L 207.769077 100.209818 
L 207.820943 99.951762 
L 208.467514 100.472069 
L 208.766136 100.209818 
L 208.813786 99.951762 
L 208.999377 100.209818 
L 209.071493 99.447718 
L 209.096292 99.697771 
L 209.729136 98.484559 
L 209.905905 98.023724 
L 209.963991 98.252496 
L 210.071032 98.023724 
L 210.174317 98.484559 
L 210.429379 98.252496 
L 210.460958 97.798152 
L 210.63421 98.023724 
L 210.736654 97.798152 
L 210.895855 98.023724 
L 211.014697 97.575692 
L 211.048662 97.356258 
L 211.446062 96.92615 
L 211.722612 97.13977 
L 211.857449 98.023724 
L 211.938402 97.798152 
L 212.112091 98.023724 
L 212.222412 97.798152 
L 212.506954 98.023724 
L 212.52957 98.252496 
L 212.544749 98.023724 
L 212.862092 98.484559 
L 212.925619 98.023724 
L 213.122842 97.798152 
L 213.49761 97.575692 
L 213.723315 97.13977 
L 213.959517 96.92615 
L 213.985876 97.13977 
L 214.229204 97.356258 
L 214.255642 97.575692 
L 214.443724 97.356258 
L 214.46008 97.798152 
L 214.73874 97.575692 
L 215.13155 97.798152 
L 215.215267 97.575692 
L 215.478611 97.356258 
L 215.829111 97.575692 
L 215.861049 97.13977 
L 216.016062 96.92615 
L 216.146822 97.13977 
L 216.242607 96.715322 
L 216.505388 96.507214 
L 216.530814 96.301758 
L 216.652957 96.507214 
L 216.654022 96.301758 
L 216.721316 95.898534 
L 216.862704 96.098885 
L 217.174457 95.505145 
L 217.571758 95.898534 
L 217.624253 95.70064 
L 217.799421 95.898534 
L 217.966469 95.311992 
L 218.011984 95.505145 
L 218.143723 95.311992 
L 218.411805 95.898534 
L 218.413014 96.098885 
L 218.484316 95.898534 
L 218.549421 95.70064 
L 218.76608 95.505145 
L 218.857338 95.70064 
L 218.870313 95.505145 
L 218.899704 95.311992 
L 219.196528 94.746035 
L 219.335305 94.561712 
L 219.415575 94.379471 
L 219.418628 94.561712 
L 219.431615 94.746035 
L 219.511903 94.379471 
L 220.031773 94.199267 
L 220.090979 94.561712 
L 220.128916 94.379471 
L 220.307018 94.199267 
L 220.361652 94.379471 
L 220.364506 94.199267 
L 220.547431 93.844788 
L 220.592847 94.199267 
L 220.848026 94.379471 
L 220.943825 94.199267 
L 220.989795 94.021054 
L 221.175298 94.561712 
L 221.228036 94.379471 
L 221.300369 94.932489 
L 221.553416 94.199267 
L 221.873681 94.932489 
L 221.915541 94.746035 
L 222.003751 94.379471 
L 222.281285 94.561712 
L 222.307293 94.746035 
L 222.478191 94.561712 
L 222.861548 95.505145 
L 223.145886 95.311992 
L 223.262726 95.121124 
L 223.486952 95.311992 
L 223.518166 95.121124 
L 223.524524 95.311992 
L 223.734686 94.932489 
L 223.74659 95.121124 
L 223.897796 94.932489 
L 223.917876 95.121124 
L 223.973903 94.932489 
L 224.12791 94.379471 
L 224.241589 94.021054 
L 224.254096 94.199267 
L 224.457609 94.561712 
L 224.511061 94.379471 
L 224.528223 94.561712 
L 224.757978 94.199267 
L 224.804515 93.844788 
L 224.942437 93.670429 
L 225.088629 93.844788 
L 225.372899 92.662093 
L 225.578341 93.158382 
L 225.634228 92.99125 
L 226.129878 92.662093 
L 226.157564 92.33952 
L 226.264269 92.5 
L 226.332713 92.33952 
L 226.339994 92.5 
L 226.50172 92.662093 
L 226.540052 92.5 
L 226.662264 92.662093 
L 226.666346 92.5 
L 226.942546 92.023272 
L 227.087382 91.713106 
L 227.326749 91.408793 
L 227.480388 91.110116 
L 227.521666 90.962826 
L 227.536146 91.110116 
L 227.621612 91.258763 
L 227.679343 91.110116 
L 227.752809 91.258763 
L 227.878989 91.110116 
L 227.888033 91.258763 
L 227.902455 91.408793 
L 227.965684 91.258763 
L 228.042783 91.110116 
L 228.116418 91.258763 
L 228.176672 91.110116 
L 228.363126 90.962826 
L 228.464176 90.52886 
L 228.617642 90.816869 
L 228.698514 90.672222 
L 229.367024 89.425652 
L 229.432913 89.559496 
L 229.453825 89.425652 
L 229.610841 89.161251 
L 229.732933 89.29291 
L 229.783546 89.030658 
L 229.847963 89.161251 
L 229.888682 89.29291 
L 229.934134 89.161251 
L 230.033192 88.901115 
L 230.275929 89.29291 
L 230.517605 88.901115 
L 230.577661 89.161251 
L 230.876008 88.772603 
L 230.907819 88.901115 
L 231.096091 89.161251 
L 231.21078 89.030658 
L 231.247338 89.29291 
L 231.313442 89.030658 
L 231.576884 89.29291 
L 231.633247 89.161251 
L 232.077553 88.518612 
L 232.203622 88.645107 
L 232.928868 88.144971 
L 233.146407 87.540851 
L 233.269762 87.422695 
L 233.312188 87.540851 
L 233.38417 87.422695 
L 233.484258 87.305399 
L 233.675642 87.540851 
L 233.742975 87.422695 
L 234.089761 87.18895 
L 234.091647 87.305399 
L 234.193756 87.422695 
L 234.867852 86.958545 
L 235.027271 87.073336 
L 235.306772 86.507379 
L 235.395484 86.396533 
L 235.447487 86.286443 
L 235.507961 86.396533 
L 235.525743 86.507379 
L 235.56445 86.396533 
L 235.909276 86.177099 
L 235.9416 86.068492 
L 236.006333 86.177099 
L 236.198264 86.286443 
L 236.450564 85.74699 
L 236.546662 86.068492 
L 236.687769 86.286443 
L 236.713521 86.068492 
L 237.021007 85.536162 
L 237.152912 85.641232 
L 237.303074 85.536162 
L 237.435851 85.74699 
L 237.578574 85.431773 
L 237.704063 85.536162 
L 237.849483 85.224999 
L 237.946326 85.431773 
L 238.050058 85.641232 
L 238.181531 85.431773 
L 238.209212 85.536162 
L 238.287911 85.853447 
L 238.308006 85.960611 
L 238.393517 85.853447 
L 238.515861 85.641232 
L 238.58549 85.74699 
L 238.99592 85.328055 
L 239.279763 85.536162 
L 239.31452 85.328055 
L 239.349341 85.431773 
L 239.583063 85.853447 
L 239.62176 85.74699 
L 239.633541 85.641232 
L 239.802754 85.536162 
L 239.830912 85.641232 
L 240.024889 85.74699 
L 240.159512 85.641232 
L 240.173106 85.74699 
L 240.401069 86.068492 
L 240.403273 86.177099 
L 240.517643 86.068492 
L 240.835375 86.177099 
L 240.839677 86.068492 
L 240.904444 85.74699 
L 240.924493 85.853447 
L 240.991051 85.960611 
L 241.045468 85.853447 
L 241.097719 85.641232 
L 241.271887 85.536162 
L 241.31604 85.74699 
L 241.3743 85.641232 
L 241.458266 85.431773 
L 241.566458 85.641232 
L 241.580116 85.536162 
L 241.991935 85.224999 
L 242.015138 85.328055 
L 242.020785 85.224999 
L 242.090746 85.122598 
L 242.091814 85.224999 
L 242.226728 85.431773 
L 242.354625 85.328055 
L 242.404562 85.431773 
L 242.794087 85.224999 
L 242.929746 85.020843 
L 243.025753 85.122598 
L 243.205784 85.020843 
L 243.20977 85.122598 
L 243.263046 85.224999 
L 243.28354 85.122598 
L 243.649009 84.521481 
L 243.715242 84.132833 
L 244.144709 83.659833 
L 244.331686 83.847372 
L 244.333133 83.75333 
L 244.430622 83.566876 
L 244.583628 83.474451 
L 244.586394 83.566876 
L 244.668938 83.75333 
L 244.687683 83.659833 
L 244.750255 83.474451 
L 244.765691 83.566876 
L 244.935764 83.75333 
L 244.979732 83.659833 
L 245.0992 83.474451 
L 245.119556 83.566876 
L 245.414921 83.659833 
L 245.541181 83.474451 
L 245.621612 83.566876 
L 245.655931 83.474451 
L 245.872799 83.659833 
L 245.896271 83.474451 
L 246.008899 83.291175 
L 246.228417 83.659833 
L 246.439207 83.382552 
L 246.652611 83.109958 
L 246.697942 82.930755 
L 246.763157 83.020107 
L 246.894916 82.753521 
L 246.947661 82.841894 
L 246.967534 82.753521 
L 247.049947 82.578214 
L 247.201858 82.665629 
L 247.237512 82.578214 
L 247.294764 82.404791 
L 247.368076 82.491269 
L 247.628522 82.063443 
L 247.793703 81.89544 
L 247.838469 81.979223 
L 247.884613 81.89544 
L 247.989739 81.482934 
L 248.0986 81.564595 
L 248.2391 81.729169 
L 248.298809 81.564595 
L 248.372416 81.646672 
L 248.615864 81.160361 
L 248.866103 81.564595 
L 248.904142 81.482934 
L 248.988601 81.564595 
L 249.083986 81.646672 
L 249.094643 81.564595 
L 249.124005 81.320841 
L 249.352686 81.160361 
L 249.399127 81.080715 
L 249.4803 81.001462 
L 249.673019 81.160361 
L 249.790086 81.080715 
L 249.797446 81.160361 
L 249.907246 81.320841 
L 249.920916 81.160361 
L 250.285647 80.533947 
L 250.518879 80.610931 
L 250.537041 80.533947 
L 250.654164 80.229634 
L 250.692625 80.457329 
L 250.894397 80.305176 
L 250.895739 80.381073 
L 250.901497 80.457329 
L 250.95729 80.305176 
L 250.995125 80.381073 
L 251.150148 80.229634 
L 251.18272 80.305176 
L 251.240926 80.381073 
L 251.289339 80.305176 
L 251.427786 80.229634 
L 251.462508 80.305176 
L 251.496382 80.457329 
L 251.636716 80.381073 
L 251.671239 80.457329 
L 251.751098 80.533947 
L 251.973868 80.922595 
L 252.039274 81.160361 
L 252.107414 81.001462 
L 252.556371 80.154444 
L 252.635582 80.229634 
L 252.768728 80.457329 
L 252.794662 80.381073 
L 252.840443 80.305176 
L 253.04975 80.610931 
L 253.089551 80.688284 
L 253.118767 80.533947 
L 253.18279 80.457329 
L 253.199745 80.533947 
L 253.312092 80.76601 
L 253.665039 80.457329 
L 253.678578 80.533947 
L 253.728222 80.610931 
L 253.873735 80.457329 
L 253.890413 80.533947 
L 254.075912 80.688284 
L 254.20139 80.457329 
L 254.274574 80.381073 
L 254.436718 80.457329 
L 254.458283 80.381073 
L 254.642728 80.154444 
L 254.669973 80.229634 
L 254.885955 80.457329 
L 254.917643 80.305176 
L 255.004344 80.005109 
L 255.077421 80.229634 
L 255.134506 80.381073 
L 255.188534 80.305176 
L 255.216911 80.229634 
L 255.309095 80.305176 
L 255.331516 80.229634 
L 255.346807 80.154444 
L 255.417614 80.305176 
L 255.613054 80.533947 
L 255.62147 80.457329 
L 255.70308 80.610931 
L 255.78431 80.844113 
L 255.890565 80.922595 
L 255.893862 80.844113 
L 255.990324 80.688284 
L 256.051455 80.844113 
L 256.125669 81.001462 
L 256.182102 80.844113 
L 256.276184 80.533947 
L 256.420995 80.305176 
L 256.421396 80.229634 
L 256.500337 80.381073 
L 256.521627 80.305176 
L 256.606662 80.229634 
L 256.651238 80.305176 
L 256.65594 80.381073 
L 256.974345 80.079604 
L 257.083697 79.930957 
L 257.212848 80.079604 
L 257.225468 80.005109 
L 257.324016 79.783667 
L 257.336386 79.857144 
L 257.377735 79.63771 
L 257.457554 79.783667 
L 257.484954 79.857144 
L 257.534021 79.710523 
L 257.651733 79.783667 
L 257.669912 79.710523 
L 257.696591 79.63771 
L 257.70413 79.783667 
L 257.780452 79.710523 
L 257.863744 79.783667 
L 258.069558 79.63771 
L 258.08796 79.710523 
L 258.104252 79.783667 
L 258.175903 79.63771 
L 258.191734 79.493062 
L 258.214011 79.565224 
L 258.307553 79.63771 
L 258.353181 79.565224 
L 258.370979 79.421222 
L 258.422849 79.493062 
L 258.505576 79.421222 
L 258.512255 79.493062 
L 258.524349 79.565224 
L 258.665875 79.710523 
L 258.683713 79.63771 
L 258.821503 79.421222 
L 258.869929 79.278494 
L 259.006436 79.421222 
L 259.055799 79.278494 
L 259.097906 79.207601 
L 259.191156 79.278494 
L 259.194886 79.207601 
L 259.324787 79.066744 
L 259.378902 79.137019 
L 259.396804 78.996773 
L 259.412371 78.857737 
L 259.479729 78.996773 
L 259.806945 79.137019 
L 259.939241 78.927105 
L 259.945313 78.996773 
L 260.073341 79.066744 
L 260.099326 78.996773 
L 260.259251 78.719889 
L 260.37755 78.857737 
L 260.415802 78.788666 
L 260.556659 78.583209 
L 260.595798 78.719889 
L 260.65834 78.927105 
L 260.681656 78.788666 
L 260.991411 78.447678 
L 261.081646 78.246493 
L 261.351103 78.380337 
L 261.362739 78.313276 
L 261.385711 78.246493 
L 261.451003 78.380337 
L 261.536851 78.447678 
L 261.557567 78.380337 
L 261.62877 78.515301 
L 261.662817 78.447678 
L 261.812476 78.113751 
L 261.861773 78.179985 
L 262.190411 77.916663 
L 262.206184 77.982092 
L 262.301582 78.047787 
L 262.554341 77.786597 
L 262.772242 77.339452 
L 263.01492 77.339452 
L 263.099675 77.15155 
L 263.339371 76.782187 
L 263.389902 76.721441 
L 263.482137 76.660923 
L 263.495518 76.721441 
L 263.526654 76.782187 
L 263.530576 76.660923 
L 263.558754 76.600631 
L 263.584452 76.660923 
L 263.676719 76.721441 
L 263.681459 76.660923 
L 263.796329 76.540563 
L 264.215978 76.782187 
L 264.359074 76.721441 
L 264.564569 76.843163 
L 264.722229 76.480718 
L 264.751987 76.540563 
L 264.877747 76.721441 
L 265.019639 76.843163 
L 265.025535 76.782187 
L 265.142392 76.660923 
L 265.080966 76.843163 
L 265.151839 76.782187 
L 265.308075 76.904371 
L 265.31506 76.843163 
L 265.399886 76.600631 
L 265.420626 76.660923 
L 265.546502 76.480718 
L 265.687157 76.480718 
L 265.710917 76.540563 
L 265.712294 76.480718 
L 266.174244 76.421095 
L 266.345022 76.660923 
L 266.377944 76.600631 
L 266.398022 76.782187 
L 266.414646 76.721441 
L 266.573869 76.600631 
L 266.589364 76.660923 
L 266.676174 76.782187 
L 266.683025 76.721441 
L 266.90308 76.480718 
L 266.962256 76.540563 
L 267.009731 76.480718 
L 267.09715 76.243536 
L 267.264431 76.243536 
L 267.386504 76.06791 
L 267.40986 76.12624 
L 267.996159 75.836679 
L 268.008095 75.894177 
L 268.023819 75.95188 
L 268.042837 75.894177 
L 268.28392 75.608716 
L 268.322764 75.779385 
L 268.575898 75.95188 
L 268.743291 75.836679 
L 268.760501 75.894177 
L 268.960308 76.009791 
L 268.969893 75.95188 
L 269.272966 75.608716 
L 269.278 75.665405 
L 269.356767 75.722295 
L 269.373054 75.665405 
L 269.466083 75.608716 
L 269.501506 75.665405 
L 269.588336 75.608716 
L 269.623192 75.722295 
L 269.652374 75.665405 
L 269.67141 75.779385 
L 269.736528 75.836679 
L 269.744253 75.779385 
L 269.917066 75.722295 
L 270.057833 75.608716 
L 270.074877 75.665405 
L 270.152602 75.894177 
L 270.204514 75.779385 
L 270.276248 75.722295 
L 270.303894 75.779385 
L 270.512215 76.009791 
L 270.523839 75.95188 
L 270.733297 75.722295 
L 270.859043 75.779385 
L 271.051516 75.665405 
L 271.385512 75.894177 
L 271.42739 76.009791 
L 271.496039 75.95188 
L 271.685899 75.608716 
L 271.758976 75.665405 
L 271.910724 75.894177 
L 271.95419 75.836679 
L 272.09377 75.722295 
L 272.158852 75.779385 
L 272.181844 75.722295 
L 272.290136 75.38393 
L 272.313116 75.439834 
L 272.631475 75.217373 
L 272.738761 74.99794 
L 272.954499 74.674288 
L 273.056258 74.835302 
L 273.106099 74.781452 
L 273.219372 74.567831 
L 273.2738 74.674288 
L 273.320058 74.567831 
L 273.432557 74.357003 
L 273.552007 74.148895 
L 273.57395 74.200671 
L 273.645842 74.304724 
L 273.67405 74.200671 
L 273.840508 73.943439 
L 273.875759 74.04584 
L 273.946557 73.943439 
L 274.038986 73.59007 
L 274.112395 73.64008 
L 274.172497 73.740567 
L 274.221999 73.690245 
L 274.386501 73.740567 
L 274.391739 73.690245 
L 274.552751 73.540215 
L 274.607185 73.59007 
L 274.639496 73.490513 
L 274.756335 73.490513 
L 274.786805 73.540215 
L 274.822634 73.440965 
L 274.866659 73.391568 
L 274.883302 73.440965 
L 275.03219 73.490513 
L 275.080058 73.342321 
L 275.128901 73.490513 
L 275.147953 73.59007 
L 275.155602 73.540215 
L 275.583438 73.195479 
L 275.714879 73.098321 
L 275.716719 73.146827 
L 275.833799 73.342321 
L 276.066049 73.195479 
L 276.589381 73.391568 
L 276.59612 73.293225 
L 276.676235 73.146827 
L 276.816037 73.293225 
L 276.859194 73.195479 
L 276.975793 72.953673 
L 277.135191 72.574171 
L 277.267498 72.341438 
L 277.277154 72.387716 
L 277.438148 72.249277 
L 277.460112 72.387716 
L 277.541557 72.480674 
L 277.486819 72.341438 
L 277.559514 72.387716 
L 277.674954 72.249277 
L 277.764827 72.387716 
L 277.802381 72.295291 
L 277.867217 72.06652 
L 277.880048 72.021152 
L 277.92481 72.112015 
L 277.936058 72.112015 
L 277.972858 72.157639 
L 278.024498 72.112015 
L 278.362721 71.840948 
L 278.39124 71.885811 
L 278.4394 71.930799 
L 278.745098 71.840948 
L 278.755663 71.885811 
L 278.799574 72.021152 
L 278.817406 71.930799 
L 278.885882 71.975912 
L 278.914603 71.885811 
L 278.938424 71.79621 
L 278.983061 72.021152 
L 279.145925 72.157639 
L 279.168911 72.06652 
L 279.231217 71.885811 
L 279.265444 71.975912 
L 279.469932 72.112015 
L 279.582179 72.112015 
L 279.662271 72.157639 
L 279.664093 72.06652 
L 279.94359 71.707104 
L 280.046619 71.79621 
L 280.090485 71.751595 
L 280.159181 71.618488 
L 280.180349 71.662735 
L 280.383509 71.48647 
L 280.440206 71.442703 
L 280.46035 71.530356 
L 280.491373 71.618488 
L 280.554213 71.530356 
L 280.705228 71.355523 
L 280.714292 71.399054 
L 280.775856 71.182566 
L 280.846617 71.225632 
L 280.919811 71.096778 
L 280.982987 71.182566 
L 281.019818 71.054055 
L 281.197729 70.884283 
L 281.247714 70.926559 
L 281.33429 71.096778 
L 281.377739 71.011444 
L 281.449726 70.716281 
L 281.476864 70.758117 
L 281.57972 70.632931 
L 281.623207 70.674552 
L 281.641645 70.716281 
L 281.677865 70.55001 
L 281.804646 70.385436 
L 281.879244 70.426422 
L 281.892622 70.344553 
L 282.080302 70.141681 
L 282.218808 70.222524 
L 282.260125 70.182052 
L 282.301882 70.141681 
L 282.341506 70.222524 
L 282.464789 70.426422 
L 282.494863 70.467513 
L 282.518623 70.385436 
L 282.556017 70.385436 
L 282.565055 70.344553 
L 282.619649 70.467513 
L 282.645293 70.467513 
L 283.069934 70.263098 
L 283.450961 70.591417 
L 283.459573 70.55001 
L 283.513502 70.674552 
L 283.559991 70.591417 
L 283.56445 70.632931 
L 283.641738 70.55001 
L 283.817079 70.426422 
L 284.589267 70.101411 
L 284.691894 70.141681 
L 284.700077 70.101411 
L 285.119839 69.86188 
L 285.267051 70.021172 
L 285.301953 69.981201 
L 285.45943 69.86188 
L 285.498835 69.941329 
L 285.550335 69.901556 
L 285.640885 70.061242 
L 285.642266 70.021172 
L 285.672001 70.101411 
L 285.715216 70.061242 
L 286.354361 69.664953 
L 286.36158 69.704147 
L 286.656977 69.664953 
L 286.658489 69.704147 
L 286.755353 69.822302 
L 286.767823 69.782821 
L 286.81307 69.664953 
L 286.874698 69.782821 
L 286.97414 69.941329 
L 287.005037 69.86188 
L 287.444333 69.316433 
L 287.599335 69.201913 
L 287.71167 69.126016 
L 287.752029 69.201913 
L 287.787696 69.278169 
L 287.858358 69.201913 
L 287.949714 68.937821 
L 287.960163 68.975285 
L 288.074762 69.050475 
L 288.095177 68.975285 
L 288.336167 68.714848 
L 288.386654 68.788831 
L 288.420635 68.677984 
L 288.630437 68.458551 
L 288.731655 68.277943 
L 288.752752 68.313903 
L 289.051097 68.063849 
L 289.205599 68.134899 
L 289.231585 68.099335 
L 289.247745 68.206262 
L 289.282825 68.277943 
L 289.356853 68.170541 
L 289.545465 68.134899 
L 289.566836 68.170541 
L 289.626974 68.063849 
L 289.638368 67.993112 
L 289.723817 68.134899 
L 289.840492 68.313903 
L 289.851058 68.242063 
L 289.962914 68.206262 
L 290.059946 68.277943 
L 290.085852 68.242063 
L 290.63793 67.747946 
L 290.652425 67.817614 
L 290.799977 67.817614 
L 290.813135 67.747946 
L 290.925244 67.713224 
L 290.93686 67.747946 
L 291.013191 67.852561 
L 291.208833 67.609506 
L 291.21375 67.575081 
L 291.24364 67.644005 
L 291.250543 67.644005 
L 291.479401 67.678578 
L 291.481898 67.644005 
L 291.664245 67.40405 
L 291.542538 67.713224 
L 291.694084 67.438111 
L 291.753806 67.575081 
L 291.804406 67.506451 
L 291.964794 67.302295 
L 291.984722 67.37006 
L 292.199852 67.472245 
L 292.206061 67.40405 
L 292.291806 67.54073 
L 292.455093 67.713224 
L 292.46992 67.644005 
L 292.47137 67.609506 
L 292.534493 67.782742 
L 292.567285 67.713224 
L 293.297225 67.302295 
L 293.520275 67.472245 
L 293.536118 67.40405 
L 293.577908 67.506451 
L 293.612087 67.506451 
L 293.625036 67.575081 
L 293.694928 67.506451 
L 293.801558 67.40405 
L 293.836317 67.472245 
L 293.880175 67.54073 
L 293.923477 67.472245 
L 294.138236 67.336142 
L 294.163047 67.37006 
L 294.352802 67.40405 
L 294.35408 67.37006 
L 294.635692 67.134117 
L 294.86904 67.234813 
L 294.874374 67.201178 
L 294.960127 67.134117 
L 295.003565 67.167612 
L 295.00487 67.201178 
L 295.093298 67.034045 
L 295.099021 67.067334 
L 295.144551 67.167612 
L 295.183403 67.067334 
L 295.41997 66.868627 
L 295.46453 66.934591 
L 295.629374 66.934591 
L 295.653293 66.901576 
L 295.662628 66.967674 
L 295.710575 67.000826 
L 296.018382 66.934591 
L 296.044831 67.034045 
L 296.130099 67.000826 
L 296.221746 67.100691 
L 296.241711 67.067334 
L 296.423788 67.000826 
L 296.471685 67.201178 
L 296.523414 67.167612 
L 296.615581 67.201178 
L 296.622942 67.167612 
L 296.765782 67.067334 
L 296.772112 67.100691 
L 296.857156 66.967674 
L 296.940105 66.934591 
L 296.919103 67.000826 
L 296.948902 67.000826 
L 297.01575 67.134117 
L 297.081199 67.067334 
L 297.193941 67.067334 
L 297.296263 67.100691 
L 297.32256 67.034045 
L 297.426275 67.000826 
L 297.462359 66.934591 
L 297.513523 67.000826 
L 297.622278 67.034045 
L 297.626706 67.000826 
L 297.751979 66.934591 
L 297.790237 66.967674 
L 297.913577 66.835746 
L 298.117719 66.835746 
L 298.175059 66.770185 
L 298.226713 66.802932 
L 298.231899 66.868627 
L 298.261331 66.737504 
L 298.312935 66.737504 
L 298.626607 66.478412 
L 298.63874 66.510572 
L 298.807065 66.542796 
L 298.838033 66.607438 
L 298.889783 66.446316 
L 299.037983 66.414284 
L 299.144099 66.478412 
L 299.147386 66.446316 
L 299.417146 65.941285 
L 299.509989 66.034782 
L 299.637398 66.318568 
L 299.710309 66.255071 
L 299.804208 66.255071 
L 299.818297 66.286789 
L 299.888073 66.318568 
L 299.846228 66.255071 
L 299.926134 66.286789 
L 300.135063 66.034782 
L 300.187265 66.097415 
L 300.235834 66.034782 
L 300.598915 65.603028 
L 300.60319 65.633487 
L 300.755147 65.755902 
L 300.824346 65.633487 
L 300.876589 65.694579 
L 300.977354 65.725211 
L 300.99704 65.694579 
L 301.119032 65.511994 
L 301.420563 65.331454 
L 301.427646 65.361404 
L 301.51946 65.451589 
L 301.542314 65.421471 
L 301.683787 65.391409 
L 302.066129 65.212206 
L 302.197164 65.212206 
L 302.283094 65.123346 
L 302.30042 65.212206 
L 302.516196 65.27172 
L 302.600891 65.212206 
L 302.626674 65.27172 
L 302.643316 65.331454 
L 302.668862 65.123346 
L 302.675515 65.123346 
L 302.734493 65.152912 
L 302.757285 65.064377 
L 302.856764 64.917889 
L 302.870758 64.947081 
L 302.985193 64.859665 
L 302.899924 65.005622 
L 302.985582 64.888751 
L 303.087081 64.859665 
L 303.214309 64.859665 
L 303.221082 64.888751 
L 303.251424 64.917889 
L 303.2487 64.859665 
L 303.335974 64.888751 
L 303.358886 64.917889 
L 303.428801 64.830632 
L 303.751252 64.65752 
L 303.761569 64.715017 
L 303.961486 64.830632 
L 304.535626 64.316772 
L 304.541195 64.344894 
L 304.596307 64.288699 
L 304.693507 64.373066 
L 304.807012 64.288699 
L 304.892242 64.316772 
L 304.909618 64.260674 
L 304.914399 64.232698 
L 304.95332 64.344894 
L 305.005509 64.260674 
L 305.375408 63.900718 
L 305.502672 63.737256 
L 305.53849 63.79156 
L 305.654407 63.79156 
L 305.654521 63.764385 
L 305.791885 63.575434 
L 305.843808 63.602292 
L 305.928604 63.710173 
L 305.955666 63.629195 
L 306.052718 63.656142 
L 306.064394 63.629195 
L 306.277338 63.495128 
L 306.316572 63.575434 
L 306.320111 63.602292 
L 306.408877 63.441812 
L 306.557901 63.602292 
L 306.611211 63.388672 
L 306.659903 63.41522 
L 306.906493 63.575434 
L 306.914571 63.548621 
L 307.037943 63.495128 
L 307.05614 63.548621 
L 307.18637 63.656142 
L 307.35317 63.362167 
L 307.35578 63.388672 
L 307.383004 63.441812 
L 307.442533 63.362167 
L 307.462615 63.41522 
L 307.580805 63.388672 
L 307.608312 63.41522 
L 307.616962 63.335706 
L 307.642497 63.335706 
L 307.789017 63.256581 
L 307.691478 63.388672 
L 307.82691 63.309288 
L 307.951151 63.441812 
L 308.072388 63.256581 
L 308.087482 63.309288 
L 308.153057 63.309288 
L 308.171353 63.256581 
L 308.186521 63.230293 
L 308.241339 63.309288 
L 308.253867 63.309288 
L 308.312487 63.309288 
L 308.277999 63.282913 
L 308.331628 63.256581 
L 308.617038 62.918126 
L 308.637321 63.047462 
L 308.677595 63.125564 
L 308.739246 63.047462 
L 308.933843 62.94391 
L 308.968353 62.995603 
L 309.005909 62.918126 
L 309.027035 62.918126 
L 309.157479 62.764279 
L 309.170132 62.789819 
L 309.356637 62.687903 
L 309.386806 62.73878 
L 309.464519 62.815399 
L 309.492732 62.73878 
L 309.600927 62.637186 
L 309.624591 62.713322 
L 309.780494 62.815399 
L 309.962323 62.662524 
L 310.126635 62.789819 
L 310.150157 62.713322 
L 310.207247 62.586627 
L 310.266984 62.713322 
L 310.369531 62.789819 
L 310.395749 62.73878 
L 310.514832 62.637186 
L 310.517975 62.662524 
L 310.550333 62.561407 
L 310.616902 62.687903 
L 310.669503 62.662524 
L 310.763739 62.815399 
L 310.848101 62.764279 
L 310.870314 62.789819 
L 310.904848 62.815399 
L 310.928454 62.713322 
L 311.02082 62.611887 
L 311.031601 62.662524 
L 311.255514 62.815399 
L 311.280804 62.789819 
L 311.313277 62.713322 
L 311.398806 62.73878 
L 311.885019 62.410911 
L 312.039618 62.511086 
L 312.054706 62.485983 
L 312.066197 62.46092 
L 312.088754 62.536227 
L 312.128459 62.536227 
L 312.239682 62.637186 
L 312.277543 62.511086 
L 312.459665 62.261805 
L 312.48554 62.286561 
L 312.608691 62.311354 
L 312.609622 62.336186 
L 312.701868 62.163162 
L 313.319422 61.726585 
L 313.36306 61.750531 
L 313.389488 61.654957 
L 313.564831 61.489053 
L 313.574269 61.512649 
L 313.634231 61.395011 
L 313.6583 61.441964 
L 313.891381 61.301515 
L 314.861392 61.139189 
L 314.965359 61.185401 
L 314.967159 61.162278 
L 315.005135 61.093108 
L 315.072017 61.185401 
L 315.126233 61.208557 
L 315.170723 61.162278 
L 315.215288 61.116132 
L 315.228957 61.185401 
L 315.367352 61.208557 
L 315.382459 61.139189 
L 315.539485 60.932856 
L 315.542117 60.97848 
L 315.5484 61.001341 
L 315.618074 60.88736 
L 315.649192 60.910092 
L 315.672101 60.819357 
L 316.520351 60.329238 
L 316.550685 60.41725 
L 316.793251 60.550175 
L 316.808657 60.527945 
L 317.215858 60.241704 
L 317.259864 60.395202 
L 317.360098 60.439328 
L 317.363593 60.373184 
L 317.366579 60.395202 
L 317.749035 60.132951 
L 317.756781 60.154643 
L 317.763787 60.198115 
L 317.79056 60.111288 
L 317.859053 60.132951 
L 317.972447 60.003407 
L 317.976106 60.024925 
L 318.094189 60.003407 
L 318.18388 59.917619 
L 318.208627 59.960456 
L 318.400044 59.768579 
L 318.43029 59.811021 
L 318.475791 59.939023 
L 318.564049 59.832284 
L 318.712889 59.768579 
L 318.737411 59.874895 
L 318.819493 59.917619 
L 318.773074 59.832284 
L 318.834444 59.853576 
L 319.315414 59.558026 
L 319.326433 59.599917 
L 319.364843 59.516243 
L 319.396398 59.537121 
L 319.555258 59.495393 
L 319.560448 59.516243 
L 319.568219 59.537121 
L 319.589209 59.474569 
L 319.652237 59.474569 
L 319.821266 59.391541 
L 319.826128 59.412258 
L 319.864221 59.453772 
L 319.894664 59.329549 
L 320.011378 59.267795 
L 320.040483 59.288353 
L 320.034903 59.247263 
L 320.103361 59.226757 
L 320.224484 59.023116 
L 320.315288 58.982695 
L 320.317847 58.962522 
L 320.379214 58.922252 
L 320.426578 58.962522 
L 320.483123 58.982695 
L 320.496342 58.882082 
L 320.546622 58.782094 
L 320.59708 58.882082 
L 320.714215 58.882082 
L 320.719801 58.862035 
L 321.145893 58.564276 
L 321.150694 58.583957 
L 321.326922 58.603661 
L 321.524097 58.427182 
L 321.526281 58.466233 
L 321.604674 58.505379 
L 321.635509 58.466233 
L 321.827218 58.524988 
L 321.837114 58.505379 
L 321.92234 58.388225 
L 321.945243 58.466233 
L 321.961541 58.505379 
L 322.045677 58.407692 
L 322.053301 58.427182 
L 322.095179 58.329966 
L 322.145186 58.368782 
L 322.280312 58.388225 
L 322.286183 58.368782 
L 322.321271 58.271916 
L 322.386265 58.368782 
L 323.445639 57.702629 
L 323.540195 57.64679 
L 323.767455 57.388735 
L 323.842115 57.443686 
L 323.907362 57.33397 
L 324.276009 57.152754 
L 324.278856 57.170784 
L 324.390244 57.279391 
L 324.510578 57.315757 
L 324.766381 57.261239 
L 324.771864 57.279391 
L 324.838769 57.315757 
L 324.792092 57.261239 
L 324.879507 57.279391 
L 325.047441 57.297564 
L 325.059589 57.279391 
L 325.131298 57.243107 
L 325.1512 57.33397 
L 325.186176 57.297564 
L 325.265609 57.33397 
L 325.269806 57.297564 
L 325.322103 57.407031 
L 325.372369 57.352205 
L 325.472656 57.33397 
L 325.473161 57.315757 
L 325.584153 57.206905 
L 325.708273 57.152754 
L 325.660488 57.243107 
L 325.712125 57.170784 
L 325.714733 57.188834 
L 325.791037 57.044993 
L 325.803474 57.062903 
L 325.812644 57.044993 
L 325.838389 57.116753 
L 325.895576 57.116753 
L 325.910104 57.152754 
L 325.983654 57.044993 
L 325.99489 57.062903 
L 326.150897 56.866977 
L 326.17001 56.88469 
L 326.251804 56.902423 
L 326.272726 56.849283 
L 326.426022 56.725965 
L 326.427683 56.743524 
L 326.463166 56.7787 
L 326.513596 56.673402 
L 326.516702 56.690904 
L 326.688619 56.725965 
L 326.699354 56.708425 
L 326.728194 56.673402 
L 326.76723 56.796317 
L 326.78358 56.813953 
L 326.803022 56.708425 
L 326.857983 56.725965 
L 326.952988 56.673402 
L 326.975 56.690904 
L 327.161546 56.708425 
L 327.267972 56.586175 
L 327.26914 56.603583 
L 327.409124 56.586175 
L 327.511731 56.482123 
L 327.541762 56.499418 
L 327.562392 56.516732 
L 327.589244 56.430347 
L 327.637923 56.464846 
L 327.68657 56.430347 
L 327.670639 56.482123 
L 327.745167 56.464846 
L 327.809476 56.516732 
L 327.858491 56.447587 
L 327.956406 56.344422 
L 327.971124 56.378737 
L 328.10087 56.430347 
L 328.217113 56.36157 
L 328.217865 56.378737 
L 328.382654 56.258952 
L 328.388616 56.27601 
L 328.463515 56.173933 
L 328.58184 56.089359 
L 328.582522 56.106238 
L 328.587765 56.123135 
L 328.619124 56.038827 
L 328.666305 56.038827 
L 328.736275 56.005227 
L 328.689431 56.005227 
L 328.743685 55.971697 
L 328.869217 55.854886 
L 328.879081 55.871522 
L 329.03801 55.988453 
L 329.062297 55.938236 
L 329.193197 55.838268 
L 329.357408 55.788515 
L 329.36615 55.805082 
L 329.370549 55.821666 
L 329.454207 55.722416 
L 329.540386 55.607391 
L 329.960193 55.509447 
L 330.031433 55.558344 
L 330.081182 55.47693 
L 330.189578 55.299253 
L 330.33003 55.347516 
L 330.350854 55.315324 
L 330.360157 55.299253 
L 330.437763 55.363636 
L 330.454511 55.331412 
L 330.79292 55.139409 
L 330.811507 55.155322 
L 330.817971 55.107629 
L 330.866444 55.060077 
L 331.184763 54.762126 
L 331.205854 54.808806 
L 331.251653 54.840002 
L 331.28218 54.777671 
L 331.299234 54.777671 
L 331.538457 54.793231 
L 331.664183 54.777671 
L 331.677113 54.793231 
L 331.82736 54.793231 
L 331.851832 54.840002 
L 331.930827 54.824396 
L 331.974439 54.871258 
L 332.032197 54.762126 
L 332.046981 54.793231 
L 332.116236 54.71558 
L 332.127385 54.73108 
L 332.135816 54.71558 
L 332.197589 54.793231 
L 332.224103 54.777671 
L 332.279754 54.840002 
L 332.329575 54.762126 
L 332.462667 54.762126 
L 332.463922 54.793231 
L 332.612753 54.762126 
L 332.719089 54.669168 
L 332.808708 54.700094 
L 332.842605 54.669168 
L 333.301658 54.500125 
L 333.383656 54.423869 
L 333.618723 54.257364 
L 333.642478 54.302604 
L 333.743403 54.257364 
L 333.8439 54.227274 
L 333.866426 54.257364 
L 333.884319 54.242312 
L 333.977648 54.257364 
L 334.148667 54.242312 
L 334.148824 54.227274 
L 334.155626 54.21225 
L 334.230245 54.28751 
L 334.236107 54.27243 
L 334.431043 54.27243 
L 334.434074 54.257364 
L 334.678278 54.077661 
L 334.721898 54.167262 
L 334.823836 54.28751 
L 334.838159 54.257364 
L 334.97233 54.182244 
L 335.037586 54.167262 
L 335.063266 54.1224 
L 335.314585 53.988556 
L 335.327614 54.003372 
L 335.42304 53.929424 
L 335.44234 53.944187 
L 335.464991 53.870508 
L 335.506654 53.885217 
L 335.914242 53.826463 
L 335.954503 53.753319 
L 336.010235 53.797165 
L 336.122146 53.724154 
L 336.143112 53.782537 
L 336.229568 53.855813 
L 336.25839 53.841131 
L 336.358847 53.680506 
L 336.363976 53.665982 
L 336.423573 53.73873 
L 336.442556 53.695042 
L 336.66732 53.695042 
L 336.688583 53.73873 
L 336.777493 53.60802 
L 337.488083 53.32129 
L 337.491649 53.335506 
L 337.51799 53.37823 
L 337.586402 53.264551 
L 337.598821 53.292895 
L 337.646183 53.32129 
L 337.707898 53.250397 
L 337.828446 53.264551 
L 337.83026 53.250397 
L 338.265618 52.914383 
L 338.266072 52.928244 
L 338.317129 52.859054 
L 338.37464 52.900533 
L 338.5003 52.707874 
L 338.509379 52.721559 
L 338.537458 52.735256 
L 338.58343 52.666887 
L 338.600982 52.680538 
L 338.972494 52.517489 
L 338.986748 52.54455 
L 339.094801 52.531014 
L 339.098242 52.503976 
L 339.267472 52.382863 
L 339.343703 52.423133 
L 339.290036 52.369462 
L 339.368965 52.342693 
L 339.573501 52.209512 
L 339.671691 52.222781 
L 339.634374 52.156546 
L 339.687255 52.196254 
L 340.831327 51.58512 
L 340.838078 51.597885 
L 340.885288 51.508744 
L 340.918942 51.521448 
L 341.328782 51.394853 
L 341.336756 51.420093 
L 341.410597 51.445372 
L 341.434055 51.432727 
L 341.671447 51.445372 
L 341.676505 51.420093 
L 341.831006 51.357067 
L 341.844339 51.369653 
L 341.995858 51.407468 
L 342.015792 51.382248 
L 342.117968 51.31937 
L 342.02888 51.394853 
L 342.121831 51.331926 
L 342.596238 51.095019 
L 342.598244 51.107401 
L 342.727703 51.132195 
L 342.676573 51.045584 
L 342.73273 51.119793 
L 342.802875 51.144606 
L 342.758769 51.169456 
L 342.820319 51.181896 
L 342.905993 51.219273 
L 342.931928 51.194345 
L 343.27825 51.206804 
L 343.325323 51.244239 
L 343.363281 51.157026 
L 343.385079 51.157026 
L 343.564209 51.070282 
L 343.569764 51.082646 
L 343.604822 51.020923 
L 343.666098 51.033249 
L 343.676425 50.9963 
L 343.74967 51.057928 
L 343.764616 51.020923 
L 343.806154 51.020923 
L 343.845277 50.947166 
L 344.010084 50.898182 
L 344.089448 50.824983 
L 344.115566 50.873745 
L 344.221068 50.788508 
L 344.126136 50.885959 
L 344.230865 50.812815 
L 344.519938 50.595354 
L 344.763249 50.451992 
L 344.83559 50.451992 
L 344.854712 50.404487 
L 345.059491 50.345301 
L 345.068643 50.357121 
L 345.091037 50.392632 
L 345.171165 50.286332 
L 345.171197 50.298108 
L 345.3358 50.239311 
L 345.349047 50.251053 
L 345.393628 50.145679 
L 345.504542 50.040988 
L 345.535618 50.075809 
L 346.085939 49.868 
L 346.243981 49.994676 
L 346.270815 49.948497 
L 346.491932 49.742311 
L 346.525887 49.776492 
L 346.539151 49.810747 
L 346.633133 49.719563 
L 346.811164 49.561221 
L 346.824642 49.583746 
L 346.891284 49.662834 
L 346.937054 49.628892 
L 347.473347 49.426726 
L 347.474918 49.449064 
L 347.574677 49.471433 
L 347.487046 49.437891 
L 347.579719 49.449064 
L 347.79569 49.393277 
L 347.799297 49.404419 
L 347.886986 49.426726 
L 347.842918 49.382142 
L 347.906741 49.404419 
L 348.011377 49.415568 
L 347.943042 49.371016 
L 348.017324 49.404419 
L 348.124566 49.415568 
L 348.708331 49.293343 
L 348.713838 49.326585 
L 348.750853 49.326585 
L 348.778493 49.271219 
L 348.793391 49.293343 
L 349.603004 48.813499 
L 349.714103 48.781296 
L 349.848952 48.653125 
L 350.102224 48.653125 
L 350.362829 48.547088 
L 350.367609 48.557661 
L 350.438393 48.452248 
L 350.724587 48.212381 
L 350.7375 48.233098 
L 350.774607 48.274612 
L 350.836462 48.191691 
L 350.846516 48.212381 
L 350.973797 48.129779 
L 350.880921 48.233098 
L 350.974697 48.140081 
L 351.061457 48.171027 
L 351.012979 48.098912 
L 351.090654 48.160705 
L 351.228471 48.057847 
L 351.257804 48.037354 
L 351.337901 48.037354 
L 351.431165 47.955641 
L 351.435625 47.965832 
L 351.677284 48.016887 
L 351.683407 47.986235 
L 351.825501 47.955641 
L 351.844485 47.97603 
L 351.854075 47.986235 
L 351.893976 47.874339 
L 351.915857 47.894626 
L 352.020561 47.864205 
L 352.033804 47.894626 
L 352.037727 47.904779 
L 352.110698 47.813631 
L 352.113242 47.823733 
L 352.464699 47.662853 
L 352.548985 47.682875 
L 352.480331 47.652851 
L 352.576488 47.672861 
L 352.690088 47.632866 
L 352.814698 47.602934 
L 353.041059 47.48376 
L 353.052791 47.523387 
L 353.129768 47.503562 
L 353.084125 47.48376 
L 353.147479 47.463983 
L 353.216921 47.404798 
L 353.263923 47.463983 
L 354.334232 46.834088 
L 354.343132 46.872148 
L 354.442473 46.843595 
L 354.48689 46.900753 
L 354.550215 46.834088 
L 355.144245 46.579503 
L 355.225354 46.560803 
L 355.240255 46.51415 
L 355.306796 46.551462 
L 355.352425 46.486222 
L 355.466144 46.430512 
L 355.475619 46.449061 
L 355.589113 46.402729 
L 356.141181 46.145702 
L 356.278266 46.109316 
L 356.431772 46.073011 
L 356.582179 46.036789 
L 356.725451 46.027746 
L 356.835193 46.027746 
L 356.845608 45.982607 
L 356.910454 45.955584 
L 356.93968 46.036789 
L 356.944463 46.027746 
L 356.947527 46.036789 
L 356.979838 45.964587 
L 357.03271 45.955584 
L 357.211318 45.874786 
L 357.318095 45.937594 
L 357.278172 45.847943 
L 357.337306 45.928606 
L 357.542385 45.946587 
L 357.542557 45.937594 
L 357.691887 45.892706 
L 357.694593 45.910646 
L 357.6991 45.919624 
L 357.774993 45.847943 
L 357.790083 45.865834 
L 357.991188 45.785483 
L 357.999701 45.812222 
L 358.113448 45.830073 
L 358.128363 45.803304 
L 358.176937 45.767682 
L 358.23259 45.821145 
L 358.376427 45.847943 
L 358.378637 45.856886 
L 358.383921 45.874786 
L 358.455082 45.77658 
L 358.466059 45.785483 
L 358.657664 45.678968 
L 358.663323 45.696672 
L 358.799136 45.7499 
L 359.534275 45.581943 
L 359.564029 45.608346 
L 359.630821 45.538033 
L 359.847272 45.529265 
L 359.852025 45.538033 
L 359.923577 45.44185 
L 359.933957 45.468025 
L 359.943981 45.476759 
L 360.154118 45.328914 
L 360.293843 45.277055 
L 360.294405 45.268428 
L 360.311825 45.285686 
L 360.433117 45.225362 
L 360.437254 45.233966 
L 360.487403 45.173834 
L 360.52248 45.165262 
L 360.578291 45.105386 
L 360.63881 45.13102 
L 360.733892 45.13102 
L 360.750246 45.165262 
L 360.88583 45.242574 
L 360.898013 45.233966 
L 361.020451 45.173834 
L 361.020558 45.165262 
L 361.158428 45.062753 
L 361.308966 44.960891 
L 361.367736 44.935525 
L 361.328257 44.927079 
L 361.399287 44.893338 
L 361.641018 44.775798 
L 361.742986 44.851261 
L 361.757308 44.842859 
L 361.871968 44.842859 
L 361.873475 44.834461 
L 362.020756 44.700686 
L 362.139794 44.684042 
L 362.146272 44.659108 
L 362.431879 44.568012 
L 362.51384 44.568012 
L 362.442455 44.559756 
L 362.538533 44.526774 
L 362.652013 44.444614 
L 362.546504 44.535013 
L 362.659746 44.461012 
L 362.735931 44.452811 
L 362.667996 44.452811 
L 362.758508 44.420047 
L 362.918388 44.322152 
L 363.071676 44.354718 
L 363.074093 44.362869 
L 363.17182 44.379185 
L 363.083576 44.338427 
L 363.184983 44.362869 
L 363.188794 44.371025 
L 363.268679 44.289652 
L 363.421337 44.241024 
L 363.437173 44.257217 
L 363.541445 44.192543 
L 363.54184 44.200613 
L 363.628558 44.144207 
L 363.643535 44.144207 
L 363.998394 43.920535 
L 364.109066 43.968204 
L 364.117698 43.936409 
L 364.731883 43.567436 
L 364.832325 43.528676 
L 365.738927 43.161242 
L 365.791685 43.09327 
L 365.851831 43.115896 
L 366.063692 43.085736 
L 366.071371 43.100809 
L 366.072069 43.10835 
L 366.176445 43.055632 
L 366.437631 42.988103 
L 366.439795 42.995592 
L 366.517067 42.898502 
L 366.713198 42.809396 
L 366.740349 42.846464 
L 367.571264 42.501346 
L 367.661561 42.494083 
L 367.59751 42.472313 
L 367.678193 42.479566 
L 367.856734 42.457816 
L 370.909619 41.331572 
L 370.978921 41.318064 
L 370.92823 41.304568 
L 371.007755 41.284344 
L 371.146465 41.237255 
L 371.439961 41.136809 
L 371.518299 41.163534 
L 371.545846 41.130135 
L 371.827303 41.030353 
L 371.831945 41.036986 
L 371.951669 41.063545 
L 371.95838 41.05026 
L 372.09992 41.023723 
L 372.09996 41.017095 
L 372.314609 41.01047 
L 372.315209 41.017095 
L 372.317313 41.023723 
L 372.368273 40.944371 
L 372.405797 40.950969 
L 372.607986 40.891687 
L 372.609452 40.911423 
L 372.710348 40.904842 
L 372.721718 40.878542 
L 372.880191 40.806439 
L 373.042436 40.812981 
L 373.044629 40.819525 
L 373.115877 40.728147 
L 373.128621 40.734657 
L 373.321245 40.663193 
L 373.322797 40.669677 
L 373.424602 40.656712 
L 373.389673 40.61788 
L 373.42911 40.650233 
L 373.572343 40.676163 
L 373.582059 40.643757 
L 373.68609 40.579142 
L 373.58304 40.650233 
L 373.692237 40.604957 
L 373.781279 40.540496 
L 373.909677 40.501943 
L 374.029773 40.45708 
L 374.030545 40.450681 
L 374.253035 40.450681 
L 374.255682 40.45708 
L 374.338248 40.393206 
L 374.287025 40.418725 
L 374.339254 40.386833 
L 374.422275 40.355003 
L 374.459311 40.380462 
L 374.696736 40.285198 
L 374.697901 40.291531 
L 374.70342 40.297867 
L 374.729813 40.253568 
L 374.802755 40.253568 
L 374.945736 40.240933 
L 375.064294 40.140211 
L 375.227162 40.096342 
L 375.23916 40.108864 
L 375.348617 40.171619 
L 375.392444 40.115128 
L 375.496614 40.146488 
L 375.41578 40.146488 
L 375.496708 40.152767 
L 375.602972 40.19679 
L 376.135791 39.977867 
L 376.136835 39.984081 
L 376.162241 39.965446 
L 376.249563 39.977867 
L 376.400689 39.996516 
L 376.543746 40.002737 
L 376.955998 39.872596 
L 377.005267 39.903486 
L 377.040616 39.829447 
L 377.064409 39.841764 
L 377.347354 39.743496 
L 377.46731 39.71291 
L 377.468085 39.700692 
L 377.584795 39.688483 
L 377.585669 39.694586 
L 377.729071 39.651911 
L 377.934684 39.536645 
L 378.150141 39.512483 
L 378.152528 39.500415 
L 378.280139 39.392213 
L 378.289982 39.398205 
L 378.547138 39.284731 
L 378.557102 39.290684 
L 378.639473 39.237191 
L 378.876961 39.054284 
L 378.985502 38.989876 
L 380.52017 38.495004 
L 380.603817 38.489338 
L 380.5462 38.455384 
L 380.622217 38.461038 
L 380.803731 38.353949 
L 380.94238 38.314674 
L 380.943759 38.309071 
L 383.912551 37.495257 
L 384.015284 37.511244 
L 383.933472 37.484608 
L 384.027604 37.489932 
L 384.146163 37.473966 
L 384.254203 37.495257 
L 384.268636 37.484608 
L 384.338134 37.479286 
L 384.286714 37.473966 
L 384.366025 37.447391 
L 386.557596 36.822394 
L 386.578617 36.853075 
L 386.630023 36.761206 
L 386.658607 36.781576 
L 386.813522 36.679981 
L 386.849268 36.659739 
L 386.934953 36.679981 
L 387.04989 36.659739 
L 387.055134 36.669857 
L 387.181963 36.649627 
L 387.205148 36.685046 
L 387.303002 36.644574 
L 387.245261 36.61933 
L 387.303475 36.634472 
L 388.49369 36.265071 
L 388.598793 36.240414 
L 388.541516 36.210876 
L 388.602238 36.235487 
L 390.544192 35.550723 
L 390.638362 35.541283 
L 390.548708 35.546002 
L 390.655014 35.512996 
L 390.802074 35.484759 
L 390.986507 35.447186 
L 390.990679 35.451878 
L 391.055086 35.437807 
L 391.08691 35.405021 
L 392.102441 35.172758 
L 392.127298 35.145109 
L 392.210961 35.149714 
L 393.306065 34.961989 
L 393.324121 34.984766 
L 393.397957 34.930156 
L 393.412943 34.939245 
L 393.51366 34.907456 
L 393.518915 34.90292 
L 393.711004 34.880259 
L 393.714535 34.88932 
L 393.715481 34.893852 
L 393.806965 34.844067 
L 393.818882 34.853107 
L 393.939001 34.821488 
L 394.097612 34.803448 
L 394.168082 34.798941 
L 394.192977 34.758435 
L 394.382738 34.735975 
L 394.628393 34.713547 
L 394.675215 34.740465 
L 394.733534 34.686674 
L 394.875813 34.673255 
L 394.881009 34.659846 
L 395.067266 34.628603 
L 395.072283 34.624145 
L 395.202435 34.628603 
L 395.376308 34.584075 
L 395.377024 34.588522 
L 395.539328 34.539669 
L 395.658681 34.41598 
L 395.817717 34.389598 
L 395.818899 34.385205 
L 396.100768 34.332585 
L 396.102696 34.336963 
L 396.130858 34.2976 
L 396.208659 34.315083 
L 396.348911 34.26705 
L 396.350237 34.262691 
L 396.523059 34.162745 
L 396.529438 34.167078 
L 396.610166 34.171411 
L 396.554547 34.141099 
L 396.642053 34.145426 
L 396.682817 34.110844 
L 396.754633 34.136774 
L 396.900521 34.132449 
L 396.904822 34.119483 
L 397.027545 34.076336 
L 397.206483 34.037603 
L 397.207996 34.029008 
L 397.513874 33.934767 
L 397.620951 33.926227 
L 397.532382 33.917691 
L 397.626231 33.917691 
L 397.718997 33.883593 
L 397.646875 33.926227 
L 397.739156 33.904896 
L 398.087841 33.849568 
L 398.178262 33.849568 
L 398.198583 33.828338 
L 398.300694 33.794429 
L 398.321786 33.811375 
L 398.393722 33.832582 
L 398.331564 33.8029 
L 398.425997 33.790195 
L 399.368858 33.563212 
L 399.535047 33.529855 
L 399.652567 33.500725 
L 399.659036 33.509042 
L 399.874987 33.492411 
L 399.879259 33.479949 
L 399.999103 33.430196 
L 400.286073 33.37647 
L 400.523601 33.298268 
L 400.526639 33.306482 
L 401.155081 33.20819 
L 401.156229 33.212273 
L 401.291033 33.204107 
L 401.413867 33.14706 
L 401.557178 33.167411 
L 401.557329 33.163338 
L 401.724566 33.122672 
L 401.725441 33.118611 
L 401.764946 33.138926 
L 401.842226 33.102378 
L 402.060296 33.110493 
L 402.060324 33.114551 
L 402.092748 33.138926 
L 402.153917 33.110493 
L 402.163767 33.114551 
L 402.366508 33.08616 
L 402.367572 33.082109 
L 402.472224 33.037606 
L 402.477876 33.045688 
L 402.507225 33.033567 
L 402.534628 32.973094 
L 402.553612 32.96907 
L 402.784392 32.920866 
L 402.881181 32.868808 
L 402.905231 32.884808 
L 402.931402 32.868808 
L 403.028992 32.888811 
L 403.17671 32.856818 
L 403.177845 32.852824 
L 403.431242 32.765192 
L 403.43125 32.769165 
L 403.572766 32.725517 
L 403.757079 32.697802 
L 403.777712 32.705715 
L 403.834308 32.666186 
L 403.861842 32.674084 
L 404.145544 32.642514 
L 404.152085 32.658291 
L 404.158655 32.670134 
L 404.198646 32.626753 
L 404.252678 32.630692 
L 404.683042 32.575633 
L 404.818175 32.56386 
L 404.827498 32.548175 
L 405.023121 32.556015 
L 405.147939 32.548175 
L 405.148247 32.544256 
L 405.273807 32.489491 
L 405.45264 32.431021 
L 405.581125 32.368885 
L 405.584838 32.372761 
L 405.751791 32.310849 
L 405.756211 32.318575 
L 405.853701 32.26072 
L 405.976892 32.229948 
L 405.978863 32.214585 
L 406.115992 32.160926 
L 406.253336 32.130344 
L 406.257626 32.118891 
L 406.60256 32.050342 
L 406.604158 32.057944 
L 406.768087 31.997226 
L 406.76921 31.993439 
L 407.003506 31.955615 
L 407.003949 31.959393 
L 407.135334 31.997226 
L 407.136417 31.993439 
L 407.225276 31.978299 
L 407.244968 31.982083 
L 407.406464 31.993439 
L 407.408717 31.985867 
L 407.523948 32.001014 
L 407.631219 31.974516 
L 407.915288 31.876472 
L 408.038488 31.853931 
L 408.040193 31.850178 
L 408.156834 31.801458 
L 408.675836 31.630237 
L 408.738809 31.652467 
L 408.692234 31.626535 
L 408.783775 31.619133 
L 408.965459 31.63394 
L 409.070093 31.608037 
L 409.01677 31.645054 
L 409.074564 31.611735 
L 409.441834 31.442506 
L 409.569216 31.438847 
L 410.032067 31.322187 
L 410.032597 31.329454 
L 410.342443 31.275034 
L 410.616707 31.199154 
L 410.715207 31.224408 
L 410.730424 31.209972 
L 410.830258 31.163146 
L 410.852331 31.170341 
L 410.984505 31.152359 
L 411.118022 31.09495 
L 411.12214 31.105699 
L 411.484538 31.077052 
L 411.485596 31.069898 
L 411.622892 31.0556 
L 411.625253 31.059174 
L 411.890568 30.977187 
L 411.891978 30.980743 
L 412.094641 30.970078 
L 412.094714 30.966524 
L 412.227664 30.909772 
L 412.342608 30.885006 
L 412.570424 30.867339 
L 412.752982 30.817975 
L 412.811626 30.779294 
L 412.862349 30.817975 
L 413.024651 30.803898 
L 413.113102 30.754727 
L 413.133194 30.768761 
L 413.402943 30.772271 
L 414.259159 30.618536 
L 414.259649 30.622013 
L 414.259662 30.625492 
L 414.333031 30.576861 
L 414.367901 30.597685 
L 414.854048 30.449037 
L 414.857964 30.459364 
L 415.003561 30.459364 
L 415.109946 30.414664 
L 415.115734 30.418098 
L 415.407124 30.407798 
L 415.508023 30.41123 
L 415.523403 30.394075 
L 415.73188 30.36324 
L 415.93344 30.325634 
L 416.214355 30.329049 
L 416.214841 30.332465 
L 416.306389 30.342717 
L 416.31856 30.322219 
L 416.32484 30.322219 
L 416.446811 30.315392 
L 416.451025 30.301748 
L 416.590998 30.274493 
L 416.596251 30.281302 
L 416.770631 30.240489 
L 417.038384 30.135529 
L 417.045618 30.145657 
L 417.174431 30.149034 
L 417.1781 30.14228 
L 417.3211 30.138905 
L 417.467215 30.132155 
L 417.578618 30.111923 
L 417.482302 30.135529 
L 417.580461 30.118664 
L 417.822138 30.058095 
L 417.82629 30.064814 
L 417.910275 30.041311 
L 417.930243 30.017842 
L 418.208022 29.964327 
L 418.461719 29.914317 
L 418.560263 29.85451 
L 418.572917 29.864462 
L 418.687735 29.841249 
L 418.689984 29.834623 
L 418.697658 29.841249 
L 418.857589 29.761914 
L 419.024481 29.781711 
L 419.313702 29.77181 
L 419.587038 29.745435 
L 419.699531 29.735556 
L 420.073016 29.663291 
L 420.778759 29.535976 
L 420.980115 29.477552 
L 421.160547 29.380648 
L 421.169886 29.393535 
L 421.278297 29.35812 
L 421.47139 29.249146 
L 421.48509 29.261928 
L 421.629975 29.229991 
L 421.739353 29.175843 
L 421.741762 29.179024 
L 421.86132 29.198118 
L 421.872274 29.185386 
L 421.989952 29.172664 
L 421.993338 29.182204 
L 422.346391 29.112372 
L 422.466775 29.109205 
L 422.473561 29.102873 
L 422.740996 29.011334 
L 422.741354 29.014482 
L 422.917032 28.986173 
L 423.104968 28.939102 
L 423.110358 28.948505 
L 423.15238 28.942236 
L 423.18334 28.898418 
L 423.205421 28.901544 
L 423.686274 28.811138 
L 423.830382 28.789391 
L 424.248847 28.730512 
L 424.250654 28.739795 
L 424.285036 28.739795 
L 424.324253 28.69961 
L 424.352774 28.705785 
L 426.683492 28.384711 
L 426.81237 28.381683 
L 427.298323 28.279091 
L 427.433693 28.240036 
L 427.927992 28.198082 
L 428.059505 28.204069 
L 428.603058 28.060999 
L 429.024465 28.069903 
L 429.024681 28.066935 
L 429.69329 27.839961 
L 429.900802 27.837034 
L 430.020014 27.799034 
L 430.028293 27.807795 
L 430.153102 27.831182 
L 430.153397 27.828257 
L 430.29274 27.775694 
L 430.586393 27.708778 
L 430.651754 27.697169 
L 430.608607 27.697169 
L 430.689553 27.673976 
L 430.81755 27.636357 
L 430.830957 27.659497 
L 430.980167 27.653709 
L 431.0761 27.610365 
L 431.103141 27.621912 
L 431.229553 27.604595 
L 431.482472 27.567138 
L 431.483577 27.570016 
L 431.49914 27.578654 
L 431.538677 27.55563 
L 431.593933 27.558506 
L 432.016511 27.535511 
L 432.283974 27.526896 
L 432.389371 27.481029 
L 432.397508 27.486755 
L 432.594195 27.458144 
L 443.490612 25.846301 
L 443.667704 25.82562 
L 443.668164 25.823037 
L 443.891101 25.817872 
L 443.891737 25.820454 
L 443.933629 25.82562 
L 443.943325 25.810127 
L 444.002507 25.817872 
L 444.215177 25.735454 
L 444.537506 25.681595 
L 444.557935 25.69184 
L 444.662905 25.656011 
L 444.901222 25.620262 
L 445.178173 25.587137 
L 445.487018 25.584591 
L 445.654559 25.584591 
L 445.654602 25.582047 
L 445.76191 25.566786 
L 445.658222 25.584591 
L 445.764326 25.571871 
L 446.163382 25.503354 
L 446.428524 25.48058 
L 447.106428 25.324557 
L 447.378126 25.272051 
L 447.479486 25.234651 
L 447.495619 25.242124 
L 447.731431 25.184918 
L 448.229586 25.137814 
L 448.244217 25.145243 
L 448.286098 25.125442 
L 448.335321 25.125442 
L 448.516742 25.080977 
L 448.842434 25.036636 
L 448.909974 25.046479 
L 448.869357 25.031716 
L 448.946601 25.034176 
L 450.093472 24.901897 
L 450.378566 24.845884 
L 450.638424 24.81431 
L 450.913061 24.794911 
L 451.193164 24.727196 
L 452.336127 24.57587 
L 453.019395 24.54482 
L 453.236832 24.482899 
L 453.408542 24.4544 
L 453.600312 24.416479 
L 453.600374 24.418846 
L 453.876321 24.383371 
L 454.366001 24.336192 
L 454.469456 24.3056 
L 454.470943 24.307951 
L 455.229041 24.204821 
L 455.249792 24.193143 
L 455.342444 24.195478 
L 455.504767 24.16282 
L 456.082675 24.042097 
L 456.22729 24.009748 
L 456.662873 23.938349 
L 456.691239 23.917679 
L 456.771398 23.908501 
L 457.541436 23.807886 
L 457.541785 23.810166 
L 457.623417 23.805607 
L 457.649467 23.787383 
L 458.066941 23.739643 
L 458.380254 23.728297 
L 460.668653 23.427164 
L 460.762137 23.431618 
L 460.695386 23.416036 
L 460.768039 23.427164 
L 461.185127 23.380477 
L 461.427863 23.344997 
L 461.650454 23.344997 
L 461.873177 23.356076 
L 462.218815 23.314015 
L 462.51947 23.298547 
L 462.649149 23.309594 
L 462.655799 23.298547 
L 462.76592 23.283093 
L 462.694891 23.307384 
L 462.769777 23.287507 
L 462.96836 23.267654 
L 463.508713 23.162184 
L 463.856797 23.140297 
L 465.215283 22.994419 
L 465.346958 22.98142 
L 465.348745 22.979254 
L 465.724991 23.00526 
L 465.845343 23.011768 
L 465.847693 23.009599 
L 465.952043 23.018279 
L 465.958168 23.024792 
L 466.712378 22.96194 
L 466.937546 22.920893 
L 467.180161 22.873496 
L 467.765451 22.845553 
L 467.850496 22.843406 
L 467.78667 22.851997 
L 467.867511 22.849849 
L 468.422113 22.817659 
L 468.672711 22.802659 
L 468.67275 22.804801 
L 469.131771 22.802659 
L 469.274907 22.815516 
L 469.515585 22.832673 
L 492.286459 20.960736 
L 492.560841 20.960736 
L 493.786404 20.857887 
L 494.01235 20.844603 
L 494.823003 20.804815 
L 495.037218 20.795357 
L 495.351546 20.75569 
L 496.419319 20.710477 
L 496.650106 20.676649 
L 496.650192 20.678527 
L 496.736595 20.657887 
L 496.755493 20.663513 
L 497.66609 20.597994 
L 508.284708 20.036224 
L 508.376132 20.030813 
L 509.077239 19.969605 
L 509.31716 19.96242 
L 510.190638 19.930124 
L 510.93523 19.915791 
L 511.263416 19.874655 
L 512.636369 19.822936 
L 513.753867 19.790918 
L 515.122376 19.728843 
L 515.606116 19.709382 
L 516.163958 19.681119 
L 517.586642 19.645858 
L 520.478946 19.563298 
L 521.777447 19.53354 
L 522.469165 19.482902 
L 523.034487 19.453292 
L 526.229051 19.314674 
L 526.931538 19.290537 
L 528.666375 19.214915 
L 529.611901 19.194352 
L 530.57702 19.175526 
L 531.563594 19.165267 
L 533.812061 19.125998 
L 535.664192 19.088527 
L 536.474346 19.073223 
L 537.856545 19.037569 
L 541.065004 18.969875 
L 542.299395 18.936134 
L 543.627078 18.880615 
L 545.476594 18.852089 
L 546.256434 18.840358 
L 548.083347 18.803543 
L 550.376189 18.751811 
L 553.969086 18.736822 
L 555.477734 18.725175 
L 565.615185 18.562982 
L 591.078981 18.428512 
L 594.19737 18.415452 
L 602.523774 18.350315 
L 603.618272 18.347065 
L 616.940947 18.303254 
L 630.949174 18.282202 
L 649.260279 18.259561 
L 668.291783 18.245023 
L 702.950286 18.24018 
L 702.950286 18.24018 
" style="fill:none;stroke:#000000;stroke-linecap:square;stroke-width:1.5;"/>
   </g>
   <g id="patch_3">
    <path d="M 54.645234 174.2 
L 54.645234 10.8 
" style="fill:none;stroke:#000000;stroke-linecap:square;stroke-linejoin:miter;stroke-width:0.8;"/>
   </g>
   <g id="patch_4">
    <path d="M 54.645234 174.2 
L 702.95 174.2 
" style="fill:none;stroke:#000000;stroke-linecap:square;stroke-linejoin:miter;stroke-width:0.8;"/>
   </g>
  </g>
 </g>
 <defs>
  <clipPath id="p6fa93b6d74">
   <rect height="163.4" width="648.304766" x="54.645234" y="10.8"/>
  </clipPath>
 </defs>
</svg>
